<?xml version="1.0" encoding="UTF-8" standalone="no"?>
<!DOCTYPE svg PUBLIC "-//W3C//DTD SVG 1.1//EN" "http://www.w3.org/Graphics/SVG/1.1/DTD/svg11.dtd">
<svg width="100%" height="100%" viewBox="0 0 242 241" version="1.1" xmlns="http://www.w3.org/2000/svg" xmlns:xlink="http://www.w3.org/1999/xlink" xml:space="preserve" xmlns:serif="http://www.serif.com/" style="fill-rule:evenodd;clip-rule:evenodd;stroke-linejoin:round;stroke-miterlimit:2;">
    <path d="M7.403,122.105C7.074,118.438 4.556,90.369 4.19,76.187C4.014,69.402 4.501,64.962 9.12,61.959C20.457,54.589 165.805,56.754 172.549,56.949C225.982,58.493 233.329,59.331 236.517,65.271C241.026,73.673 232.89,176.689 228.819,180.689C224.844,184.595 89.406,184.791 78.618,184.305C17.082,181.538 14.019,184.8 12.488,177.948C11.449,173.296 7.655,127.262 7.403,122.105Z"/>
    <path d="M13.374,121.934C13.062,118.658 10.676,93.581 10.329,80.912C10.163,74.85 10.624,70.884 15,68.201C25.742,61.617 163.45,63.551 169.839,63.725C220.465,65.104 227.425,65.853 230.445,71.16C234.717,78.666 227.009,170.698 223.152,174.272C219.386,177.761 91.066,177.936 80.845,177.502C22.544,175.03 19.642,177.944 18.192,171.823C17.207,167.667 13.613,126.541 13.374,121.934Z" style="fill:rgb(253,253,253);"/>
    <path d="M88.421,128.918C88.443,98.898 87.833,93.369 91.817,90.892C96.222,88.152 97.452,89.108 116.752,99.077C153.4,118.005 162.584,120.69 157.732,127.853C154.302,132.916 100.528,159.77 99.89,160.053C86.413,166.029 88.463,144.679 88.421,128.918Z" style="fill:rgb(15,15,15);"/>
</svg>
