<?xml version="1.0" encoding="UTF-8" standalone="no"?>
<!DOCTYPE svg PUBLIC "-//W3C//DTD SVG 1.1//EN" "http://www.w3.org/Graphics/SVG/1.1/DTD/svg11.dtd">
<svg width="100%" height="100%" viewBox="0 0 502 502" version="1.1" xmlns="http://www.w3.org/2000/svg" xmlns:xlink="http://www.w3.org/1999/xlink" xml:space="preserve" xmlns:serif="http://www.serif.com/" style="fill-rule:evenodd;clip-rule:evenodd;stroke-linejoin:round;stroke-miterlimit:2;">
    <g id="Background" transform="matrix(1,0,0,1,-260,-195)">
        <g transform="matrix(1.517722,0,0,1.517722,-265.779376,-507.209618)">
            <path d="M434.003,611.806C452.73,653.926 410.384,675.319 386.463,662.567C383.335,660.9 383.049,660.862 380.169,663.034C372.933,668.491 358.346,666.076 358.087,653.513C357.959,647.351 356.642,583.539 358.388,576.468C361.085,565.543 385.754,559.463 386.079,582.505C386.281,596.87 384.969,599.104 387.412,598.131C402.964,591.935 416.531,587.903 434.003,611.806L385.85,628.499C385.98,633.993 384.946,640.594 395.487,643.553C414.901,649.004 418.513,611.709 394.598,616.937C387.167,618.562 386.002,627.35 385.85,628.499L434.003,611.806Z" style="fill:rgb(2,0,5);fill-opacity:0.98;"/>
        </g>
        <g transform="matrix(1.517722,0,0,1.517722,-265.779376,-507.209618)">
            <path d="M589.876,629.502C589.955,577.944 586.771,568.361 601.472,567.182C621.731,565.558 617.298,588.03 617.372,593.5C617.478,601.359 621.425,596.063 625.625,594.984C671.465,583.201 685.068,649.491 647.507,663.516C628.061,670.776 616.663,661.425 614.513,660.457C613.093,659.817 609.451,665.646 603.508,665.749C586.605,666.044 589.85,651.42 589.876,629.502L618.064,622.257C606.232,646.981 646.179,651.89 642.715,627.457C641.684,620.189 629.544,608.633 618.064,622.257L589.876,629.502Z" style="fill:rgb(2,0,4);fill-opacity:0.98;"/>
        </g>
        <g transform="matrix(1.517722,0,0,1.517722,-265.779376,-507.209618)">
            <path d="M383.936,602.391C385.341,602.405 385.254,602.367 386.459,601.448C398.304,592.411 416.26,596.139 424.326,603.685C456.818,634.08 417.419,681.149 383.796,658.095C380.41,655.773 380.426,662.641 373.481,663.09C357.154,664.146 360.569,649.824 360.585,633.501C360.643,576.315 358.363,571.324 369.544,569.891C386.769,567.685 383.518,583.46 383.936,602.391L385.85,628.499C385.98,633.993 384.946,640.594 395.487,643.553C414.901,649.004 418.513,611.709 394.598,616.937C387.167,618.562 386.002,627.35 385.85,628.499L383.936,602.391Z" style="fill:rgb(189,128,211);"/>
        </g>
        <g transform="matrix(1.517722,0,0,1.517722,-265.779376,-507.209618)">
            <path d="M614.955,602.42C616.399,603.089 616.399,602.66 617.6,601.618C627.364,593.148 646.416,595.443 655.15,602.926C686.437,629.732 651.504,682.135 615.234,657.915C612.269,655.934 610.519,663.151 603.481,663.144C589.957,663.131 592.395,655.231 592.364,634.501C592.274,575.198 590.892,571.308 599.577,569.989C618.974,567.043 614.919,584.739 614.955,602.42L618.064,622.257C606.232,646.981 646.179,651.89 642.715,627.457C641.684,620.189 629.544,608.633 618.064,622.257L614.955,602.42Z" style="fill:rgb(227,159,238);fill-opacity:0.99;"/>
        </g>
        <g transform="matrix(1.517722,0,0,1.517722,-265.779376,-507.209618)">
            <path d="M507.905,619.575C520.222,582.64 574.241,586.81 584.723,618.427C597.811,657.901 543.52,682.355 517.001,654.988C502.895,640.43 506.952,626.568 507.905,619.575L553.789,641.996C569.552,629.171 553.617,617.862 552.5,617.5C527.35,609.341 526.755,652.335 553.789,641.996L507.905,619.575Z" style="fill:rgb(1,0,3);fill-opacity:0.98;"/>
        </g>
        <g transform="matrix(1.517722,0,0,1.517722,-265.779376,-507.209618)">
            <path d="M507.04,613.336C490.488,660.759 488.592,692.867 456.539,689.049C429.841,685.868 435.966,660.357 449.447,662.996C459.759,665.015 460.008,666.794 464.34,664.216C471.608,659.891 461.299,661.438 457.648,658.325C452.749,654.148 435.475,608.111 435.702,604.506C436.414,593.197 457.356,587.731 463.649,604.437C467.514,614.698 473.513,636.188 474.621,631.58C482.903,597.132 487.344,596.021 490.418,595.252C506.082,591.335 510.596,601.742 508.619,608.539C508.149,610.156 507.51,611.72 507.04,613.336Z" style="fill:rgb(1,0,3);fill-opacity:0.98;"/>
        </g>
        <g transform="matrix(1.517722,0,0,1.517722,-265.779376,-507.209618)">
            <path d="M611.471,604.505C612.022,605.593 612.443,605.314 612.487,606.51C612.521,607.413 617.209,605.38 617.299,605.282C626.153,595.753 641.605,596.691 652.285,603.81C669.11,615.026 668.448,643.785 652.819,654.958C640.24,663.95 628.909,661.237 628.486,661.248C627.393,661.277 627.538,661.043 626.389,660.795C620.673,658.55 620.728,658.617 615.576,655.394C610.277,652.079 609.213,664.087 598.615,660.271C593.194,658.319 595.16,656.024 594.666,589.501C594.57,576.637 592.641,570.923 605.518,572.254C606.269,572.332 612.389,572.965 612.594,578.495C612.619,579.183 612.647,595.055 612.649,596.495C612.657,600.755 613.527,600.889 611.471,604.505L618.064,622.257C606.232,646.981 646.179,651.89 642.715,627.457C641.684,620.189 629.544,608.633 618.064,622.257L611.471,604.505Z" style="fill:rgb(185,125,208);"/>
        </g>
        <g transform="matrix(1.517722,0,0,1.517722,-265.779376,-507.209618)">
            <path d="M583.914,632.51C575.738,688.15 488.762,663.075 512.99,613.755C526.6,586.05 585.716,589.299 583.914,632.51L553.789,641.996C569.552,629.171 553.617,617.862 552.5,617.5C527.35,609.341 526.755,652.335 553.789,641.996L583.914,632.51Z" style="fill:rgb(225,157,236);fill-opacity:0.99;"/>
        </g>
        <g transform="matrix(1.517722,0,0,1.517722,-265.779376,-507.209618)">
            <path d="M537.393,660.801C533.048,659.357 523.929,658.336 515.529,645.484C508.817,635.217 507.762,606.942 534.645,599.802C581.624,587.325 600.382,646.248 558.394,660.204C549.615,663.122 539.044,661.115 537.393,660.801L553.789,641.996C569.552,629.171 553.617,617.862 552.5,617.5C527.35,609.341 526.755,652.335 553.789,641.996L537.393,660.801Z" style="fill:rgb(185,125,208);"/>
        </g>
        <g transform="matrix(1.517722,0,0,1.517722,-265.779376,-507.209618)">
            <path d="M451.592,666.082C452.348,666.241 462.354,670.142 467.232,665.233C469.651,662.799 471.593,657.317 469.494,657.611C455.265,659.604 456.953,653.224 440.633,613.448C439.965,611.821 433.119,599.843 445.412,597.071C461.498,593.443 461.82,608.193 471.262,633.583C471.429,634.033 473.861,640.572 474.585,638.586C484.165,612.33 482.315,595.502 498.445,596.993C513.317,598.367 502.315,618.973 501.204,622.41C489.107,659.808 485.649,692.4 453.549,686.083C436.09,682.647 435.423,662.504 451.592,666.082Z" style="fill:rgb(226,158,237);fill-opacity:0.99;"/>
        </g>
        <g transform="matrix(1.517722,0,0,1.517722,-265.779376,-507.209618)">
            <path d="M455.152,643.615C455.64,642.971 456.775,643.065 457.263,642.42C457.479,642.134 456.891,641.798 456.789,641.454C456.214,639.502 457.329,639.529 457.493,639.533C462.222,639.647 458.356,645.079 458.614,645.477C460.013,647.633 460.885,646.987 461.609,649.476C462.813,653.618 463.536,648.666 463.561,648.493C463.822,646.707 462.334,645.32 461.953,643.673C461.444,641.469 470.159,643.973 474.364,644.092C476.914,641.291 484.478,614.195 487.743,604.515C490.715,595.704 504.333,599.048 504.348,604.53C504.358,608.044 486.952,659.686 485.346,664.452C474.818,695.689 441.489,684.173 442.565,673.499C443.513,664.088 452.911,668.926 454.509,669.339C457.718,670.169 459.466,669.17 461.536,670.056C473.109,668.588 474.887,655.774 470.519,655.166C466.201,654.565 460.661,660.758 455.152,643.615Z" style="fill:rgb(185,125,208);"/>
        </g>
        <g transform="matrix(1.517722,0,0,1.517722,-265.779376,-507.209618)">
            <path d="M631.41,648.126C600.968,648.877 606.084,605.101 635.49,612.556C646.124,615.251 652.179,631.084 643.399,642.414C643.222,642.643 642.886,642.207 640.662,644.792C640.1,645.445 634.401,647.942 633.48,647.773C632.337,647.563 632.489,647.942 631.41,648.126L618.064,622.257C606.232,646.981 646.179,651.89 642.715,627.457C641.684,620.189 629.544,608.633 618.064,622.257L631.41,648.126Z" style="fill:rgb(223,156,236);fill-opacity:0.99;"/>
        </g>
        <g transform="matrix(1.517722,0,0,1.517722,-265.779376,-507.209618)">
            <path d="M549.378,611.835C550.16,611.983 549.67,612.605 550.5,612.762C551.21,612.896 550.909,612.173 551.577,612.25C564.81,613.772 571.728,638.76 555.453,646.405C529.088,658.792 513.937,611.399 549.378,611.835L553.789,641.996C569.552,629.171 553.617,617.862 552.5,617.5C527.35,609.341 526.755,652.335 553.789,641.996L549.378,611.835Z" style="fill:rgb(222,155,235);fill-opacity:0.99;"/>
        </g>
        <g transform="matrix(1.517722,0,0,1.517722,-265.779376,-507.209618)">
            <path d="M387.728,614.978C408.925,602.442 424.82,627.925 411.665,642.634C411.106,643.259 406.416,648.504 402.536,647.786C399.704,647.261 397.145,650.056 388.386,645.674C385.722,644.341 371.859,629.565 387.728,614.978L385.85,628.499C385.98,633.993 384.946,640.594 395.487,643.553C414.901,649.004 418.513,611.709 394.598,616.937C387.167,618.562 386.002,627.35 385.85,628.499L387.728,614.978Z" style="fill:rgb(219,152,233);fill-opacity:0.99;"/>
        </g>
        <g transform="matrix(1.517722,0,0,1.517722,-265.779376,-507.209618)">
            <path d="M628.499,613.948C658.721,615.864 643.435,654.909 622.452,644.613C611.777,639.376 606.104,617.683 628.499,613.948L618.064,622.257C606.232,646.981 646.179,651.89 642.715,627.457C641.684,620.189 629.544,608.633 618.064,622.257L628.499,613.948Z" style="fill:rgb(1,0,4);fill-opacity:0.98;"/>
        </g>
        <g transform="matrix(1.517722,0,0,1.517722,-265.779376,-507.209618)">
            <path d="M547.493,613.978C575.671,617.867 560.575,657.043 537.62,643.314C530.198,638.875 524.457,615.415 547.493,613.978L553.789,641.996C569.552,629.171 553.617,617.862 552.5,617.5C527.35,609.341 526.755,652.335 553.789,641.996L547.493,613.978Z" style="fill:rgb(2,0,3);fill-opacity:0.99;"/>
        </g>
        <g transform="matrix(1.517722,0,0,1.517722,-265.779376,-507.209618)">
            <path d="M383.088,631.524C383.288,608.378 405.821,611.771 411.225,620.682C424.642,642.806 387.96,660.087 383.088,631.524L385.85,628.499C385.98,633.993 384.946,640.594 395.487,643.553C414.901,649.004 418.513,611.709 394.598,616.937C387.167,618.562 386.002,627.35 385.85,628.499L383.088,631.524Z" style="fill:rgb(1,0,2);fill-opacity:0.99;"/>
        </g>
        <g transform="matrix(1.517722,0,0,1.517722,-265.779376,-507.209618)">
            <path d="M455.152,643.615C439.922,605.699 437.777,602.628 444.604,599.755C463.553,591.781 460.385,624.318 474.364,644.092C470.159,643.973 461.444,641.469 461.953,643.673C462.334,645.32 463.822,646.707 463.561,648.493C463.536,648.666 462.813,653.618 461.609,649.476C460.885,646.987 460.013,647.633 458.614,645.477C458.356,645.079 462.222,639.647 457.493,639.533C457.329,639.529 456.214,639.502 456.789,641.454C456.891,641.798 457.479,642.134 457.263,642.42C456.775,643.065 455.64,642.971 455.152,643.615Z" style="fill:rgb(185,125,209);"/>
        </g>
    </g>
</svg>
