<?xml version="1.0" encoding="UTF-8" standalone="no"?>
<!DOCTYPE svg PUBLIC "-//W3C//DTD SVG 1.1//EN" "http://www.w3.org/Graphics/SVG/1.1/DTD/svg11.dtd">
<svg width="100%" height="100%" viewBox="0 0 760 760" version="1.1" xmlns="http://www.w3.org/2000/svg" xmlns:xlink="http://www.w3.org/1999/xlink" xml:space="preserve" xmlns:serif="http://www.serif.com/" style="fill-rule:evenodd;clip-rule:evenodd;stroke-linejoin:round;stroke-miterlimit:2;">
    <g transform="matrix(1,0,0,1,2,33)">
        <path d="M339.687,318.588C340.335,341.824 343.084,355.082 343.573,357.036C342.947,356.98 347.343,362.433 345.42,353.953C345.744,359.785 358.9,361.54 358.9,361.54L368.542,354.221C392.438,379.78 409.402,330.847 398.834,314.678L349.214,299.907L343.526,324.829L343.505,323.829L343.483,322.829L343.486,321.829L343.438,320.829L343.442,319.829L343.384,318.829L343.225,317.829C343.774,317.164 339.138,319.253 339.687,318.588Z" style="fill:rgb(5,0,19);fill-opacity:1;"/>
    </g>
    <g id="Background" transform="matrix(1,0,0,1,2,33)">
        <path d="M499.72,128.272C502.909,131.523 503.323,132.419 507.357,130.227C509.082,129.29 519.889,123.419 531.564,126.19C548.375,130.18 552.781,137.653 557.635,145.423C557.45,145.886 556.782,146.037 556.596,146.5C555.513,149.207 561.705,151.509 569.5,150.004L570.5,150.065L571.5,149.936C572.195,149.686 572.89,149.436 573.585,149.186C582.844,152.077 590.082,155.06 594.904,170.42L593.702,171.5L593.841,172.5L593.857,173.5C593.818,178.467 593.91,178.955 593.998,179.42C594.363,181.351 595.038,181.168 596.84,180.301C601.552,188.267 601.711,188.263 602.781,197.44C602.847,198.007 603.206,197.741 606.857,203.302L605.722,204.5C605.935,211.048 605.762,210.983 605.632,217.5C604.689,220.49 604.68,220.423 604.538,223.5C602.242,230.095 604.516,230.799 604.974,231.542C605.152,231.832 604.702,232.27 604.881,232.56C604.573,233.859 598.427,266.299 598.543,266.473C599.773,268.311 618.174,259.287 639.271,273.82C641.43,275.307 655.534,285.022 656.882,301.454C658.492,321.071 652.196,329.593 645.663,338.631C642.911,337.423 642.989,338.605 640.892,340.803C639.27,342.504 638.826,342.602 639.759,344.783C634.868,349.092 634.18,348.947 633.244,355.456C631.208,369.613 631.049,369.48 628.605,383.529C624.867,402.739 620.547,407.912 617.599,412.573C617.051,412.744 617.048,411.076 616.5,411.247C616.11,411.369 610.547,417.094 610.526,417.5C610.496,418.056 611.711,418.151 611.681,418.708C604.694,423.142 602.66,421.532 600.143,429.37C599.268,432.096 597.554,440.46 588.554,444.614C584.241,446.605 570.26,449.01 560.37,443.688C550.086,436.841 553.027,433.856 549.809,428.12C546.986,427.245 499.589,428.355 391.501,428.338C380.06,428.336 281.158,428.32 248.499,427.921C243.937,427.866 192.657,427.239 191.463,427.438C190.179,429.017 190.492,429.124 189.37,432.45L188.092,431.5C188.063,431.253 187.288,424.558 185.699,429.522C185.497,430.153 185.725,430.862 185.567,431.505C185.016,433.751 184.198,433.272 184.272,433.443C184.412,433.766 187.01,433.785 184.673,436.664C182.726,439.063 182.477,439.052 182.692,439.5C182.901,439.935 183.394,440.192 183.603,440.627C180.285,442.925 180.484,443.276 175.61,444.904L174.5,443.624L173.5,443.77C170.391,443.535 157.511,445.046 150.5,441.863C150.111,441.541 145.747,437.926 145.5,438.02C144.93,438.237 145.037,439.313 144.468,439.53C136.96,429.681 141.403,426.636 136.331,423.809C132.757,421.818 132.786,421.975 129.34,419.705C129.575,419.167 130.39,419.038 130.625,418.5C131.15,417.296 124.831,412.214 124.253,411.748C124.253,411.748 122.417,412.619 122.257,412.695C118.295,406.984 113.95,401.898 108.354,364.534C108.773,364.057 109.536,363.978 109.955,363.5C110.653,362.704 110.142,362.684 109.208,360.5L109.125,359.5L109.162,358.5C109.294,351.647 108.649,351.679 108.5,351.677C107.927,351.668 107.583,352.543 107.009,352.534C104.579,341.718 95.154,347.175 85.796,323.392C84.028,318.9 77.708,296.911 93.724,279.708C101.757,271.08 106.758,270.037 111.329,268.065L112.5,269.242L113.5,269.013C113.978,268.878 113.998,268.992 119.5,267.442L120.5,267.361L121.5,267.268C129.583,267.178 129.549,266.822 137.5,268.272C137.874,268.34 138.176,269.018 138.5,268.82C139.08,268.465 138.926,267.4 139.506,267.046C139.792,266.771 140.334,266.905 140.619,266.631C142.041,265.263 138.907,252.994 138.023,240.523C137.831,239.456 135.372,222.668 135.012,216.524C134.052,210.372 134.176,210.396 132.018,191.53L133.34,190.5L133.368,189.5C132.917,180.193 133.366,180.103 132.838,179.5C132.423,179.026 131.682,178.925 131.267,178.451C133.503,170.484 134.014,165.914 146.399,160.224L147.5,161.37L148.5,161.211C152.378,161.053 152.304,160.698 153.5,160.443L154.5,160.192L155.5,160.088L156.5,160.101L157.5,160.097C163.059,160.232 162.919,159.447 163.5,159.274L164.5,159.406L165.5,159.267L166.5,159.236L167.5,159.187C172.016,159.137 171.944,159.279 176.451,159.014L177.5,158.363L178.5,158.355L179.5,158.195L180.5,158.229L181.5,158.172L182.5,158.04C188.005,158.029 187.977,158.115 188.445,158.028C188.445,158.028 190.32,156.163 190.483,156.001L191.5,157.092L192.5,157.237L193.5,157.084L194.5,157.027L195.5,157.08C201.09,156.835 201.159,157.155 201.5,156.817C201.983,156.339 202.018,155.518 202.501,155.039C216.512,154.392 216.375,153.634 235.52,152.755L236.5,153.952L237.5,154.119L238.5,154.127C244.091,154.076 244.159,154.203 244.5,153.864C244.993,153.375 244.991,152.516 245.484,152.027L246.482,152L247.5,153.294L248.5,153.239L249.5,153.265C256.197,152.901 259.465,153.831 263.5,152.264L264.5,152.292L265.5,152.318L266.5,152.084L267.5,152.102C269.163,152.119 270.825,152.207 272.489,152.224C273.566,152.235 276.311,152.049 276.453,152.011C277.94,151.614 276.131,151.34 275.491,150.006C277.488,149.801 279.485,149.596 281.482,149.391C283.053,150.769 282.816,151.222 284.487,151.207C288.633,151.17 288.706,151.89 292.5,150.157L293.5,150.196L294.5,150.1L295.5,150.153L296.5,150.104C302.83,150.378 303.104,150.102 303.5,149.704C303.96,149.242 304.035,148.483 304.495,148.022C332.446,146.476 342.881,143.611 351.463,161.523C352.066,162.782 352.478,162.505 365.48,162.018C367.527,164.046 367.726,163.977 370.5,163.414L371.5,163.148L372.5,163.201L373.5,163.098L374.5,163.115L375.5,163.237L376.5,163.181L377.5,163.123L378.5,163.494L379.5,163.455L380.5,163.365L381.5,163.307C381.895,163.292 391.625,163.477 394.443,163.106C396.426,162.845 395.807,161.918 394.423,160.412C396.887,153.753 398.793,150.205 399.25,149.355C399.921,149.305 400.396,150.285 401.067,150.235C401.141,150.23 403.466,146.855 405.051,145.108C407.098,142.852 408.57,143.054 407.347,140.286C427.791,128 437.498,138.733 440.334,136.273C440.583,136.057 440.539,136.047 443.102,133.211C443.396,132.779 466.99,102.63 499.72,128.272L350.056,321.505C350.704,344.74 350.537,344.713 351.026,346.667C355.548,356.599 365.273,349.092 367.649,347.766C392.166,334.08 399.991,332.928 396.162,323.646C394.328,319.2 359.574,304.876 356.509,305.539C347.921,307.396 350.011,318.713 350.056,321.505L499.72,128.272Z" style="fill:rgb(22,11,40);fill-opacity:1;"/>
        <path d="M458.503,367.519C446.514,368.724 291.05,369.353 283.591,367.123C278.251,365.526 277.788,364.443 275.298,351.539C275.292,351.51 270.313,312.817 269.88,309.45C267.636,292.013 267.65,291.903 267.841,290.381C267.992,289.175 267.543,289.394 266.5,288.845C265.297,288.213 264.946,288.57 264.997,289.988C265.283,298.003 267.603,304.577 266.888,308.603C266.817,309 267.613,311.996 266.543,312.725C266.374,312.84 266.406,312.855 264.689,314.487C262.488,293.4 258.684,279.842 275.484,279.256C278.948,279.135 462.178,277.693 467.417,279.746C477.105,283.543 474.961,288.295 471.297,337.483C471.026,341.122 471.033,341.078 469.134,367.447L468.064,366.5C468.039,366.474 468.177,364.027 465.44,365.206C462.067,366.658 462.114,366.532 458.503,367.519L350.056,321.505C350.704,344.74 350.537,344.713 351.026,346.667C355.548,356.599 365.273,349.092 367.649,347.766C392.166,334.08 399.991,332.928 396.162,323.646C394.328,319.2 359.574,304.876 356.509,305.539C347.921,307.396 350.011,318.713 350.056,321.505L458.503,367.519Z" style="fill:rgb(61,38,88);fill-opacity:1;"/>
        <path d="M183.494,184.037C191.064,183.177 283.847,177.099 290.497,177.026C298.461,176.938 323.824,172.837 327.331,176.65C329.35,178.846 328.568,179.246 333.972,225.496C335.062,233.216 337.814,260.791 338.796,267.45C339.561,272.635 336.687,270.982 331.502,271.036C271.352,271.666 270.296,268.524 260.822,274.945C252.637,280.492 255.238,289.558 251.457,290.143C247.805,290.709 211.594,293.403 196.537,294.804C189.919,295.419 176.634,296.544 173.525,289.487C172.936,288.148 169.554,262.802 166.791,240.457C160.652,190.825 159.634,190.615 161.272,187.344C164.048,184.458 164.446,185.123 168.494,185.042C176.013,184.645 175.893,184.384 183.494,184.037Z" style="fill:rgb(235,230,236);fill-opacity:1;"/>
        <path d="M297.069,56.438C311.303,-3.097 395.845,-6.733 425.213,37.691C436.199,54.311 434.072,68.793 433.98,71.512C433.424,71.521 433.057,70.729 432.5,70.739C431.955,70.749 431.843,70.989 431.696,77.5L431.639,78.5L432.95,79.588C426.325,105.565 408.293,114.369 397.619,119.735C393.406,121.852 392.292,125.891 390.199,130.356C377.015,158.487 363.695,132.861 360.031,127.843C357.449,124.307 340.551,125.995 324.752,116.109C300.205,100.749 297.338,80.122 297.181,79.567C297.467,78.878 297.753,78.189 298.039,77.5L298.119,76.5C298.325,68.502 298.194,68.595 298.099,59.5L298.207,58.5L298.418,57.5L297.069,56.438L365.493,18.984C329.925,20.244 306.699,39.696 307.055,70.522C308.8,81.987 314.138,109.532 358.529,115.313C368.027,116.549 366.68,119.181 371.841,127.273C378.748,138.1 381.214,122.949 383.367,118.437C389.083,106.459 413.54,108.336 422.03,75.444C422.663,71.829 422.668,71.853 422.714,71.54C422.941,69.995 422.779,70.046 423.008,68.488C422.002,58.374 421.164,29.345 374.44,19.906C371.458,19.599 368.475,19.291 365.493,18.984L297.069,56.438Z" style="fill:rgb(34,18,53);fill-opacity:0.99;"/>
        <path d="M465.581,128.989C470.543,127.797 470.486,127.994 475.503,128.05C497.403,129.455 496.762,147.993 504.376,143.302C512.086,138.553 511.676,137.776 520.457,135.317C520.581,135.428 520.575,137.146 523.492,137.202C523.893,137.21 528.172,137.292 528.5,136.979C528.976,136.524 529.071,135.76 529.547,135.306C533.694,136.626 537.499,136.156 546.194,145.77C552.907,153.193 548.863,161.699 557.452,159.375C557.965,159.563 557.846,158.897 558.356,159.083C559.148,159.372 558.691,159.871 559.5,160.123C560.118,160.315 560.793,160.032 561.441,160.044C567.931,160.165 568.022,160.399 568.5,159.984C568.986,159.563 569.05,158.778 569.535,158.356C574.984,160.137 575.33,159.56 579.499,163.501C580.45,164.4 583.719,167.987 585.123,172.608C587.981,182.015 582.871,184.524 588.402,187.688C593.829,190.793 596.301,198.774 588.464,197.855C585.59,197.518 558.598,194.353 552.491,193.971C548.649,193.73 516.437,191.715 504.507,190.44C488.563,189.195 470.438,188.834 467.473,188.775C465.82,188.614 464.168,188.452 462.515,188.291C444.977,187.658 445.06,188.184 427.511,187.312C424.871,187.221 417.316,186.962 394.499,186.916C389.868,186.906 383.794,189.386 385.01,180.429C388.268,168.253 399.516,172.863 402.61,171.766C405.926,170.59 400.226,147.097 425.501,143.978C428.052,144.12 428.003,143.999 430.521,144.429C437.437,146.209 438.251,147.211 439.749,148.106C448.733,153.474 443.694,136.124 465.581,128.989Z" style="fill:rgb(253,240,205);fill-opacity:1;"/>
        <path d="M5.974,465.536C6.276,464.077 8.724,452.254 21.544,455.311C33.748,458.221 32.137,469.935 32.141,473.502C32.172,499.616 31.669,502.164 33.554,500.678C45.729,491.079 72.462,494.115 84.085,510.803C106.908,543.575 81.478,583.425 47.448,577.79C33.299,575.447 33.519,567.748 28.267,572.214C19.397,579.755 6.66,576.115 6,562.482C5.625,554.751 5.944,473.292 5.974,465.536L67.064,534.527C63.85,509.988 36.667,512.849 32.237,528.415C23.716,558.363 66.949,568.751 67.064,534.527L5.974,465.536Z" style="fill:rgb(28,17,46);fill-opacity:0.99;"/>
        <path d="M354.944,528.443L353.753,529.5L353.861,530.5L353.854,531.5C353.786,541.589 353.886,543.461 353.942,544.5L353.896,545.5L353.824,546.5C354.167,547.189 354.509,547.879 354.851,548.568C351.594,559.193 345.579,576.574 318.504,578.57C304.169,579.627 295.307,569.308 292.801,571.799C289.222,575.356 288.547,577.523 279.537,577.028C266.957,576.336 268.978,560.265 268.896,521.501C268.788,470.41 267.472,466.742 277.422,464.207C294.672,459.812 295.039,476.69 295.079,478.507C295.276,487.6 294.368,501.991 295.544,502.294C298.948,503.17 299.353,495.345 320.467,496.834C346.899,498.699 353.967,524.831 354.944,528.443L295.052,541.548C301.731,569.202 340.052,556.091 328.786,528.383C322.445,512.788 292.297,510.048 295.052,541.548L354.944,528.443Z" style="fill:rgb(39,24,59);fill-opacity:0.99;"/>
        <path d="M396.499,195.567C408.4,195.982 454.477,196.878 459.519,196.976C474.338,197.507 494.458,198.572 497.489,198.827C495.554,200.23 495.183,200.137 495.104,202.501C494.414,223.196 493.134,240.033 494.18,242.533C496.388,247.808 494.583,247.866 493.325,253.5C492.948,255.186 490.503,324.306 490.561,325.533C490.495,326.523 490.428,327.513 490.362,328.504C491.416,330.964 489.099,331.087 490.16,333.566C490.543,334.461 490.754,333.441 492.428,333.327C493.096,333.281 513.393,333.33 513.502,333.357C516.811,334.185 516.019,332.342 516.269,329.475C516.449,327.409 516.438,327.513 516.617,325.424C516.719,324.788 516.821,324.153 516.923,323.517C517.645,323.656 517.819,324.878 518.541,325.017C518.767,325.061 531.18,324.654 539.43,322.002C539.625,321.94 539.618,321.983 541.974,321.745L541.841,322.624C541.126,323.332 540.061,323.616 539.345,324.324C538.043,325.613 537.366,331.615 537.292,332.267C537.247,332.665 537.826,333.22 537.499,333.452C537.332,333.57 524.811,333.546 524.5,333.542C518.854,333.47 518.569,332.782 517.5,334.021C517.045,334.548 516.88,335.285 516.424,335.812C499.42,335.254 499.483,336.004 482.492,335.644C479.237,335.575 481.661,326.945 482.371,310.482C483.191,302.962 482.884,303.043 483.76,295.532C487,267.737 462.553,270.968 458.458,270.942L458.789,269.5C458.866,269.299 459.417,268.932 459.547,267.503C460.479,257.238 458.041,250.851 457.524,249.496C455.009,242.906 458.258,242.226 456.864,239.236C456.673,238.825 456.757,238.808 456.431,201.499C456.424,200.667 457.209,199.213 454.492,199.11C453.213,199.061 451.908,199.309 450.655,199.051C450.162,198.949 449.993,198.181 449.5,198.08L448.5,198.126L447.5,198.15C441.057,199.334 427.377,198.326 427.062,198.33C425.892,198.347 428.001,218.019 428.184,219.723C428.674,220.42 429.164,221.117 429.654,221.813C424.374,224.761 417.352,230.153 422.866,242.285C421.497,242.289 421.31,242.707 420.446,241.575C416.551,236.475 397.078,246.536 406.519,255.479C408.421,257.281 421.682,263.642 428.53,254.518C428.791,256.056 429.124,255.922 429.035,257.489C428.687,263.546 429.208,263.442 430.12,269.5L430.553,270.865C409.405,270.959 408.555,270.694 403.487,270.676C385.559,270.611 382.993,270.78 382.505,269.498C382.114,268.472 376.545,202.387 376.49,201.5C375.994,193.448 388.343,195.407 396.499,195.567Z" style="fill:rgb(242,236,242);fill-opacity:1;"/>
        <path d="M502.96,543.473C502.945,542.51 502.805,533.388 503.24,531.441C512.719,489.047 549.451,496.25 558.709,503.179C563.362,506.661 559.009,485.036 560.842,474.553C562.844,463.101 583.938,460.151 584.08,479.501C584.132,486.539 584.638,555.523 584.153,567.487C583.691,578.874 569.302,582.756 563.215,571.647C561.505,568.525 558.422,572.82 554.261,575.066C537.789,583.958 521.221,573.557 518.81,572.043C507.133,564.713 503.464,546.038 502.96,543.473L527.024,541.52C526.632,563.609 567.736,567.315 559.846,530.419C556.626,515.359 525.713,508.804 527.024,541.52L502.96,543.473Z" style="fill:rgb(140,101,174);fill-opacity:0.99;"/>
        <path d="M598.498,280.479C598.351,282.884 597.855,282.617 596.436,284.464C595.614,285.535 593.155,282.615 591.649,285.533C589.772,289.171 587.929,289.498 589.236,290.757C590.916,292.376 590.008,292.673 588.621,294.563C588.039,294.346 588.19,293.217 587.608,293C587.352,292.904 584.302,296.676 582.494,295.519C582.112,295.274 581.97,294.485 581.524,294.565C581.162,294.63 577.124,303.028 575.93,306.497C572.483,316.514 568.346,345.796 568.597,347.307C568.703,347.944 569.704,348.181 569.809,348.817C571.758,344.947 572.156,345.24 574.173,341.377C574.619,341.381 575.054,341.537 575.5,341.541C580.255,341.583 577.841,313.939 591.118,295.06C602.119,279.418 621.226,285.379 624.369,286.81C646.107,296.703 639.273,320.473 639.587,321.5C639.746,322.018 640.65,322.055 640.809,322.574C638.004,329.337 628.731,338.224 626.541,339.542C624.792,340.594 625.467,340.988 625.858,342.944C624.905,344.102 624.876,343.986 624.217,345.397C621.476,343.955 621.449,343.549 618.462,344.37C616.372,344.943 616.645,345.341 615.675,347.258C615.536,347.442 613.936,349.557 613.936,349.557C607.07,390.757 609.375,393.616 611.738,396.545C610.144,399.582 609.227,399.74 610.864,402.797C610.477,403.416 610.09,404.034 609.703,404.652C603.869,401.172 603.8,406.442 586.521,408.669C578.677,409.68 560.63,408.248 563.796,399.59C565.854,393.963 566.031,393.955 565.844,393.5C565.575,392.848 564.361,392.965 564.093,392.312C575.152,360.003 565.538,355.191 566.409,345.491C566.891,340.12 570.435,312.298 575.825,300.641C580.731,290.027 582.838,287.415 591.422,281.379C594.717,283.459 594.911,282.077 598.498,280.479Z" style="fill:rgb(154,114,188);fill-opacity:1;"/>
        <path d="M202.657,497.994C246.085,486.607 261.133,519.511 262.018,532.528C264.861,574.343 220.842,592.119 188.852,568.06C183.338,563.913 176.928,551.659 176.126,545.559C171.604,511.171 194.467,501.741 202.657,497.994L217.514,516.957C189.589,521.324 201.266,565.023 226.61,554.755C243.746,547.813 238.25,517.742 221.538,517.067C220.197,517.012 218.855,517.011 217.514,516.957L202.657,497.994Z" style="fill:rgb(33,20,53);fill-opacity:0.99;"/>
        <path d="M127.512,284.625C122.505,286.1 122.462,285.816 119.457,287.334C118.83,287.165 118.645,286.19 118.018,286.021C115.949,285.462 103.837,292.102 108.825,314.427C113.603,335.818 123.761,342.477 126.192,344.805C129.194,347.679 124.698,382.552 148.6,401.366C159.124,409.649 176.109,407.06 177.342,406.262C178.744,405.354 178.496,404.752 170.709,386.468C170.007,384.818 171.008,385.023 172.884,383.41C181.254,409.32 189.068,407.977 291.501,408.403C359.66,408.687 360.084,409.845 365.254,407C366.214,406.473 370.194,403.291 371.289,403.951C379.147,408.676 379.444,408.445 395.5,408.425C406.353,408.412 428.071,408.584 498.499,408.062C549.708,407.682 553.749,406.247 564.093,392.312C564.361,392.965 565.575,392.848 565.844,393.5C566.031,393.955 565.854,393.963 563.796,399.59C560.63,408.248 578.677,409.68 586.521,408.669C603.8,406.442 603.869,401.172 609.703,404.652L608.942,405.798C604.586,405.279 605.421,407.287 602.26,410.219C595.546,416.445 577.918,415.069 542.513,415.791C530.775,416.031 163.034,418.903 143.71,413.103C130.464,409.126 125.586,398.084 120.47,362.505C117.972,345.136 120.046,344.188 116.578,341.388C113.522,338.921 94.466,327.306 95.602,305.5C96.234,293.371 103.617,286.955 104.573,285.717C104.843,285.367 105.067,283.253 107.247,285.529C108.936,289.851 110.379,286.908 115.456,284.973C126.198,280.879 127.077,284.278 127.512,284.625Z" style="fill:rgb(114,74,147);fill-opacity:1;"/>
        <path d="M666.996,547.447C659.064,486.597 732.786,485.826 745.003,522.657C758.986,564.813 718.984,589.54 688.635,575.226C670.048,566.459 667.269,548.267 666.996,547.447L693.01,525.19C681.159,544.18 696.494,564.217 714.616,556.773C732.629,549.374 725.079,512.657 702.468,518.401C696.604,519.891 696.843,520.44 693.01,525.19L666.996,547.447Z" style="fill:rgb(140,102,175);fill-opacity:0.99;"/>
        <path d="M127.512,284.625C128.693,284.406 144.452,283.407 153.639,300.411C161.482,314.926 161.4,322.881 164.253,335.558C166.179,344.115 163.449,346.701 169.458,350.536C169.8,350.143 170.266,349.871 170.608,349.478C171.872,348.025 172.729,347.04 168.247,325.514C167.287,320.903 167.896,320.891 167.798,320.5C167.674,320.009 166.977,319.857 166.742,319.408C166.579,319.097 166.165,318.305 166.5,315.032L167.913,314.41C175.691,346.071 174.093,347.186 172.27,351.392C168.622,359.803 172.429,380.889 172.884,383.41C171.008,385.023 170.007,384.818 170.709,386.468C178.496,404.752 178.744,405.354 177.342,406.262C176.109,407.06 159.124,409.649 148.6,401.366C124.698,382.552 129.194,347.679 126.192,344.805C123.761,342.477 113.603,335.818 108.825,314.427C103.837,292.102 115.949,285.462 118.018,286.021C118.645,286.19 118.83,287.165 119.457,287.334C122.462,285.816 122.505,286.1 127.512,284.625Z" style="fill:rgb(154,114,188);fill-opacity:1;"/>
        <path d="M162.529,496.019C180.248,497.683 173.225,513.935 169.856,524.607C153.658,575.913 151.995,589.826 138.784,599.849C118.718,615.073 85.631,606.464 94.908,589.742C102.781,575.548 120.335,596.835 128.005,575.364C130.125,569.429 117.897,578.054 110.878,561.34C106.771,551.557 95.319,514.107 95.176,513.586C88.635,489.763 112.506,496.445 114.56,497.396C120.99,500.372 125.747,532.437 132.401,550.538C136.186,560.832 138.634,546.988 139.052,545.41C150.05,503.885 148.003,502.39 154.412,497.352L155.5,498.805C157.251,498.062 157.227,498.005 157.391,498.003C160.335,497.955 160.435,498.027 162.529,496.019Z" style="fill:rgb(29,17,47);fill-opacity:0.99;"/>
        <path d="M590.995,546.439C590.921,545.161 590.31,534.54 591.145,530.435C600.374,485.05 653.659,493.309 660.088,516.61C669.295,549.983 625.13,548.281 617.513,548.625C611.517,548.896 619.701,557.227 624.48,558.556C642.62,563.603 651.993,547.965 659.357,556.615C672.75,572.35 633.057,587.997 609.305,573.824C598.03,567.096 594.19,559.22 590.995,546.439L629.543,532.955C630.201,532.805 630.897,532.872 631.556,532.722C645.252,529.606 643.751,515.825 627.448,517.098C618.945,517.762 613.045,528.738 613.856,533.467C614.068,534.705 614.573,535.967 629.543,532.955L590.995,546.439Z" style="fill:rgb(140,101,174);fill-opacity:0.99;"/>
        <path d="M540.488,345.731C547.881,346.633 548.359,345.068 554.218,348.903C559.368,352.274 563.478,366.585 555.786,386.666C555.295,386.649 554.991,385.961 554.5,385.944C554.5,385.944 551.62,386.921 551.369,387.006C519.696,394.578 485.797,393.261 382.516,394.309C380.784,394.327 381.783,392.72 381.791,392.641C382.487,391.684 383.182,390.727 383.877,389.77L384.441,388.341C389.737,387.699 430.162,388.155 459.494,388.099C464.324,387.82 464.967,388.885 466.423,386.555C471.266,384.737 480.309,385.439 481.599,356.501C481.675,354.797 481.566,354.805 481.622,354.67C481.901,354.007 482.408,354.578 482.691,353.906C482.053,352.181 481.805,352.247 482.021,350.387C482.054,350.098 481.948,347.513 482.411,347.373C482.807,347.253 506.321,347.234 520.5,347.524C536.393,347.85 537.409,348.904 540.488,345.731Z" style="fill:rgb(157,119,190);fill-opacity:1;"/>
        <path d="M561.46,203.679C574.55,204.666 574.468,204.929 587.521,206.127C592.823,206.995 597.323,207.227 597.873,210.439C598.539,214.327 589.009,263.841 588.119,268.463C587.043,275.004 585.646,274.321 580.373,278.345C563.259,294.932 562.956,311.149 558.696,333.539C557.791,338.297 555.64,336.359 538.467,336.029C540.233,333.09 540.995,327.093 541.841,322.624L541.974,321.745C542.217,321.023 542.46,320.301 542.703,319.579C548.02,288.522 548,288.609 552.958,257.556C560.881,207.934 559.705,207.674 561.46,203.679Z" style="fill:rgb(195,171,212);fill-opacity:1;"/>
        <path d="M409.02,518.68C413.563,530.714 414.327,530.312 418.862,542.356C418.931,542.54 420.114,545.68 421.141,543.295C438.171,503.761 436.15,501.274 443.601,498.833C454.733,495.188 462.916,504.064 459.158,513.37C458.573,514.82 437.69,561.09 434.094,568.28C428.402,579.661 413.436,583.864 404.701,565.404C395.158,545.238 385.893,524.199 384.306,520.595C382.19,515.791 373.873,502.822 388.576,498.835C399.322,495.921 403.692,506.281 404.251,507.605C407.562,515.455 407.442,515.407 409.02,518.68Z" style="fill:rgb(140,101,174);fill-opacity:0.99;"/>
        <path d="M531.502,200.959C543.727,202.242 559.062,203.485 561.46,203.679C559.705,207.674 560.881,207.934 552.958,257.556C548,288.609 548.02,288.522 542.703,319.579C542.46,320.301 542.217,321.023 541.974,321.745C539.618,321.983 539.625,321.94 539.43,322.002C531.18,324.654 518.767,325.061 518.541,325.017C517.819,324.878 517.645,323.656 516.923,323.517C517.803,311.475 522.583,266.494 521.994,261.534C521.799,259.889 522.507,259.752 522.596,259.442C523.348,260.552 528.022,267.455 538.539,264.625C552.304,260.92 542.928,244.517 531.484,246.294C527.303,246.944 528.954,254.32 523.215,251.019C537.506,240.266 527.054,227.145 521.502,225.494C499.197,218.864 495.222,255.296 519.451,252.261C519.952,252.556 519.908,251.758 520.417,252.059C520.555,252.14 521.332,252.599 521.698,253.587C521.812,253.891 521.205,254.18 521.318,254.485C516.944,254.932 510.657,255.392 506.511,251.484C494.97,240.606 502.053,228.306 508.464,224.443C514.836,220.605 521.52,223.191 522.511,223.362C524.204,223.655 527.623,226.5 527.896,226.64C528.616,227.009 528.2,210.284 531.502,200.959Z" style="fill:rgb(252,246,249);fill-opacity:1;"/>
        <path d="M378.873,91.957C367.654,101.086 366.005,103.279 358.801,97.141C348.285,88.18 318.328,67.178 332.903,46.819C336.144,42.292 350.038,34.046 362.233,46.765C362.3,46.835 364.35,50.342 366.388,48.386C366.389,48.386 372.599,40.014 383.496,39.989C396.293,39.959 415.128,59.589 388.39,83.377C383.573,87.662 383.887,87.904 378.873,91.957Z" style="fill:rgb(146,111,181);fill-opacity:0.99;"/>
        <path d="M497.489,198.827C517.561,199.719 528.787,200.718 531.502,200.959C528.2,210.284 528.616,227.009 527.896,226.64C527.623,226.5 524.204,223.655 522.511,223.362C521.52,223.191 514.836,220.605 508.464,224.443C502.053,228.306 494.97,240.606 506.511,251.484C510.657,255.392 516.944,254.932 521.318,254.485C521.72,256.505 521.288,256.568 522.596,259.442C522.507,259.752 521.799,259.889 521.994,261.534C522.583,266.494 517.803,311.475 516.923,323.517C516.821,324.153 516.719,324.788 516.617,325.424C494.323,325.787 494.319,326.207 492.408,325.891C492.032,325.829 492.543,324.956 492.212,324.765C492.212,324.765 490.693,325.471 490.561,325.533C490.503,324.306 492.948,255.186 493.325,253.5C494.583,247.866 496.388,247.808 494.18,242.533C493.134,240.033 494.414,223.196 495.104,202.501C495.183,200.137 495.554,200.23 497.489,198.827Z" style="fill:rgb(187,157,211);fill-opacity:1;"/>
        <path d="M174.432,303.09C205.783,304.774 251.819,296.692 253.54,298.463C256.687,301.705 254.961,303.206 250.506,303.571C237.168,304.664 234.172,304.454 235.695,306.381C245.855,319.227 253.598,307.15 255.166,312.544C256.046,315.572 243.632,314.093 245.781,316.312C247.421,318.005 252.217,321.713 252.795,322.16C254.587,323.546 256.107,322.168 256.602,325.481C256.864,327.239 256.743,327.239 258.764,347.599C248.384,346.839 218.166,353.666 211.752,350.037C204.632,346.008 182.476,321.845 181.84,320.346C178.926,313.488 179.94,310.469 174.432,303.09Z" style="fill:rgb(124,104,140);fill-opacity:1;"/>
        <path d="M238.695,164.704C235.965,170.997 240.887,173.431 245.122,169.291C251.463,165.074 251.929,166.558 259.503,166.354C264.703,166.214 264.605,165.636 324.491,163.946C330.792,163.768 336.953,168.893 337.384,169.562C339.231,172.432 344.229,218.482 344.831,226.525C344.976,228.459 343.754,228.248 343.7,228.494C343.461,229.586 344.04,230.731 343.912,231.842C343.876,232.154 343.196,232.189 343.239,232.5C343.297,232.927 343.998,233.025 344.131,233.434C344.252,233.809 344.899,240.327 344.856,240.759C344.82,241.124 344.008,241.135 344.042,241.5C344.082,241.921 344.859,241.932 345.003,242.329C345.369,243.335 345.367,244.438 345.495,245.5C345.895,248.815 346.272,249.116 343.787,251.47C335.326,174.013 335.835,173.391 333.059,170.979C328.645,167.145 327.805,167.758 232.519,173.84C157.885,178.605 153.481,177.546 152.337,185.477C151.856,188.813 159.303,242.499 159.99,247.447C164.487,279.865 165.839,288.638 162.858,283.258C158.265,274.966 153.617,277.803 151.805,268.44C151.69,267.85 140.569,189.366 141.265,180.474C142.13,169.439 154.867,167.477 156.461,167.232C156.326,167.403 154.775,169.378 154.775,169.378C154.851,170.735 231.939,162.492 238.695,164.704Z" style="fill:rgb(95,77,115);fill-opacity:1;"/>
        <path d="M185.475,353.411C197.715,374.651 207.475,377.083 252.523,374.846C259.842,374.482 255.55,386.346 278.488,387.692C286.009,388.133 285.926,388.211 293.489,387.921C328.361,388.536 354.189,387.992 360.381,388.839C360.565,389.324 361.803,392.591 363.496,394.534C348.5,392.814 210.768,396.496 193.364,387.751C190.342,386.233 190.356,386.415 187.469,384.549C187.11,384.252 186.751,383.955 186.392,383.658C185.95,383.465 185.992,383.602 185.534,383.402C184.225,382.828 184.274,383.547 183.171,383.674C182.821,382.742 181.184,378.386 180.615,371.489C179.369,356.397 182.202,355.239 185.475,353.411Z" style="fill:rgb(153,114,186);fill-opacity:1;"/>
        <path d="M264.689,314.487C266.406,312.855 266.374,312.84 266.543,312.725C267.613,311.996 266.817,309 266.888,308.603C267.603,304.577 265.283,298.003 264.997,289.988C264.946,288.57 265.297,288.213 266.5,288.845C267.543,289.394 267.992,289.175 267.841,290.381C267.65,291.903 267.636,292.013 269.88,309.45C270.313,312.817 275.292,351.51 275.298,351.539C277.788,364.443 278.251,365.526 283.591,367.123C291.05,369.353 446.514,368.724 458.503,367.519C462.114,366.532 462.067,366.658 465.44,365.206C468.177,364.027 468.039,366.474 468.064,366.5L469.134,367.447C466.035,378.731 462.03,376.558 419.501,376.696C408.298,376.733 292.002,377.111 279.469,375.758C269.18,374.647 269.376,367.08 264.689,314.487Z" style="fill:rgb(43,22,69);fill-opacity:1;"/>
        <path d="M546.701,318.913C546.443,318.359 545.061,318.65 545.847,314.688C546.12,313.311 546.494,311.955 546.779,310.581C548.007,304.658 559.463,232.851 561.702,216.513C562.956,207.365 562.465,205.907 565.526,206.185C571.991,206.773 571.991,206.15 572.549,206.222C572.985,206.279 573.195,206.844 573.594,207.03C573.788,207.12 585.269,208.056 585.437,208.195C585.654,208.374 583.554,220.418 583.369,221.477C573.17,279.959 572.46,279.841 571.89,280.983C570.749,283.265 569.515,281.86 567.984,283.893C553.146,303.603 558.153,312.586 546.701,318.913Z" style="fill:rgb(183,151,210);fill-opacity:1;"/>
        <path d="M495.047,567.475C490.506,584.843 471.601,578.386 470.822,568.469C470.797,568.149 469.826,510.279 471.231,506.408C475.414,494.882 494.824,497.041 494.947,510.485C495.004,516.755 494.955,564.371 495.047,567.475Z" style="fill:rgb(141,102,175);fill-opacity:0.99;"/>
        <path d="M238.695,164.704C231.939,162.492 154.851,170.735 154.775,169.378C154.775,169.378 156.326,167.403 156.461,167.232C188.139,165.259 325.195,154.095 332.391,155.984C345.395,159.398 343.496,167.115 349.093,210.537C350.108,218.414 353.792,255.979 355.294,267.528C355.922,272.354 353.356,270.873 348.513,270.877C345.018,270.88 345.391,265.691 343.787,251.47C346.272,249.116 345.895,248.815 345.495,245.5C345.367,244.438 345.369,243.335 345.003,242.329C344.859,241.932 344.082,241.921 344.042,241.5C344.008,241.135 344.82,241.124 344.856,240.759C344.899,240.327 344.252,233.809 344.131,233.434C343.998,233.025 343.297,232.927 343.239,232.5C343.196,232.189 343.876,232.154 343.912,231.842C344.04,230.731 343.461,229.586 343.7,228.494C343.754,228.248 344.976,228.459 344.831,226.525C344.229,218.482 339.231,172.432 337.384,169.562C336.953,168.893 330.792,163.768 324.491,163.946C264.605,165.636 264.703,166.214 259.503,166.354C251.929,166.558 251.463,165.074 245.122,169.291C245.795,166.879 245.675,166.842 244.33,164.671C241.591,163.359 241.447,163.457 238.695,164.704Z" style="fill:rgb(114,96,130);fill-opacity:1;"/>
        <path d="M105.257,282.231C105.92,283.33 106.583,284.43 107.247,285.529C105.067,283.253 104.843,285.367 104.573,285.717C103.617,286.955 96.234,293.371 95.602,305.5C94.466,327.306 113.522,338.921 116.578,341.388C120.046,344.188 117.972,345.136 120.47,362.505C125.586,398.084 130.464,409.126 143.71,413.103C163.034,418.903 530.775,416.031 542.513,415.791C577.918,415.069 595.546,416.445 602.26,410.219C605.421,407.287 604.586,405.279 608.942,405.798C598.412,419.994 595.001,417.152 495.5,418.537C443.467,419.262 160.433,419.913 145.412,415.874C132.013,412.272 123.605,407.362 117.52,357.497C116.324,347.696 119.043,346.008 111.118,339.989C88.862,323.085 87.604,297.031 105.257,282.231Z" style="fill:rgb(140,91,177);fill-opacity:1;"/>
        <path d="M397.929,197.359L398.374,198.514C403.437,267.311 405.741,268.904 403.779,268.703C385.816,266.858 384.788,268.995 384.535,267.474C383.568,261.655 383.722,261.051 383.86,260.509C383.988,260.007 381.843,237.487 381.841,237.445C379.994,201.435 377.281,200.604 379.786,198.782C380.964,197.926 381.077,198.079 397.929,197.359Z" style="fill:rgb(166,136,193);fill-opacity:1;"/>
        <path d="M428.184,219.723C428.001,218.019 425.892,198.347 427.062,198.33C427.377,198.326 441.057,199.334 447.5,198.15L448.5,198.126L449.5,198.08C449.993,198.181 450.162,198.949 450.655,199.051C451.908,199.309 453.213,199.061 454.492,199.11C457.209,199.213 456.424,200.667 456.431,201.499C456.757,238.808 456.673,238.825 456.864,239.236C458.258,242.226 455.009,242.906 457.524,249.496C458.041,250.851 460.479,257.238 459.547,267.503C459.417,268.932 458.866,269.299 458.789,269.5C457.898,269.332 458.322,268.734 457.484,268.576C457.17,268.517 457.177,268.544 453.5,268.503C430.525,268.244 430.601,269.295 430.12,269.5C429.208,263.442 428.687,263.546 429.035,257.489C429.124,255.922 428.791,256.056 428.53,254.518C429.04,253.164 429.551,251.811 430.061,250.457C433.229,251.435 433.119,251.737 436.498,251.448C459.941,249.447 455.488,212.093 428.184,219.723Z" style="fill:rgb(184,154,208);fill-opacity:1;"/>
        <path d="M540.488,345.731C537.409,348.904 536.393,347.85 520.5,347.524C506.321,347.234 482.807,347.253 482.411,347.373C481.948,347.513 482.054,350.098 482.021,350.387C481.805,352.247 482.053,352.181 482.691,353.906C482.408,354.578 481.901,354.007 481.622,354.67C481.566,354.805 481.675,354.797 481.599,356.501C480.309,385.439 471.266,384.737 466.423,386.555C465.939,386.567 460.374,386.714 460.374,386.714C459.847,386.863 460.02,387.95 459.494,388.099C430.162,388.155 389.737,387.699 384.441,388.341C384.253,388.817 384.065,389.294 383.877,389.77C383.182,390.727 382.487,391.684 381.791,392.641C379.026,394.548 377.29,393.465 376.517,394.54C375.972,395.298 375.176,398.536 387.5,398.49C409.003,398.411 408.939,398.572 430.497,398.381C542.984,397.387 544.128,396.869 550.478,390.472C551.537,389.405 552.126,390.001 552.51,388.508C552.792,387.414 551.09,388.09 551.369,387.006C551.62,386.921 554.5,385.944 554.5,385.944C554.991,385.961 555.295,386.649 555.786,386.666C547.795,402.844 536.959,398.76 439.503,400.707C434.704,400.803 383.99,401.816 379.507,400.479C378.308,400.121 372.536,398.4 374.771,385.572C375.103,383.669 376.273,384.611 455.501,384.679C483.032,384.703 477.063,370.465 479.941,346.531C480.125,345.001 481.333,344.909 481.514,344.896C492.968,344.029 535.773,345.562 540.488,345.731Z" style="fill:rgb(155,110,186);fill-opacity:1;"/>
        <path d="M185.475,353.411C185.804,353.37 188.589,351.823 191.312,354.677C207.978,372.145 212.515,369.752 257.543,365.96C264.23,365.397 256.708,375.378 271.626,382.201C279.695,385.892 357.14,383.788 363.466,384.662C366.367,385.063 365.102,395.715 364.988,396.677L363.496,394.534C361.803,392.591 360.565,389.324 360.381,388.839C361.025,388.538 361.829,388.729 362.473,388.429C366.231,386.674 356.067,386.647 355.491,386.646C332.381,386.585 332.45,386.545 296.496,386.297C293.649,386.278 293.729,387.731 293.489,387.921C285.926,388.211 286.009,388.133 278.488,387.692C255.55,386.346 259.842,374.482 252.523,374.846C207.475,377.083 197.715,374.651 185.475,353.411Z" style="fill:rgb(126,84,161);fill-opacity:1;"/>
        <path d="M174.432,303.09C179.94,310.469 178.926,313.488 181.84,320.346C182.476,321.845 204.632,346.008 211.752,350.037C218.166,353.666 248.384,346.839 258.764,347.599C259.705,353.896 260.441,354.117 259.317,355.336C258.707,355.999 222.248,361.144 213.582,359.105C201.984,356.377 181.727,334.903 181.228,332.593C175.915,307.99 171.798,305.353 173.429,303.443C173.659,303.174 174.201,303.359 174.432,303.09Z" style="fill:rgb(67,46,92);fill-opacity:1;"/>
        <path d="M187.469,384.549C190.356,386.415 190.342,386.233 193.364,387.751C210.768,396.496 348.5,392.814 363.496,394.534L364.988,396.677C364.428,397.76 364.508,397.718 363.703,398.695C360.829,397.208 360.696,398.553 357.509,398.599C330.18,398.992 240.662,397.741 230.502,397.599C207.276,397.274 192.681,397.415 186.836,386.476C186.759,386.333 186.882,386.337 187.469,384.549Z" style="fill:rgb(108,68,141);fill-opacity:1;"/>
        <path d="M551.369,387.006C551.09,388.09 552.792,387.414 552.51,388.508C552.126,390.001 551.537,389.405 550.478,390.472C544.128,396.869 542.984,397.387 430.497,398.381C408.939,398.572 409.003,398.411 387.5,398.49C375.176,398.536 375.972,395.298 376.517,394.54C377.29,393.465 379.026,394.548 381.791,392.641C381.783,392.72 380.784,394.327 382.516,394.309C485.797,393.261 519.696,394.578 551.369,387.006Z" style="fill:rgb(108,69,142);fill-opacity:1;"/>
        <path d="M119.578,275.806C122.38,279.192 123.094,277.529 127.505,277.42C132.13,277.307 132.07,277.763 132.467,277.734C132.885,277.704 133.165,277.058 133.577,277.14C134.078,277.238 133.869,277.67 139.434,279.676C142.362,280.731 156.716,285.906 164.378,309.535C164.48,309.851 164.301,310.209 164.376,310.532C164.759,312.176 165.026,313.881 165.746,315.407C165.866,315.661 166.38,314.778 166.5,315.032C166.165,318.305 166.579,319.097 166.742,319.408C166.977,319.857 167.674,320.009 167.798,320.5C167.896,320.891 167.287,320.903 168.247,325.514C172.729,347.04 171.872,348.025 170.608,349.478C170.266,349.871 169.8,350.143 169.458,350.536C163.449,346.701 166.179,344.115 164.253,335.558C161.4,322.881 161.482,314.926 153.639,300.411C144.452,283.407 128.693,284.406 127.512,284.625C127.077,284.278 126.198,280.879 115.456,284.973C110.379,286.908 108.936,289.851 107.247,285.529C106.583,284.43 105.92,283.33 105.257,282.231C111.715,277.627 111.884,278.04 119.578,275.806Z" style="fill:rgb(183,151,208);fill-opacity:1;"/>
        <path d="M429.654,221.813C437.298,219.95 452.118,221.426 448.724,239.577C447.186,242.882 443.583,252.169 429.709,248.036C424.47,245.368 424.335,244.244 422.866,242.285C417.352,230.153 424.374,224.761 429.654,221.813Z" style="fill:rgb(23,13,41);fill-opacity:1;"/>
        <path d="M239.936,639.501C239.986,654.718 243.619,671.027 224.455,668.837C214.529,667.703 216.837,660.281 220.432,661.692C221.111,661.958 225.978,664.992 230.317,663.091C234.206,661.387 236.28,654.063 231.438,657.394C217.26,667.148 207.337,636.76 226.514,635.916C230.947,635.721 231.158,639.392 234.675,636.746C234.86,636.607 235.497,636.127 237.49,636.117C240.708,636.1 239.868,639.109 239.936,639.501L221.993,646.554C223.496,661.541 239.268,650.059 232.28,642.706C230.936,641.291 228.38,640.615 226.414,641.245C223.539,642.167 222.177,646.032 221.993,646.554L239.936,639.501Z" style="fill:rgb(22,13,41);fill-opacity:0.98;"/>
        <path d="M576.048,656.725C574.733,657.122 574.658,656.73 573.498,657.496C570.393,659.544 566.782,659.147 565.455,658.616C548.925,651.992 562.898,628.568 574.446,637.593C576.298,639.04 578.932,634.564 581.424,636.598C582.742,637.673 582.294,658.338 582.056,660.433C581.371,666.456 572.647,671.427 563.672,668.024C556.181,665.184 560.903,661.141 563.331,661.987C564.37,662.349 577.445,666.9 576.048,656.725L563.989,647.495C566.497,659.511 580.188,651.446 575.118,643.733C573.445,641.187 565.76,637.719 563.989,647.495L576.048,656.725Z" style="fill:rgb(22,13,40);fill-opacity:0.98;"/>
        <path d="M523.215,251.019C521.961,251.433 520.706,251.847 519.451,252.261C495.222,255.296 499.197,218.864 521.502,225.494C527.054,227.145 537.506,240.266 523.215,251.019Z" style="fill:rgb(18,10,32);fill-opacity:1;"/>
        <path d="M288.416,213.295C289.443,213.033 290.44,212.665 291.467,212.403C303.283,209.385 317.271,227.212 300.285,238.07C281.467,244.559 271.719,222.525 288.416,213.295Z" style="fill:rgb(23,13,40);fill-opacity:1;"/>
        <path d="M130.938,657.924C128.853,661.195 124.72,660.3 124.617,657.494C124.522,654.925 123.469,626.368 125.41,625.372C130.858,622.576 130.926,627.991 130.933,628.499C130.984,632.514 130.858,632.426 130.919,636.444C130.974,640.13 140.52,630.77 147.225,640.679C154.769,651.83 141.032,665.612 132.62,658.289C132.516,658.199 132.139,657.871 130.938,657.924L143,648.482C142.784,647 143.127,643.58 139.418,641.668C137.349,640.601 134.247,641.313 132.759,642.765C125.476,649.87 139.691,662.509 143,648.482L130.938,657.924Z" style="fill:rgb(21,12,39);fill-opacity:0.98;"/>
        <path d="M488.452,625.036C492.228,625.444 492.297,625.24 492.524,625.476C493.038,626.011 493.041,629.177 493.041,629.501C493.046,636.849 492.817,636.807 492.855,637.442C493.011,640.082 494.13,637.552 496.515,636.534C509.239,631.106 517.103,652.315 505.505,658.508C498.027,662.501 495.047,657.427 493.399,658.282C491.528,659.251 491.685,659.561 489.519,659.74C485.442,660.077 486.701,655.838 486.733,643.5C486.775,627.021 485.851,626.129 488.452,625.036L504.023,651.261C504.183,650.737 506.286,647.258 503.08,642.896C502.987,642.769 500.756,640.979 498.472,641.138C488.066,641.864 494.475,662.98 504.023,651.261L488.452,625.036Z" style="fill:rgb(22,13,40);fill-opacity:0.98;"/>
        <path d="M354.195,172.066C355.064,173.545 354.901,174.001 356.647,173.88C358.16,173.774 375.652,172.553 375.605,173.357C375.556,174.189 371.895,175.33 376.211,178.447C375.581,185.906 375.585,185.859 375.53,186.503C375.236,189.951 372.733,187.514 367.655,191.637C367.286,191.755 366.869,191.402 366.5,191.519C365.46,191.85 358.21,198.432 359.127,206.388C365.287,259.854 364.883,259.857 365.471,264.497C366.052,269.079 364.575,269.089 364.248,269.863C362.902,267.24 356.507,200.187 356.458,199.507C354.548,181.295 352.665,174.961 354.195,172.066Z" style="fill:rgb(174,146,198);fill-opacity:1;"/>
        <path d="M618.564,278.142C621.755,278.97 628.232,279.174 636.58,287.413C648.902,299.573 643.499,315.219 642.696,317.544C641.815,320.093 641.879,320.051 640.809,322.574C640.65,322.055 639.746,322.018 639.587,321.5C639.273,320.473 646.107,296.703 624.369,286.81C621.226,285.379 602.119,279.418 591.118,295.06C577.841,313.939 580.255,341.583 575.5,341.541C575.054,341.537 574.619,341.381 574.173,341.377C582.053,312.436 578.02,309.988 588.621,294.563C590.008,292.673 590.916,292.376 589.236,290.757C587.929,289.498 589.772,289.171 591.649,285.533C593.155,282.615 595.614,285.535 596.436,284.464C597.855,282.617 598.351,282.884 598.498,280.479C599.282,280.237 606.74,277.936 608.485,278.136C610.615,278.38 608.525,280.932 610.676,281.148C615.537,281.637 617.846,280.833 618.433,280.629C618.477,279.8 618.52,278.971 618.564,278.142Z" style="fill:rgb(183,152,209);fill-opacity:1;"/>
        <path d="M367.655,191.637L366.928,195.561C366.672,211.136 373.048,265.994 373.138,268.568C373.278,272.59 364.936,270.071 364.248,269.863C364.575,269.089 366.052,269.079 365.471,264.497C364.883,259.857 365.287,259.854 359.127,206.388C358.21,198.432 365.46,191.85 366.5,191.519C366.869,191.402 367.286,191.755 367.655,191.637Z" style="fill:rgb(107,69,143);fill-opacity:1;"/>
        <path d="M221.27,223.722C232.758,237.814 213.601,253.678 201.794,240.284C193.057,230.372 207.236,211.199 221.27,223.722Z" style="fill:rgb(23,14,41);fill-opacity:1;"/>
        <path d="M471.893,486.302C465.459,468.833 484.145,464.668 491.434,470.584C504.977,481.575 484.389,504.385 471.893,486.302Z" style="fill:rgb(142,103,176);fill-opacity:0.99;"/>
        <path d="M411.654,650.421C411.922,650.552 412.191,650.682 412.459,650.813C412.723,650.712 413.134,651.551 413.418,650.447C416.67,637.808 417.224,635.607 421.575,636.099C425.476,636.539 427.373,657.663 429.463,648.485C432.244,636.275 433.654,635.558 437.588,636.126C439.325,636.376 440.355,637.684 432.233,657.396C431.725,658.628 426.65,664.097 424.057,655.612C421.415,646.963 421.255,646.749 420.49,646.744C417.599,646.726 419.261,660.038 412.494,659.885C408.247,659.789 408.772,658.282 403.42,643.531C401.594,638.501 400.177,635.645 405.525,636.138C407.996,636.366 409.312,639.489 411.654,650.421Z" style="fill:rgb(22,13,39);fill-opacity:0.98;"/>
        <path d="M385.486,636.024C404.875,636.63 400.528,656.248 390.523,659.564C373.36,665.253 366.545,637.069 385.486,636.024L392.011,644.72C391.654,644.241 388.866,640.512 385.434,641.188C383.894,641.492 381.358,643.178 380.517,645.507C376.814,655.753 396.178,659.224 392.011,644.72L385.486,636.024Z" style="fill:rgb(23,14,42);fill-opacity:0.98;"/>
        <path d="M295.482,636.023C314.498,636.295 311.264,654.907 302.286,659.02C285.051,666.916 276.078,637.765 295.482,636.023L301.111,642.906C300.321,642.431 291.518,637.14 290.543,647.502C289.491,658.689 309.54,655.296 301.111,642.906L295.482,636.023Z" style="fill:rgb(24,14,42);fill-opacity:0.98;"/>
        <path d="M388.071,563.578C388.149,586.122 366.54,578.221 364.29,570.581C359.537,554.453 382.157,545.557 388.071,563.578Z" style="fill:rgb(135,98,171);fill-opacity:0.99;"/>
        <path d="M183.171,383.674C184.274,383.547 184.225,382.828 185.534,383.402C185.992,383.602 185.95,383.465 186.392,383.658C186.751,383.955 187.11,384.252 187.469,384.549C186.882,386.337 186.759,386.333 186.836,386.476C192.681,397.415 207.276,397.274 230.502,397.599C240.662,397.741 330.18,398.992 357.509,398.599C360.696,398.553 360.829,397.208 363.703,398.695C362.211,399.942 362.341,400.052 360.519,400.561C355.717,401.902 282.299,400.698 275.499,400.586C196.987,399.299 191.386,401.862 183.171,383.674Z" style="fill:rgb(142,92,178);fill-opacity:1;"/>
        <path d="M597.484,636.027C598.645,636.047 602.763,635.216 606.328,638.677C606.922,639.254 611.177,643.384 609.528,648.509C608.49,651.733 587.542,648.093 595.523,653.471C600.127,656.575 603.728,653.592 604.425,653.316C608.505,651.702 610.352,658.442 602.561,659.884C584.452,663.236 580.501,637.861 597.484,636.027L597.577,640.999C597.126,641.189 592.925,642.961 593.456,645.521C593.689,646.641 604.604,647.05 603.068,643.67C601.91,641.122 598.065,641.012 597.577,640.999L597.484,636.027Z" style="fill:rgb(23,14,42);fill-opacity:0.98;"/>
        <path d="M422.866,242.285C424.335,244.244 424.47,245.368 429.709,248.036L430.061,250.457C429.551,251.811 429.04,253.164 428.53,254.518C421.682,263.642 408.421,257.281 406.519,255.479C397.078,246.536 416.551,236.475 420.446,241.575C421.31,242.707 421.497,242.289 422.866,242.285Z" style="fill:rgb(243,145,166);fill-opacity:1;"/>
        <path d="M300.285,238.07C302.191,239.186 302.385,239.336 304.203,238.101C306.352,236.641 305.552,236.109 306.052,235.239C306.799,233.936 307.363,234.551 308.137,233.198C311.367,227.559 329.685,237.519 320.397,247.408C309.084,259.455 292.427,243.966 298.707,240.581C299.206,240.312 299.926,240.606 300.381,240.265C300.381,240.265 300.293,238.246 300.285,238.07Z" style="fill:rgb(243,146,165);fill-opacity:1;"/>
        <path d="M264.495,668.93C262.269,668.628 261.989,669.11 260.702,667.364C258.08,663.807 264.103,663.029 264.567,662.969C271.222,662.109 262.072,647.392 259.242,638.58C258.19,635.306 260.16,635.894 263.549,636.136C264.645,636.214 266.403,636.339 269.614,648.458C272.341,658.75 273.621,636.568 278.454,636.15C285.205,635.566 281.245,640.922 280.964,641.659C273.117,662.219 273.062,668.341 264.495,668.93Z" style="fill:rgb(22,13,39);fill-opacity:0.98;"/>
        <path d="M523.215,251.019C528.954,254.32 527.303,246.944 531.484,246.294C542.928,244.517 552.304,260.92 538.539,264.625C528.022,267.455 523.348,260.552 522.596,259.442C521.288,256.568 521.72,256.505 521.318,254.485C521.205,254.18 521.812,253.891 521.698,253.587C521.332,252.599 520.555,252.14 520.417,252.059C519.908,251.758 519.952,252.556 519.451,252.261C520.706,251.847 521.961,251.433 523.215,251.019Z" style="fill:rgb(245,142,162);fill-opacity:1;"/>
        <path d="M539.274,637.088C540.049,636.685 545.789,633.705 550.163,637.864C553.938,641.454 553.015,649.663 553.016,650.5C553.022,657.131 554.974,660.567 548.45,659.793C544.285,659.299 550.193,639.828 541.453,641.262C534.44,642.413 536.426,655.656 536.433,657.498C536.45,661.481 530.749,659.388 530.659,659.311C529.505,658.327 530.114,637.605 530.168,637.365C530.545,635.712 534.895,636.002 535.463,636.552C536.472,637.53 536.609,639.128 539.274,637.088Z" style="fill:rgb(23,13,41);fill-opacity:0.98;"/>
        <path d="M448.958,650.501C449.213,657.083 451.036,660.379 444.453,659.78C442.027,659.559 442.849,650.725 442.814,645.499C442.81,645.022 441.258,636.012 445.513,636.092C449.371,636.165 448.106,638.788 449.518,638.737C449.91,638.722 452.201,635.185 458.461,635.929C462.284,636.384 465.919,640.133 465.918,645.497C465.917,652.577 466.429,659.587 464.577,659.801C456.974,660.676 460.379,656.171 459.23,645.547C458.948,642.935 455.907,640.007 452.613,641.725C448.484,643.878 449.11,647.989 448.958,650.501Z" style="fill:rgb(23,13,41);fill-opacity:0.98;"/>
        <path d="M188.025,657.523C187.901,649.59 187.46,637.417 188.55,636.569C191.135,634.555 193.896,637.634 194.208,637.981C195.013,638.878 199.725,634.679 204.579,636.221C212.329,638.684 210.588,649.454 210.605,651.501C210.653,657.358 212.364,660.176 206.485,659.849C201.18,659.553 207.354,643.753 201.45,641.624C191.465,638.024 194.638,658.382 193.45,659.443C189.493,662.976 188.145,657.967 188.025,657.523Z" style="fill:rgb(21,12,39);fill-opacity:0.98;"/>
        <path d="M330.047,638.477C330.773,635.846 331.326,635.926 334.558,636.176C336.262,636.308 336.917,636.967 336.12,657.487C335.988,660.903 331.786,659.824 331.067,658.919C328.65,655.883 328.267,659.536 324.434,660.003C311.909,661.531 314.046,647.855 314.046,647.499C314.037,638.668 312.628,635.817 318.552,636.122C322.352,636.318 318.08,651.163 322.403,653.642C331.834,659.051 330.047,640.556 330.047,638.477Z" style="fill:rgb(23,13,41);fill-opacity:0.98;"/>
        <path d="M588.621,294.563C578.02,309.988 582.053,312.436 574.173,341.377C572.156,345.24 571.758,344.947 569.809,348.817C569.704,348.181 568.703,347.944 568.597,347.307C568.346,345.796 572.483,316.514 575.93,306.497C577.124,303.028 581.162,294.63 581.524,294.565C581.97,294.485 582.112,295.274 582.494,295.519C584.302,296.676 587.352,292.904 587.608,293C588.19,293.217 588.039,294.346 588.621,294.563Z" style="fill:rgb(118,80,154);fill-opacity:1;"/>
        <path d="M615.675,347.258C616.451,347.957 620.078,350.833 620.467,350.757C620.803,350.69 620.871,350.11 621.206,350.044C621.121,350.241 620.133,352.5 620.133,352.5C620.197,353.038 620.911,353.36 620.962,353.899C621.23,356.739 620.02,356.602 620.21,359.489C620.254,360.162 620.866,359.875 620.773,360.5C620.657,361.275 620.006,360.856 619.891,361.627C616.693,386.02 612.959,393.95 611.738,396.545C609.375,393.616 607.07,390.757 613.936,349.557C613.936,349.557 615.536,347.442 615.675,347.258Z" style="fill:rgb(179,146,206);fill-opacity:1;"/>
        <path d="M173.457,436.402C149.466,444.518 146.355,427.441 149.503,426.512C150.422,426.24 174.347,427.254 176.507,427.345C177.19,427.374 179.717,427.165 179.272,430.464C178.84,433.669 174.05,436.101 173.457,436.402Z" style="fill:rgb(67,40,95);fill-opacity:1;"/>
        <path d="M97.511,650.991C65.928,651.493 65.45,651.427 63.788,649.298C62.485,647.627 63.337,644.452 66.475,644.2C67.297,644.134 100.443,644.059 102.537,644.224C107.406,644.608 106.953,650.68 102.551,650.901C100.873,650.985 99.189,650.906 97.511,650.991Z" style="fill:rgb(19,10,38);fill-opacity:0.98;"/>
        <path d="M587.38,435.358C567.883,447.114 554.256,427.867 562.468,427.99C588.009,428.373 592.954,424.734 591.006,430.337C589.961,433.341 589.587,433.059 587.38,435.358Z" style="fill:rgb(71,42,99);fill-opacity:1;"/>
        <path d="M272.046,235.483C267.796,256.06 239.543,252.014 237.109,237.566C236.63,234.723 239.813,229.847 242.955,236.295C247.953,246.551 262.599,247.162 265.952,233.562C266.036,233.224 266.71,230.49 269.592,231.185C272.361,231.853 271.534,232.716 272.046,235.483Z" style="fill:rgb(19,11,34);fill-opacity:1;"/>
        <path d="M459.715,241.773C466.654,239.131 462.356,249.661 471.479,252.549C488.58,257.962 486.585,237.994 492.28,243.779C497.461,249.04 482.126,267.771 464.757,256.155C464.011,255.656 456.42,248.863 459.715,241.773Z" style="fill:rgb(20,12,35);fill-opacity:1;"/>
        <path d="M511.403,228.382C514.878,229.931 514.151,230.74 514.321,234.518C514.372,235.647 513.004,237.648 515.626,237.261C517.144,237.036 517.301,236.447 518.432,237.581C520.917,240.073 524.103,239.572 524.416,239.297C524.791,238.967 524.743,238.25 525.18,238.009C525.507,237.828 525.913,238.383 526.269,238.271C526.813,238.1 527.065,237.165 527.631,237.236C527.781,237.255 527.71,237.371 527.523,241.508C527.447,243.189 525.314,246.703 523.864,247.717C523.487,247.98 522.976,247.442 522.517,247.424C521.843,247.397 521.15,247.763 520.5,247.585C519.766,247.383 519.85,246.308 518.336,247.232C515.114,249.201 514.861,248.123 514.6,248.292C514.431,248.401 514.378,249.754 512.487,249.532C509.856,249.224 497.641,237.932 511.403,228.382Z" style="fill:rgb(28,16,50);fill-opacity:1;"/>
        <path d="M512.5,164.057C502.084,164.824 503.381,176.996 497.745,171.271C492.354,165.794 514.053,147.863 526.141,164.741C531.088,171.648 523.842,175.238 521.343,170.595C519.502,167.175 519.104,164.536 512.5,164.057Z" style="fill:rgb(22,13,35);fill-opacity:1;"/>
        <path d="M459.93,166.454C459.874,166.915 459.258,171.966 455.584,170.287C454.63,169.851 448.502,158.244 439.399,164.369C438.991,164.643 433.176,175.414 430.377,168.561C426.407,158.842 454.154,147.75 459.93,166.454Z" style="fill:rgb(21,13,34);fill-opacity:1;"/>
        <path d="M608.533,275.732C636.184,274.66 643.924,288.564 647.092,305.508C646.929,317.245 644.256,328.61 625.858,342.944C625.467,340.988 624.792,340.594 626.541,339.542C628.731,338.224 638.004,329.337 640.809,322.574C641.879,320.051 641.815,320.093 642.696,317.544C643.499,315.219 648.902,299.573 636.58,287.413C628.232,279.174 621.755,278.97 618.564,278.142C618.091,278.061 617.972,277.256 617.5,277.175C617.107,277.108 616.864,277.728 616.469,277.783C615.481,277.921 614.475,277.736 613.478,277.738C610.616,277.743 610.512,277.81 608.533,275.732Z" style="fill:rgb(227,200,239);fill-opacity:1;"/>
        <path d="M214.495,319.132C221.046,320.015 225.799,327.347 225.808,327.419C226.237,330.853 209.902,330.682 208.493,330.667C204.32,330.624 198.585,322.734 199.588,321.588C200.571,320.465 213.292,319.248 214.495,319.132Z" style="fill:rgb(21,11,41);fill-opacity:1;"/>
        <path d="M163.794,642.986C156.724,650.185 165.354,663.332 155.437,659.641C153.848,659.049 153.75,658.536 154.163,638.484C154.21,636.199 159.84,633.655 160.15,638.622C160.378,642.258 164.335,634.502 168.619,636.285C169.331,636.581 171.035,641.518 167.484,642.094C165.597,642.4 165.667,642.393 163.794,642.986Z" style="fill:rgb(23,13,41);fill-opacity:0.98;"/>
        <path d="M490.561,325.533C490.693,325.471 492.212,324.765 492.212,324.765C492.543,324.956 492.032,325.829 492.408,325.891C494.319,326.207 494.323,325.787 516.617,325.424C516.438,327.513 516.449,327.409 516.269,329.475C516.019,332.342 516.811,334.185 513.502,333.357C513.393,333.33 493.096,333.281 492.428,333.327C490.754,333.441 490.543,334.461 490.16,333.566C489.099,331.087 491.416,330.964 490.362,328.504C490.428,327.513 490.495,326.523 490.561,325.533Z" style="fill:rgb(139,105,173);fill-opacity:1;"/>
        <path d="M357.897,639.509C356.631,644.616 349.509,640.654 349.117,648.466C348.73,656.17 352.141,660.511 344.46,659.826C342.64,659.664 342.575,658.869 342.782,638.503C342.786,638.099 342.82,634.791 347.455,636.601C347.559,636.642 348.433,636.983 348.563,637.451C349.057,639.237 349.602,640.105 350.587,638.601C351.15,637.739 352.159,636.431 354.433,636.074C358.748,635.395 357.834,639.14 357.897,639.509Z" style="fill:rgb(20,12,37);fill-opacity:0.98;"/>
        <path d="M655.503,644.14L656.5,645.783L657.627,646.5C658.153,648.041 659.174,648.83 657.506,648.875C647.957,649.133 647.988,649.032 646.5,649.305C645.123,649.16 644.674,648.424 639.5,649.209L638.501,650.986C633.354,650.977 627.69,651.727 625.899,649.227C621.379,642.916 637.507,644.15 655.503,644.14Z" style="fill:rgb(20,11,40);fill-opacity:0.98;"/>
        <path d="M224.666,318.587L225.188,318.099C232.896,317.135 232.84,316.881 236.516,316.942C237.646,316.961 240.518,317.009 248.352,324.64C251.316,327.528 238.387,328.084 237.474,328.123C233.233,328.305 225.305,320.238 224.666,318.587Z" style="fill:rgb(21,10,41);fill-opacity:1;"/>
        <path d="M624.217,345.397C618.579,395.546 611.979,401.025 610.864,402.797C609.227,399.74 610.144,399.582 611.738,396.545C612.959,393.95 616.693,386.02 619.891,361.627C620.006,360.856 620.657,361.275 620.773,360.5C620.866,359.875 620.254,360.162 620.21,359.489C620.02,356.602 621.23,356.739 620.962,353.899C620.911,353.36 620.197,353.038 620.133,352.5C620.133,352.5 621.121,350.241 621.206,350.044C620.871,350.11 620.803,350.69 620.467,350.757C620.078,350.833 616.451,347.957 615.675,347.258C616.645,345.341 616.372,344.943 618.462,344.37C621.449,343.549 621.476,343.955 624.217,345.397Z" style="fill:rgb(196,160,218);fill-opacity:1;"/>
        <path d="M119.578,275.806C124.159,275.371 134.129,271.974 150.191,282.922C155.401,286.473 159.315,293.237 159.914,294.272C165.257,303.504 167.543,313.254 167.913,314.41L166.5,315.032C166.38,314.778 165.866,315.661 165.746,315.407C165.026,313.881 164.759,312.176 164.376,310.532C164.301,310.209 164.48,309.851 164.378,309.535C156.716,285.906 142.362,280.731 139.434,279.676C133.869,277.67 134.078,277.238 133.577,277.14C133.165,277.058 132.885,277.704 132.467,277.734C132.07,277.763 132.13,277.307 127.505,277.42C123.094,277.529 122.38,279.192 119.578,275.806Z" style="fill:rgb(227,199,238);fill-opacity:1;"/>
        <path d="M174.139,638.478C174.742,636.64 174.776,636.012 178.515,636.142C181.876,636.259 180.78,643.557 180.758,650.499C180.738,656.935 182.873,660.135 176.481,659.808C173.225,659.642 174.082,655.755 174.139,638.478Z" style="fill:rgb(22,13,40);fill-opacity:0.98;"/>
        <path d="M203.536,316.888C195.494,317.385 194.598,318.741 188.972,313.044C188.784,312.854 186.221,310.259 188.574,309.733C201.856,306.764 204.266,308.891 205.267,309.775C208.432,312.57 208.225,312.729 210.325,313.843C215.077,316.363 206.278,316.512 203.536,316.888Z" style="fill:rgb(19,10,39);fill-opacity:1;"/>
        <path d="M517.101,638.465C517.218,638.136 516.859,636.346 519.485,636.231C524.494,636.013 523.204,638.958 523.233,652.506C523.243,657.671 524.604,660.008 519.489,659.818C516.222,659.696 516.961,656.784 517.101,638.465Z" style="fill:rgb(18,10,36);fill-opacity:0.98;"/>
        <path d="M468.716,133.892C480.122,130.186 479.507,138.459 477.516,140.511C471.128,147.096 470.028,145.096 465.487,144.572C458.262,143.739 468.382,134.251 468.716,133.892Z" style="fill:rgb(254,249,233);fill-opacity:1;"/>
        <path d="M428.184,219.723C455.488,212.093 459.941,249.447 436.498,251.448C433.119,251.737 433.229,251.435 430.061,250.457L429.709,248.036C443.583,252.169 447.186,242.882 448.724,239.577C452.118,221.426 437.298,219.95 429.654,221.813C429.164,221.117 428.674,220.42 428.184,219.723Z" style="fill:rgb(227,202,238);fill-opacity:1;"/>
        <path d="M235.115,312.765C234.384,314.23 234.154,314.044 232.47,314.025C231.675,314.016 222.38,315.326 220.412,314.798C218.313,314.234 212.558,308.581 212.544,308.484C212.284,306.669 221.147,306.524 222.495,306.43C228.983,305.98 228.957,307.631 235.115,312.765Z" style="fill:rgb(19,9,38);fill-opacity:1;"/>
        <path d="M545.699,180.613C546.607,179.449 553.219,170.976 563.459,175.582C571.739,179.307 567.494,190.917 564.999,185.26C563.959,182.901 565.397,180.683 556.462,178.935C552.193,178.099 543.599,188.849 545.699,180.613Z" style="fill:rgb(218,194,155);fill-opacity:1;"/>
        <path d="M208.636,247.113C213.565,247.983 211.983,254.95 207.38,258.332C203.011,261.542 195.758,261.805 191.702,259.173C178.951,250.899 193.291,240.428 200.514,242.127C200.763,242.185 203.287,244.42 198.502,244.606C192.597,244.835 188.299,249.136 188.836,251.716C191.257,263.358 211.71,257.793 209.14,250.201C208.617,248.656 208.89,248.67 208.636,247.113Z" style="fill:rgb(245,128,150);fill-opacity:1;"/>
        <path d="M293.489,387.921C293.729,387.731 293.649,386.278 296.496,386.297C332.45,386.545 332.381,386.585 355.491,386.646C356.067,386.647 366.231,386.674 362.473,388.429C361.829,388.729 361.025,388.538 360.381,388.839C354.189,387.992 328.361,388.536 293.489,387.921Z" style="fill:rgb(114,75,149);fill-opacity:1;"/>
        <path d="M655.503,644.14C655.922,644.143 664.016,643.406 666.1,645.827C667.923,647.944 665.469,649.876 665.195,650.092C663.516,651.414 663.304,651.409 638.501,650.986L639.5,649.209C644.674,648.424 645.123,649.16 646.5,649.305C647.988,649.032 647.957,649.133 657.506,648.875C659.174,648.83 658.153,648.041 657.627,646.5L656.5,645.783L655.503,644.14Z" style="fill:rgb(13,5,30);fill-opacity:0.98;"/>
        <path d="M541.841,322.624C540.995,327.093 540.233,333.09 538.467,336.029C527.416,335.937 527.475,336.02 516.424,335.812C516.88,335.285 517.045,334.548 517.5,334.021C518.569,332.782 518.854,333.47 524.5,333.542C524.811,333.546 537.332,333.57 537.499,333.452C537.826,333.22 537.247,332.665 537.292,332.267C537.366,331.615 538.043,325.613 539.345,324.324C540.061,323.616 541.126,323.332 541.841,322.624Z" style="fill:rgb(241,234,244);fill-opacity:1;"/>
        <path d="M427.511,187.312C445.06,188.184 444.977,187.658 462.515,188.291C460.953,189.944 461.21,190.49 459.5,190.503C437.855,190.667 438.002,189.567 437.5,189.426L436.5,189.376L435.5,189.348L434.5,189.294L433.5,189.306L432.5,189.309L431.5,189.277L430.5,189.335L429.5,189.354L428.5,189.322L427.5,189.318L426.5,188.945L427.511,187.312Z" style="fill:rgb(5,2,14);fill-opacity:1;"/>
        <path d="M608.533,275.732C610.512,277.81 610.616,277.743 613.478,277.738C614.475,277.736 615.481,277.921 616.469,277.783C616.864,277.728 617.107,277.108 617.5,277.175C617.972,277.256 618.091,278.061 618.564,278.142C618.52,278.971 618.477,279.8 618.433,280.629C617.846,280.833 615.537,281.637 610.676,281.148C608.525,280.932 610.615,278.38 608.485,278.136C606.74,277.936 599.282,280.237 598.498,280.479C594.911,282.077 594.717,283.459 591.422,281.379C600.269,276.615 601.289,277.006 608.533,275.732Z" style="fill:rgb(207,178,227);fill-opacity:1;"/>
        <path d="M144.468,439.53C145.037,439.313 144.93,438.237 145.5,438.02C145.747,437.926 150.111,441.541 150.5,441.863C157.511,445.046 170.391,443.535 173.5,443.77L174.5,443.624L175.61,444.904C170.38,446.103 154.687,449.92 144.468,439.53Z" style="fill:rgb(7,4,18);fill-opacity:0.98;"/>
        <path d="M430.553,270.865L430.12,269.5C430.601,269.295 430.525,268.244 453.5,268.503C457.177,268.544 457.17,268.517 457.484,268.576C458.322,268.734 457.898,269.332 458.789,269.5L458.458,270.942C449.156,270.916 439.855,270.891 430.553,270.865Z" style="fill:rgb(225,190,238);fill-opacity:1;"/>
        <path d="M354.195,172.066C355.02,171.89 354.917,171.69 356.505,171.575C358.256,171.447 376.041,170.153 378.439,170.71C380.431,171.172 378.697,171.838 377.655,173.586C377.055,174.591 376.298,178.051 376.211,178.447C371.895,175.33 375.556,174.189 375.605,173.357C375.652,172.553 358.16,173.774 356.647,173.88C354.901,174.001 355.064,173.545 354.195,172.066Z" style="fill:rgb(232,213,241);fill-opacity:1;"/>
        <path d="M183.494,184.037C175.893,184.384 176.013,184.645 168.494,185.042C165.983,184.978 165.706,185.412 164.078,183.5C163.322,182.612 165.369,182.593 165.504,182.591C171.975,182.53 172.059,182.906 172.49,182.55C172.561,182.49 173.426,179.929 176.442,179.88C185.801,179.728 185.847,178.613 186.423,179.168C186.71,179.445 186.008,181.447 185.488,181.563C183.875,181.923 182.183,181.591 180.532,181.642C179.796,181.665 179.941,181.984 180.382,182.5C180.785,182.972 180.941,183.716 181.497,183.991C182.094,184.286 182.897,183.742 183.494,184.037Z" style="fill:rgb(17,9,31);fill-opacity:1;"/>
        <path d="M394.423,160.412C395.807,161.918 396.426,162.845 394.443,163.106C391.625,163.477 381.895,163.292 381.5,163.307L380.5,163.365L379.5,163.455L378.5,163.494L377.5,163.123L376.5,163.181L375.5,163.237L374.5,163.115L373.5,163.098L372.5,163.201L371.5,163.148L370.5,163.414C367.726,163.977 367.527,164.046 365.48,162.018C394.174,160.462 394.181,160.487 394.423,160.412Z" style="fill:rgb(6,1,19);fill-opacity:0.97;"/>
        <path d="M275.491,150.006C276.131,151.34 277.94,151.614 276.453,152.011C276.311,152.049 273.566,152.235 272.489,152.224C270.825,152.207 269.163,152.119 267.5,152.102L266.5,152.084L265.5,152.318L264.5,152.292L263.5,152.264C259.465,153.831 256.197,152.901 249.5,153.265L248.5,153.239L247.5,153.294L246.482,152C248.795,151.756 262.284,150.331 275.491,150.006Z" style="fill:rgb(6,1,17);fill-opacity:0.99;"/>
        <path d="M606.857,203.302C608.11,205.87 609.328,206.087 604.881,232.56C604.702,232.27 605.152,231.832 604.974,231.542C604.516,230.799 602.242,230.095 604.538,223.5C604.68,220.423 604.689,220.49 605.632,217.5C605.762,210.983 605.935,211.048 605.722,204.5L606.857,203.302Z" style="fill:rgb(6,2,15);fill-opacity:0.98;"/>
        <path d="M139.506,267.046C138.926,267.4 139.08,268.465 138.5,268.82C138.176,269.018 137.874,268.34 137.5,268.272C129.549,266.822 129.583,267.178 121.5,267.268L120.5,267.361L119.5,267.442C113.998,268.992 113.978,268.878 113.5,269.013L112.5,269.242L111.329,268.065C118.132,265.643 124.715,263.102 139.506,267.046Z" style="fill:rgb(4,0,16);fill-opacity:0.98;"/>
        <path d="M175.483,157.042C175.806,157.699 176.129,158.356 176.451,159.014C171.944,159.279 172.016,159.137 167.5,159.187L166.5,159.236L165.5,159.267L164.5,159.406L163.5,159.274C162.919,159.447 163.059,160.232 157.5,160.097L156.5,160.101L155.5,160.088L154.5,160.192L153.5,160.443C152.304,160.698 152.378,161.053 148.5,161.211L147.5,161.37L146.399,160.224C154.48,157.943 171.024,157.39 175.483,157.042Z" style="fill:rgb(4,1,13);fill-opacity:0.99;"/>
        <path d="M467.329,174.567C467.328,173.946 467.321,168.221 472.469,168.743C479.157,169.421 472.92,182.486 467.329,174.567Z" style="fill:rgb(219,195,157);fill-opacity:1;"/>
        <path d="M426.244,227.383C426.963,226.752 432.522,221.875 437.516,223.355C439.489,223.939 436.848,223.947 435.666,225.575C433.856,228.067 434.768,231.475 435.761,233.189C436.683,234.779 437.305,234.765 436.594,235.847C435.338,237.758 432.745,232.033 432.751,230.392C432.754,229.789 433.599,226.841 430.531,227.916C429.055,228.433 428.457,227.748 428.373,227.778C427.342,228.136 427.58,228.46 427.493,228.443C426.617,228.281 427.13,227.547 426.244,227.383Z" style="fill:rgb(30,16,53);fill-opacity:1;"/>
        <path d="M165.515,173.695C163.823,177.251 162.758,175.714 159.475,176.398C155.542,177.217 150.995,181.791 149.499,180.503C148.293,179.466 150.408,177.809 150.6,177.659C151.224,177.17 151.468,177.406 151.596,176.588C152.119,173.254 160.716,173.623 165.515,173.695Z" style="fill:rgb(87,69,108);fill-opacity:1;"/>
        <path d="M238.695,164.704C241.447,163.457 241.591,163.359 244.33,164.671C245.675,166.842 245.795,166.879 245.122,169.291C240.887,173.431 235.965,170.997 238.695,164.704Z" style="fill:rgb(17,9,38);fill-opacity:1;"/>
        <path d="M521.625,625.006C528.935,628.637 519.049,635.85 516.72,629.429C515.114,625.002 521.097,625.006 521.625,625.006Z" style="fill:rgb(25,14,41);fill-opacity:0.97;"/>
        <path d="M297.069,56.438L298.418,57.5L298.207,58.5L298.099,59.5C298.194,68.595 298.325,68.502 298.119,76.5L298.039,77.5C297.753,78.189 297.467,78.878 297.181,79.567C295.013,66.921 296.111,61.893 297.069,56.438Z" style="fill:rgb(6,0,17);fill-opacity:0.98;"/>
        <path d="M178.602,625.063C186.182,628.621 175.798,635.463 174.094,629.63C172.761,625.066 178.089,625.064 178.602,625.063Z" style="fill:rgb(21,14,38);fill-opacity:0.97;"/>
        <path d="M289.192,231.487C287.141,236.669 281.419,224.928 285.524,225.47C285.878,225.517 286.201,225.764 286.558,225.754C286.613,225.752 289.533,222.287 290.394,226.51C290.618,227.606 289.294,227.941 289.306,228.253C289.329,228.82 289.847,229.291 289.872,229.858C289.872,229.858 289.247,231.357 289.192,231.487Z" style="fill:rgb(27,16,48);fill-opacity:1;"/>
        <path d="M489.317,327.5C489.178,327.946 488.341,327.904 488.203,328.35C487.522,330.547 488.884,330.702 487.891,332.779C487.851,332.862 483.286,334.848 483.271,331.509C483.246,326.433 483.629,324.531 488.519,325.952C489.077,326.114 488.759,327.338 489.317,327.5Z" style="fill:rgb(196,181,204);fill-opacity:0.99;"/>
        <path d="M515.318,385.6C515.105,385.408 513.099,384.559 513.478,383.488C515.379,378.114 510.287,381.45 508.523,380.451C506.829,379.492 508.964,378.583 507.759,377.012C507.015,376.041 509.88,375.85 510.344,376.629C511.285,378.207 511.192,378.302 511.544,378.291C513.641,378.221 513.396,379.207 515.463,379.316C515.692,379.328 517.857,379.442 517.387,381.439C517.302,381.801 517.006,381.657 515.318,385.6Z" style="fill:rgb(152,113,186);fill-opacity:1;"/>
        <path d="M442.647,227.353C446.479,232.858 437.236,234.837 437.061,229.512C437.052,229.25 436.99,227.366 438.556,226.591C440.972,225.396 442.583,227.306 442.647,227.353Z" style="fill:rgb(252,251,252);fill-opacity:1;"/>
        <path d="M557.635,145.423C560.934,150.559 562.626,147.158 573.585,149.186C572.89,149.436 572.195,149.686 571.5,149.936L570.5,150.065L569.5,150.004C561.705,151.509 555.513,149.207 556.596,146.5C556.782,146.037 557.45,145.886 557.635,145.423Z" style="fill:rgb(8,4,17);fill-opacity:0.98;"/>
        <path d="M189.37,432.45C187.724,436.468 187.883,436.831 183.603,440.627C183.394,440.192 182.901,439.935 182.692,439.5C182.477,439.052 182.726,439.063 184.673,436.664C187.01,433.785 184.412,433.766 184.272,433.443C184.198,433.272 185.016,433.751 185.567,431.505C185.725,430.862 185.497,430.153 185.699,429.522C187.288,424.558 188.063,431.253 188.092,431.5L189.37,432.45Z" style="fill:rgb(18,8,32);fill-opacity:0.98;"/>
        <path d="M354.944,528.443C356.264,538.128 356.289,538.122 354.851,548.568C354.509,547.879 354.167,547.189 353.824,546.5L353.896,545.5L353.942,544.5C353.886,543.461 353.786,541.589 353.854,531.5L353.861,530.5L353.753,529.5L354.944,528.443Z" style="fill:rgb(6,1,15);fill-opacity:0.98;"/>
        <path d="M522.477,236.949C522.047,236.782 517.51,235.022 519.899,231.784C522.835,227.805 530.332,234.878 522.477,236.949Z" style="fill:rgb(250,248,249);fill-opacity:1;"/>
        <path d="M521.888,195.432C521.825,195.822 521.908,196.225 521.845,196.615C521.591,198.188 521.015,197.67 519.473,197.58C511.537,197.115 511.437,198.198 507.487,196.91C508.001,196.629 507.982,195.753 508.496,195.472C509.058,195.164 509.803,195.508 510.412,195.309C510.834,195.171 510.592,194.607 511.559,194.839C512.363,195.033 513.81,195.38 521.888,195.432Z" style="fill:rgb(25,13,44);fill-opacity:1;"/>
        <path d="M465.581,128.989C464.918,127.467 463.838,126.797 465.506,126.516C466.525,126.344 478.03,124.403 478.41,125.784C478.606,126.495 476.687,127.859 476.496,127.995C476.226,128.187 475.773,127.858 475.503,128.05C470.486,127.994 470.543,127.797 465.581,128.989Z" style="fill:rgb(7,3,18);fill-opacity:1;"/>
        <path d="M216.451,230.832C216.033,230.652 211.115,228.536 214.493,225.493C217.817,222.501 224.328,229.534 216.451,230.832Z" style="fill:rgb(251,251,250);fill-opacity:0.99;"/>
        <path d="M300.711,217.244C305.216,222.46 295.686,224.8 295.819,219.508C295.954,214.145 300.35,217.009 300.711,217.244Z" style="fill:rgb(250,248,249);fill-opacity:1;"/>
        <path d="M557.471,154.579C558.015,153.373 557.141,153.269 557.685,152.061C557.716,151.994 557.707,152.012 558.607,152.062C561.704,152.233 561.128,153.221 561.515,153.495C561.915,153.778 568.706,153.64 569.332,153.627C570.455,153.604 571.423,155.934 568.443,155.669C567.028,155.543 561.218,155.965 557.471,154.579Z" style="fill:rgb(32,19,51);fill-opacity:1;"/>
        <path d="M418.396,180.582C418.558,180.928 421.228,184.665 417.538,184.791C413.803,184.918 411.848,184.88 413.409,181.454C414.771,178.464 415.658,178.763 418.396,180.582Z" style="fill:rgb(208,186,152);fill-opacity:1;"/>
        <path d="M498.662,201.09C501.526,201.265 509.321,202.098 512.5,201.119L513.5,201.097L514.623,202.055C513.995,202.166 514.152,203.51 513.524,203.622C513.335,203.656 499.653,202.839 499.392,202.709C498.863,202.443 499.191,201.355 498.662,201.09Z" style="fill:rgb(186,156,211);fill-opacity:1;"/>
        <path d="M190.483,156.001C190.32,156.163 188.445,158.028 188.445,158.028C187.977,158.115 188.005,158.029 182.5,158.04L181.5,158.172L180.5,158.229L179.5,158.195L178.5,158.355L177.5,158.363L176.451,159.014C176.129,158.356 175.806,157.699 175.483,157.042C176.67,156.93 176.597,156.948 190.483,156.001Z" style="fill:rgb(5,2,13);fill-opacity:1;"/>
        <path d="M407.347,140.286C408.57,143.054 407.098,142.852 405.051,145.108C403.466,146.855 401.141,150.23 401.067,150.235C400.396,150.285 399.921,149.305 399.25,149.355C401.859,145.798 401.36,145.389 407.347,140.286Z" style="fill:rgb(15,7,31);fill-opacity:0.99;"/>
        <path d="M585.262,267.038C586.225,273.047 583.034,273.222 581.528,274.525C580.819,275.138 580.388,276.212 579.483,276.454C578.976,276.59 578.839,275.246 578.332,275.381C581.65,271.005 581.478,270.965 585.262,267.038Z" style="fill:rgb(190,171,203);fill-opacity:1;"/>
        <path d="M131.267,178.451C131.682,178.925 132.423,179.026 132.838,179.5C133.366,180.103 132.917,180.193 133.368,189.5L133.34,190.5L132.018,191.53C130.821,184.981 130.824,185.023 131.267,178.451Z" style="fill:rgb(4,1,14);fill-opacity:0.99;"/>
        <path d="M365.493,18.984C364.57,18.606 363.424,19.365 362.501,18.986C355.78,16.231 370.775,17.587 371.5,17.653L372.5,17.8L373.5,17.979L374.5,18.05L374.44,19.906C371.458,19.599 368.475,19.291 365.493,18.984Z" style="fill:rgb(13,4,29);fill-opacity:0.99;"/>
        <path d="M356.558,180.513C356.719,180.496 358.564,180.306 358.564,180.306C359.03,181.915 357.861,181.953 358.47,183.551C359.977,187.5 358.978,187.583 359.16,189.456C359.258,190.471 359.831,191.501 359.573,192.487C359.422,193.063 358.251,192.923 358.1,193.498C357.997,192.709 357.238,193.278 357.136,192.5C357.042,191.783 357.817,192.185 357.835,191.48C357.982,185.945 357.21,186.108 356.558,180.513Z" style="fill:rgb(180,156,200);fill-opacity:1;"/>
        <path d="M107.009,352.534C107.583,352.543 107.927,351.668 108.5,351.677C108.649,351.679 109.294,351.647 109.162,358.5L109.125,359.5L109.208,360.5C110.142,362.684 110.653,362.704 109.955,363.5C109.536,363.978 108.773,364.057 108.354,364.534C107.682,358.459 107.345,358.572 107.009,352.534Z" style="fill:rgb(3,1,12);fill-opacity:0.99;"/>
        <path d="M304.495,148.022C304.035,148.483 303.96,149.242 303.5,149.704C303.104,150.102 302.83,150.378 296.5,150.104L295.5,150.153L294.5,150.1L293.5,150.196L292.5,150.157L291.49,149.011C291.782,148.976 291.776,148.982 304.495,148.022Z" style="fill:rgb(4,1,12);fill-opacity:1;"/>
        <path d="M122.257,412.695C122.417,412.619 124.253,411.748 124.253,411.748C124.831,412.214 131.15,417.296 130.625,418.5C130.39,419.038 129.575,419.167 129.34,419.705C125.579,416.326 125.495,416.506 122.257,412.695Z" style="fill:rgb(12,5,27);fill-opacity:0.98;"/>
        <path d="M281.482,149.391C286.485,148.917 286.41,149.08 291.49,149.011L292.5,150.157C288.706,151.89 288.633,151.17 284.487,151.207C282.816,151.222 283.053,150.769 281.482,149.391Z" style="fill:rgb(14,7,27);fill-opacity:0.97;"/>
        <path d="M569.535,158.356C569.05,158.778 568.986,159.563 568.5,159.984C568.022,160.399 567.931,160.165 561.441,160.044C560.793,160.032 560.118,160.315 559.5,160.123C558.691,159.871 559.148,159.372 558.356,159.083C557.846,158.897 557.965,159.563 557.452,159.375C559.884,158.707 561.285,157.225 569.535,158.356Z" style="fill:rgb(253,250,232);fill-opacity:1;"/>
        <path d="M594.904,170.42C596.719,179.909 596.688,179.912 596.84,180.301C595.038,181.168 594.363,181.351 593.998,179.42C593.91,178.955 593.818,178.467 593.857,173.5L593.841,172.5L593.702,171.5L594.904,170.42Z" style="fill:rgb(6,2,16);fill-opacity:0.97;"/>
        <path d="M202.501,155.039C202.018,155.518 201.983,156.339 201.5,156.817C201.159,157.155 201.09,156.835 195.5,157.08L194.5,157.027L193.5,157.084L192.5,157.237L191.5,157.092L190.483,156.001C196.521,155.118 196.456,155.239 202.501,155.039Z" style="fill:rgb(7,2,17);fill-opacity:1;"/>
        <path d="M423.008,68.488C423.532,68.092 422.537,67.85 423.005,67.497C423.101,67.424 423.215,67.338 424.5,67.362C426.612,67.4 425.226,68.485 424.332,71.5C424.33,71.738 424.317,74.47 424.317,74.47C424.118,78.441 422.423,75.625 422.03,75.444C422.663,71.829 422.668,71.853 422.714,71.54C422.941,69.995 422.779,70.046 423.008,68.488Z" style="fill:rgb(9,2,24);fill-opacity:0.99;"/>
        <path d="M90.986,304.537C90.837,309.15 91.315,309.345 90.935,309.447C90.323,309.611 87.763,308.606 87.498,308.502C86.666,308.175 90.308,306.557 88.106,304.91C86.981,304.068 87.441,303.864 87.418,302.486C87.413,302.147 86.961,301.645 87.258,301.483C87.597,301.298 88.331,300.898 90.986,304.537Z" style="fill:rgb(27,12,48);fill-opacity:1;"/>
        <path d="M362.534,168.934L361.5,169.647L360.5,169.585L359.5,169.557L358.5,169.603L357.5,169.621C342.935,168.318 360.628,167.154 361.499,167.532C362.032,167.763 362.001,168.703 362.534,168.934Z" style="fill:rgb(33,17,54);fill-opacity:0.99;"/>
        <path d="M520.457,135.317C525.065,134.806 524.988,134.791 529.547,135.306C529.071,135.76 528.976,136.524 528.5,136.979C528.172,137.292 523.893,137.21 523.492,137.202C520.575,137.146 520.581,135.428 520.457,135.317Z" style="fill:rgb(245,243,229);fill-opacity:1;"/>
        <path d="M617.599,412.573C614.78,415.789 614.818,415.671 611.681,418.708C611.711,418.151 610.496,418.056 610.526,417.5C610.547,417.094 616.11,411.369 616.5,411.247C617.048,411.076 617.051,412.744 617.599,412.573Z" style="fill:rgb(11,5,24);fill-opacity:0.98;"/>
        <path d="M235.52,152.755C238.841,152.512 242.163,152.269 245.484,152.027C244.991,152.516 244.993,153.375 244.5,153.864C244.159,154.203 244.091,154.076 238.5,154.127L237.5,154.119L236.5,153.952L235.52,152.755Z" style="fill:rgb(21,15,30);fill-opacity:0.89;"/>
        <path d="M645.663,338.631C642.782,341.79 642.871,341.764 639.759,344.783C638.826,342.602 639.27,342.504 640.892,340.803C642.989,338.605 642.911,337.423 645.663,338.631Z" style="fill:rgb(14,7,27);fill-opacity:0.99;"/>
        <path d="M433.98,71.512C433.711,75.584 433.793,75.522 432.95,79.588L431.639,78.5L431.696,77.5C431.843,70.989 431.955,70.749 432.5,70.739C433.057,70.729 433.424,71.521 433.98,71.512Z" style="fill:rgb(16,8,30);fill-opacity:0.95;"/>
        <path d="M162.529,496.019C160.435,498.027 160.335,497.955 157.391,498.003C157.227,498.005 157.251,498.062 155.5,498.805L154.412,497.352C157.186,496.311 157.138,495.767 162.529,496.019Z" style="fill:rgb(12,6,24);fill-opacity:0.94;"/>
        <path d="M466.492,273.439C470.349,273.015 471.346,274.413 471.534,274.414C472.741,274.421 472.49,274.841 473.618,275.345C473.13,275.558 472.99,276.274 472.502,276.487C472.494,276.49 466.19,274.77 466.003,274.442C465.82,274.118 466.676,273.763 466.492,273.439Z" style="fill:rgb(31,17,56);fill-opacity:1;"/>
        <path d="M336.184,203.463C336.288,205.326 336.308,205.27 336.851,211.5C333.842,208.983 334.408,208.576 334.238,204.632C334.887,204.242 335.536,203.852 336.184,203.463Z" style="fill:rgb(24,11,46);fill-opacity:1;"/>
        <path d="M373.47,186.205C372.179,186.356 371.508,186.857 371.602,185.521C371.633,185.086 372.839,167.951 373.561,180.432C373.587,180.893 373.394,180.804 373.47,186.205Z" style="fill:rgb(153,124,180);fill-opacity:1;"/>
        <path d="M466.423,386.555C464.967,388.885 464.324,387.82 459.494,388.099C460.02,387.95 459.847,386.863 460.374,386.714C460.374,386.714 465.939,386.567 466.423,386.555Z" style="fill:rgb(131,91,165);fill-opacity:1;"/>
        <path d="M537.438,349.548C536.968,352.061 536.057,351.209 533.54,351.33C533.471,351.333 532.252,351.964 532.43,350.474C532.809,347.302 534.302,349.569 537.438,349.548Z" style="fill:rgb(183,150,208);fill-opacity:1;"/>
        <path d="M206.649,239.359C205.633,237.729 204.699,237.028 206.524,236.617C207.965,236.293 211.69,242.826 206.649,239.359Z" style="fill:rgb(30,16,49);fill-opacity:1;"/>
        <path d="M300.645,233.246C299.213,231.42 297.694,230.912 299.763,229.792C299.899,229.719 301.196,229.705 301.332,229.776C302.312,230.284 301.661,230.586 300.645,233.246Z" style="fill:rgb(29,16,47);fill-opacity:1;"/>
        <path d="M536.467,340.296C536.664,340.28 549.168,340.285 538.529,341.643C536.062,341.958 536.894,340.575 536.467,340.296Z" style="fill:rgb(26,13,47);"/>
        <path d="M231.505,170.235C232.146,170.499 232.942,169.859 233.584,170.123C233.688,170.166 235.701,170.996 233.553,171.529C232.172,171.871 232.249,171.472 231.505,170.235Z" style="fill:rgb(88,71,108);fill-opacity:0.99;"/>
        <path d="M625.611,283.11C625.849,283.188 628.595,284.077 628.595,284.077C629.217,286.84 625.785,283.291 625.611,283.11Z" style="fill:rgb(192,162,214);fill-opacity:1;"/>
        <path d="M479.229,297.227C478.729,296.285 478.328,296.53 478.296,295.47C478.207,292.489 479.836,295.438 479.898,295.55C479.968,295.676 479.849,295.674 479.229,297.227Z" style="fill:rgb(26,12,46);fill-opacity:1;"/>
        <path d="M618.426,360.499C617.244,358.355 616.449,356.923 618.9,357.218C619.163,357.25 618.874,357.393 618.426,360.499Z" style="fill:rgb(179,146,206);fill-opacity:1;"/>
        <path d="M425.95,232.48C426.556,235.135 426.679,235.155 426.449,235.344C424.407,237.015 425.875,232.7 425.95,232.48Z" style="fill:rgb(28,14,48);fill-opacity:1;"/>
        <path d="M558.477,199.595C556.617,199.539 556.558,199.671 556.473,199.535C555.588,198.123 557.048,198.808 558.477,199.595Z" style="fill:rgb(32,16,51);"/>
        <path d="M278.489,173.38C279.387,174.253 279.635,172.194 280.519,173.054C280.617,173.148 281.672,174.173 279.641,174.5C279.113,174.585 279.018,173.295 278.489,173.38Z" style="fill:rgb(27,15,47);fill-opacity:1;"/>
        <path d="M589.163,172.538C589.762,172.004 588.876,171.692 589.466,171.166C589.537,171.103 590.055,170.642 590.661,171.203C591.684,172.152 590.167,171.644 589.163,172.538Z" style="fill:rgb(32,19,51);fill-opacity:1;"/>
        <path d="M393.488,169.416C392.083,170.423 392.1,170.582 391.976,170.5C390.87,169.77 392.387,170.206 393.488,169.416Z" style="fill:rgb(26,15,45);fill-opacity:1;"/>
        <path d="M386.542,190.517C386.477,190.711 385.73,192.948 385.73,192.948C383.966,192.837 385.987,192.178 386.542,190.517Z" style="fill:rgb(32,17,52);fill-opacity:1;"/>
        <path d="M357.169,176.119C358.971,175.529 360.422,173.892 359.508,175.492C359.508,175.492 357.356,176.069 357.169,176.119Z" style="fill:rgb(188,166,205);fill-opacity:1;"/>
        <path d="M154.455,171.403C154.544,171.331 155.557,170.5 155.557,170.5C155.635,170.53 156.662,170.923 156.294,171.225C155.493,171.881 155.255,170.748 154.455,171.403Z" style="fill:rgb(93,77,112);fill-opacity:1;"/>
        <path d="M522.504,132.522C522.04,132.571 521.964,133.447 521.5,133.496C521.405,133.506 519.594,133.698 520.597,132.724C521.34,132.002 521.711,133.291 522.504,132.522Z" style="fill:rgb(29,18,48);fill-opacity:1;"/>
        <path d="M587.195,253.37C587.75,251.944 587.661,251.84 587.792,251.834C589.016,251.78 587.637,252.235 587.195,253.37Z" style="fill:rgb(243,234,241);fill-opacity:1;"/>
        <path d="M629.996,362.637C630.089,362.925 630.182,363.212 630.274,363.5L629.849,363.574L629.996,362.637Z" style="fill:rgb(24,11,40);fill-opacity:0.98;"/>
    </g>
</svg>
