<?xml version="1.0" encoding="UTF-8" standalone="no"?>
<!DOCTYPE svg PUBLIC "-//W3C//DTD SVG 1.1//EN" "http://www.w3.org/Graphics/SVG/1.1/DTD/svg11.dtd">
<svg width="100%" height="100%" viewBox="0 0 702 702" version="1.1" xmlns="http://www.w3.org/2000/svg" xmlns:xlink="http://www.w3.org/1999/xlink" xml:space="preserve" xmlns:serif="http://www.serif.com/" style="fill-rule:evenodd;clip-rule:evenodd;stroke-linejoin:round;stroke-miterlimit:2;">
    <g id="Background" transform="matrix(1,0,0,1,-161,-129)">
        <path d="M445.514,588.074C431.488,587.299 431.54,587.468 417.492,586.698C399.781,585.728 385.596,587.204 384.837,573.466C383.918,556.849 396.892,560.635 396.077,552.545C395.062,542.472 392.908,543.05 390.465,543.182C368.936,544.344 368.989,546.581 347.509,544.377C330.1,542.591 329.697,545.081 304.375,537.952C289.596,533.791 278.945,540.827 273.702,536.255C264.889,528.567 288.816,530.144 289.592,526.534C289.931,524.962 281.799,506.887 281.154,505.688C276.992,497.94 256.167,503.447 243.678,493.264C210.84,466.49 249.163,423.701 250.069,422.223C252.506,418.247 249.778,418.023 236.722,371.432C231.489,352.758 226.467,346.823 236.098,339.034C240.677,335.33 233.593,333.201 231.841,325.415C227.529,306.26 242.394,301.753 243.401,297.477C245.837,287.137 243.645,284.714 257.376,277.263C261.463,275.045 260.516,274.166 260.922,269.523C262.864,247.333 286.804,245.192 288.594,244.691C290.953,244.031 289.69,243.055 289.901,237.516C290.161,230.709 295.552,220.142 306.683,215.961C326.066,208.681 332.576,220.92 338.096,216.048C339.01,215.242 345.739,209.302 351.539,208.897C364.611,207.983 361.625,199.787 374.571,197.955C393.206,195.318 402.081,209.132 403.957,211.071C409.707,217.016 418.965,201.176 433.668,222.386C436.374,226.29 442.957,222.037 449.463,222.853C478.252,226.465 473.322,250.973 477.621,252.046C490.821,255.338 494.23,254.164 501.831,268.306C504.548,273.36 513.897,271.728 520.012,280.848C528.446,293.427 520.494,305.307 520.425,305.472C519.111,308.591 526.885,308.099 530.006,313.787C534.005,321.075 526.78,382.939 528.116,398.542C528.604,404.239 531.334,401.824 536.278,399.097C543.172,395.294 540.108,374.108 549.732,336.559C559.273,299.331 605.582,271.587 600.663,263.396C591.885,248.78 602.684,243.709 603.101,238.466C604.817,216.87 619.953,222.698 640.481,222.117C648.363,221.894 646.695,192.572 654.824,184.837C663.15,176.914 664.404,175.076 684.476,177.684C712.899,181.377 733.341,178.81 733.662,194.497C734.31,226.207 691.162,204.47 682.772,210.884C679.296,213.54 678.311,225.512 678.313,225.523C678.974,230.38 713.047,229.982 704.496,251.498C702.404,256.761 705.041,256.834 704.875,262.508C704.641,270.494 703.279,270.138 698.674,276.612C697.227,278.646 703.716,285.849 708.173,293.692C734.346,339.755 735.598,347.994 731.963,401.537C730.587,421.795 730.981,422.778 744.289,437.678C769.416,465.811 750.252,491.941 740.391,497.301C727.262,504.438 721.682,496.331 719.978,504.598C715.545,526.111 713.375,525.589 713.587,527.477C713.756,528.988 738.954,532.768 740.072,533.996C743.151,537.38 723.927,536.595 712.502,536.698C695.191,536.854 692.123,544.104 656.492,542.673C632.929,541.727 630.297,538.888 629.264,544.454C627.668,553.052 626.481,555.524 631.391,557.73C641.505,562.276 643.974,579.504 630.594,585.713C623.771,588.879 521.158,591.253 445.514,588.074Z" style="fill:rgb(10,10,9);"/>
        <path d="M549.937,417.539C554.17,383.878 553.331,383.807 559.287,350.46C567.523,304.35 602.307,295.942 615.805,264.618C618.395,258.607 611.363,256.567 610.744,253.445C608.968,244.495 622.394,248.584 624.363,247.274C631.338,242.635 616.824,240.014 614.726,238.215C603.198,228.33 685.024,238.291 692.303,244.74C698.141,249.912 680.788,247.652 679.278,251.401C676.439,258.449 688.664,253.805 691.5,259.5C694.08,264.679 687.413,267.308 686.66,267.768C681.562,270.884 684.028,275.531 685.325,279.553C691.011,297.185 717.837,324.908 720.797,358.475C721.473,366.153 719.781,403.802 716.426,432.49C711.417,475.317 708.149,511.771 701.177,521.255C691.608,534.271 636.847,528.338 632.682,527.006C628.608,525.705 638.5,463.647 632.648,449.435C625.729,432.634 579.124,438.515 563.427,435.859C555.228,434.471 550.655,437.227 548.674,435.312C547.65,434.321 547.967,434.084 549.937,417.539Z" style="fill:rgb(253,253,253);"/>
        <path d="M494.954,363.514C494.389,398.969 495.493,399.215 493.243,404.372C492.603,405.839 496.528,435.079 492.55,435.723C486.539,436.696 486.52,435.134 416.478,438.15C379.331,439.749 389.092,461.121 392.464,519.502C392.956,528.033 388.95,525.775 380.542,526.816C363.921,528.876 363.217,527.765 362.443,526.541C358.587,520.448 343.502,453.041 342.06,446.601C341.171,442.627 336.093,415.277 331.375,424.424C329.925,427.235 330.386,427.454 337.916,463.41C342.108,483.432 349.415,510.433 350.515,514.496C352.166,520.599 354.337,527.359 350.529,527.705C346.86,528.038 331.404,528.022 328.881,525.172C326.913,522.949 306.179,468.907 295.614,428.469C284.514,385.976 287.18,385.186 270.62,344.45C267.698,337.263 270.198,336.402 279.424,333.282C313.499,321.755 313.726,334.575 315.287,341.55C316.271,345.946 319.919,369.624 323.756,364.712C327.169,360.342 319.907,333.402 322.84,329.773C331.061,319.607 376.817,314.942 379.852,330.415C382.823,345.564 388.183,334.243 388.395,333.472C389.007,331.235 386.225,314.411 428.5,314.69C456.277,314.874 449.316,326.18 451.457,336.51C452.512,341.604 456.12,344.78 458.177,338.392C460.97,329.714 452.078,312.777 473.488,312.154C496.282,311.49 496.341,315.624 496.368,317.504C496.42,321.127 495.092,348.836 494.954,363.514Z" style="fill:rgb(253,253,253);"/>
        <path d="M404.038,506.516C403.726,503.24 401.341,478.164 400.994,465.494C400.828,459.432 401.288,455.466 405.665,452.783C416.407,446.199 554.115,448.133 560.504,448.307C611.129,449.686 618.09,450.435 621.11,455.742C625.382,463.249 617.674,555.28 613.817,558.854C610.051,562.344 481.731,562.518 471.51,562.085C413.208,559.612 410.306,562.526 408.856,556.405C407.872,552.249 404.277,511.123 404.038,506.516Z" style="fill:rgb(253,253,253);"/>
        <path d="M292.448,254.914C295.15,255.535 303.898,258.657 303.836,253.492C303.812,251.455 291.437,233.117 311.595,224.75C323.222,219.925 345.979,231.845 331.415,249.431C322.337,260.391 323.507,261.97 318.494,263.485C312.353,265.341 297.411,266.879 293.293,283.452C290.981,292.757 297.774,298.503 300.699,290.579C301.972,287.13 302.399,276.434 316.534,273.663C320.37,272.911 328.328,274.553 330.578,268.536C332.201,264.193 334.269,254.023 346.469,250.395C358.065,246.946 371.835,252.615 368.795,263.573C368.626,264.182 366.868,270.52 367.628,271.393C369.475,273.513 384.112,264.346 393.163,274.787C399.7,282.328 393.034,294.951 404.431,291.32C419.66,286.467 419.196,307.266 403.501,307.555C397.972,307.656 395.648,302.332 386.789,307.939C384.951,309.101 378.404,314.985 367.435,312.841C354.753,310.363 358.355,302.446 351.47,301.706C335.301,299.969 336.753,320.162 315.512,318.377C301.574,317.206 301.127,297.922 295.686,305.617C294.845,306.806 294.307,320.66 281.458,319.853C277.567,319.609 267.16,310.535 261.952,320.741C260.765,323.068 259.443,328.718 252.462,330.274C243.274,332.323 231.496,313.18 251.376,307.068C260.891,304.143 246.271,289.304 261.554,286.821C265.899,286.115 273.696,290.118 273.172,283.54C273.131,283.021 261.975,260.56 286.567,254.896C287.435,254.696 287.347,254.794 292.448,254.914Z" style="fill:rgb(253,253,253);"/>
        <path d="M205.039,638.512C204.855,612.949 204.246,612.87 205.419,609.471C207.9,602.284 261.119,592.79 270.218,619.6C275.931,636.434 261.822,649.297 261.826,649.485C261.856,650.721 282.113,655.747 281.827,676.501C281.231,719.66 218.322,714.819 212.704,711.165C205.416,706.423 206.61,672.12 205.039,638.512ZM238.447,696.072C240.235,695.645 254.018,692.359 257.76,683.61C267.096,661.781 230.263,659.937 228.312,666.439C227.888,667.851 229.139,690.516 229.388,692.518C230.005,697.474 235.276,696.135 238.447,696.072ZM227.212,637.504C227.463,646.092 226.257,650.902 234.393,648.185C264.456,638.146 248.668,612.923 229.591,617.827C225.413,618.901 226.365,621.362 227.212,637.504Z" style="fill:rgb(14,14,13);"/>
        <path d="M466.502,712.095C463.8,711.978 450.515,712.224 446.786,708.236C440.375,701.381 442.491,614.035 444.272,608.404C446.125,602.545 508.194,592.071 508.837,627.493C509.18,646.386 493.882,647.981 501.29,650.956C523.932,660.047 522.468,687.116 509.106,699.071C492.738,713.714 470.604,712.058 466.502,712.095ZM475.579,694.922C477.28,694.523 490.553,691.406 494.068,683.308C503.34,661.945 471.161,660.435 465.832,663.995C463.803,665.351 465.222,692.475 465.23,692.548C465.713,696.891 475.514,694.928 475.579,694.922ZM482.664,620.231C480.086,618.852 480.23,618.615 477.381,617.977C462.603,614.668 464.75,621.698 464.755,622.498C464.874,644.557 464.142,648.166 467.507,648.059C482.946,647.572 497.117,631.137 482.664,620.231Z" style="fill:rgb(14,14,14);"/>
        <path d="M353.496,240.046C351.523,240.092 342.646,242.712 342.973,228.513C343.104,222.803 349.036,216.879 354.187,221.821C363.497,230.752 361.615,216.223 368.886,210.998C374.168,207.204 392.812,202.514 397.82,223.421C400.812,235.912 407.127,223.815 410.492,222.483C411.897,221.927 426.004,217.504 425.911,234.505C425.846,246.369 435.294,233.944 444.461,233.136C462.663,231.53 467.561,246.094 465.088,253.371C462.878,259.874 460.599,260.459 463.679,263.284C467.302,266.608 492.591,253.694 492.868,277.476C492.972,286.459 512.006,276.236 514.382,292.519C515.383,299.379 506.395,310.784 500.102,299.725C492.468,286.31 481.698,302.986 472.548,302.046C461.057,300.864 466.329,289.497 455.354,283.763C448.457,280.159 446.587,280.272 447.301,272.489C448.847,255.622 414.025,255.607 422.792,264.201C426.016,267.362 438.246,264.945 441.596,275.466C442.876,279.484 434.43,289.363 444.475,289.87C465.484,290.929 455.896,313.378 441.614,306.275C436.02,303.493 436.733,301.86 430.554,301.012C419.618,299.51 429.512,285.891 412.452,281.727C406.048,280.164 405.881,279.704 403.153,273.657C397.24,260.546 384.347,262.403 382.345,257.578C377.987,247.071 376.123,240.788 353.496,240.046Z" style="fill:rgb(253,253,253);"/>
        <path d="M678.468,350.933C677.68,350.808 671.098,349.865 670.457,349.773C588.86,338.086 575.329,338.843 573.769,334.426C571.934,329.233 585.853,312.014 599.972,297.952C610.921,287.047 614.448,294.434 623.555,297.154C627.288,298.269 631.336,272.909 631.458,271.498C631.8,267.507 627.085,267.857 624.614,264.42C619.256,256.968 637.04,260.486 642.504,261.477C665.341,265.619 672.68,263.253 676.277,266.736C682.452,272.715 667.573,272.759 664.754,275.734C660.194,280.546 656.326,302.193 655.902,304.569C654.446,312.716 682.003,303.357 685.454,303.08C693.18,302.46 708.321,337.915 710.172,345.583C713.432,359.09 702.119,353.453 678.468,350.933Z" style="fill:rgb(12,12,12);"/>
        <path d="M392.505,708.884C337.154,706.446 345.551,629.67 372.711,612.845C385.515,604.914 428.467,597.117 433.348,654.512C433.616,657.666 435.416,678.832 425.076,693.204C414.063,708.511 395.827,708.68 392.505,708.884ZM404.574,632.433C402.63,630.396 402.798,630.263 400.3,628.848C371.613,612.611 365.52,680.532 386.505,688.49C413.461,698.714 418.387,650.512 404.574,632.433Z" style="fill:rgb(14,14,13);"/>
        <path d="M668.438,691.998C668.263,692.149 667.937,691.694 667.763,691.845C667.205,692.329 668.473,693.277 662.295,699.285C646.958,714.199 623.861,703.04 628.89,669.573C631.582,651.65 646.066,633.471 666.426,641.753C669.062,642.825 667.904,640.366 668.62,620.501C669.212,604.082 666.303,597.937 677.499,597.684C691.591,597.366 683.28,606.62 684.228,693.505C684.236,694.218 686.682,706.877 675.466,705.73C668.806,705.049 669.169,693.753 669.207,692.589L668.438,691.998ZM659.535,652.899C640.694,657.912 641.931,687.763 651.557,690.254C664.654,693.642 675.412,653.736 661.474,652.885C660.828,652.846 660.18,652.939 659.535,652.899Z" style="fill:rgb(13,14,13);"/>
        <path d="M639.094,513.493C639.739,502.911 644.481,474.572 645.737,461.521C647.069,447.687 653.191,452.929 666.516,453.116C698.981,453.573 703.166,445.767 704.569,453.487C705.096,456.386 699.6,493.929 699.087,497.434C696.639,514.155 696.581,520.983 664.503,520.874C641.05,520.794 639.573,519.168 639.094,513.493Z" style="fill:rgb(14,14,14);"/>
        <path d="M291.919,444.385C314.652,520.093 322.635,525.674 315.576,524.067C298.978,520.288 300.461,516.78 290.776,494.381C282.343,474.878 241.086,353.869 244.464,348.469C245.184,347.318 260.081,338.705 262.384,340.647C268.673,345.95 285.203,421.571 291.919,444.385Z" style="fill:rgb(253,253,253);"/>
        <path d="M314.911,649.114C316.218,649.127 316.188,649.027 316.881,647.856C327.67,629.623 332.808,613.717 333.814,610.602C337.768,598.364 352.912,608.831 353.968,613.386C355.948,621.924 331.672,662.17 328.854,666.72C322.742,676.59 325.862,677.445 325.84,692.503C325.819,706.463 325.484,710.311 311.499,710.288C297.902,710.266 303.43,702.877 303.177,673.51C303.141,669.338 286.67,640.816 277.567,619.475C273.113,609.032 289.899,604.164 295.527,607.458C298.7,609.315 298.467,609.756 314.911,649.114Z" style="fill:rgb(14,14,13);"/>
        <path d="M786.505,641.084C790.235,641.505 811.024,641.259 816.186,664.568C823.39,697.099 796.28,720.421 769.695,706.137C746.834,693.853 747.435,646.313 783.46,641.201C784.466,641.058 785.499,641.227 786.505,641.084ZM783.406,657.112C764.305,663.296 773.593,706.107 791.344,693.277C802.138,685.476 802.929,654.493 783.406,657.112Z" style="fill:rgb(14,14,13);"/>
        <path d="M479.086,513.5C479.107,483.481 478.497,477.952 482.481,475.474C486.887,472.734 488.117,473.691 507.417,483.659C544.065,502.587 553.249,505.273 548.397,512.435C544.967,517.498 491.193,544.353 490.555,544.636C477.077,550.611 479.128,529.262 479.086,513.5Z" style="fill:rgb(15,15,15);"/>
        <path d="M492.841,202.332C482.732,181.952 500.358,175.423 503.574,174.867C518.281,172.323 523.823,185.043 525.703,187.297C527.819,189.835 527.602,186.898 529.836,183.746C530.759,182.442 537.359,173.128 547.506,174.44C569.693,177.309 566.419,203.177 542.103,223.047C528.305,234.321 527.481,236.446 522.835,233.044C500.79,216.898 494.486,205.347 492.841,202.332Z" style="fill:rgb(14,14,14);"/>
        <path d="M692.084,683.541C691.505,677.022 691.465,677.066 691.459,676.501C690.961,631.932 741.288,632.503 747.62,656.467C754.572,682.778 720.72,678.969 711.545,679.877C707.167,680.31 710.217,686.194 711.994,688.01C725.078,701.383 746.072,682.085 748.57,689.475C753.808,704.97 700.173,722.804 692.084,683.541ZM712.578,658.559C707.863,666.036 709.793,668.757 711.448,668.836C714.168,668.967 737.313,671.488 730.658,658.414C728.346,653.872 723.251,653.656 722.494,653.624C717.479,653.412 713.189,657.918 712.578,658.559Z" style="fill:rgb(13,13,13);"/>
        <path d="M566.958,686.179C568.011,686.198 568.263,686.507 568.517,685.512C569.343,682.274 573.419,666.305 580.313,645.435C583.112,636.962 590.476,639.555 590.481,639.557C601.821,643.868 596.481,652.291 594.416,657.465C576.932,701.265 576.334,707.908 565.543,706.174C557.98,704.958 557.377,701.717 555.816,697.392C547.867,675.357 548.211,675.322 539.986,653.327C534.706,639.207 551.146,640.399 554.256,642.836C558.744,646.353 566.659,684.325 566.958,686.179Z" style="fill:rgb(14,14,13);"/>
        <path d="M514.941,416.502C514.814,425.717 515.602,435.424 511.512,435.648C504.843,436.012 502.274,435.794 502.137,433.551C501.899,429.635 502.752,429.706 502.416,384.501C502.376,379.117 501.937,320.085 504.105,317.229C505.725,315.095 518.81,318.431 519.096,322.531C519.408,327.01 516.358,377.156 514.941,416.502Z" style="fill:rgb(252,252,252);"/>
        <path d="M240.924,459.562C242.819,450.925 244.423,446.507 251.077,438.161C251.654,437.437 254.755,432.397 256.177,435.663C257.605,438.942 273.654,484.948 273.788,485.441C275.413,491.436 238.586,492.864 240.924,459.562Z" style="fill:rgb(253,253,253);"/>
        <path d="M603.953,681.502C604.749,651.832 601.437,642.65 610.531,641.755C624.664,640.365 621.316,657.155 621.308,657.494C620.241,700.625 621.383,703.249 615.441,704.228C601.573,706.513 603.999,698.617 603.953,681.502Z" style="fill:rgb(13,13,13);"/>
        <path d="M530.502,732.084C554.87,735.213 545.066,779.663 523.664,769.158C512.209,763.535 512.484,733.785 530.502,732.084ZM533.581,763.614C540.646,757.113 537.904,743.004 534.291,739.732C521.508,728.157 516.615,772.329 533.581,763.614Z" style="fill:rgb(13,13,13);"/>
        <path d="M727.922,446.515C728.239,442.53 728.173,434.868 733.142,438.948C758.592,459.845 745.339,490.505 726.56,488.13C720.23,487.329 724.71,483.857 727.922,446.515Z" style="fill:rgb(253,253,253);"/>
        <path d="M445.495,568.92C448.922,568.932 486.779,569.062 488.323,569.93C488.701,570.143 492.491,578.845 484.498,578.771C478.849,578.719 405.817,577.488 400.597,576.135C396.937,575.187 391.779,567.889 403.5,567.821C424.244,567.7 442.14,568.728 445.495,568.92Z" style="fill:rgb(253,253,253);"/>
        <g transform="matrix(-1,0,0,1,1023.98018,1)">
            <path d="M445.495,568.92C446.576,568.924 451.084,568.939 456.797,568.986C469.194,569.087 487.266,569.336 488.323,569.93C488.701,570.143 492.491,578.845 484.498,578.771C478.849,578.719 405.817,577.488 400.597,576.135C396.937,575.187 391.779,567.889 403.5,567.821C424.244,567.7 442.14,568.728 445.495,568.92Z" style="fill:rgb(253,253,253);"/>
        </g>
        <path d="M290.502,731.096C291.894,731.234 307.219,732.75 300.448,745.471C299.196,747.823 298.063,748.44 300.366,749.711C309.145,754.556 304.32,771.809 284.518,770.254C279.594,769.867 280.317,767.675 280.35,747.5C280.366,737.237 279.299,732.531 283.539,731.691C286.259,731.152 286.236,731.341 290.502,731.096ZM295.489,762.486C297.403,760.248 298.175,760.44 297.873,757.456C297.629,755.06 295.329,753.304 294.324,753C286.421,750.61 286.244,754.308 286.574,762.495C286.789,767.837 294.881,762.86 295.489,762.486ZM295.789,740.47C295.62,739.953 294.489,736.488 290.526,736.173C286.913,735.886 286.094,738.504 286.827,746.448C287.003,748.352 289.316,747.741 289.547,747.68C295.245,746.173 295.716,741.23 295.789,740.47Z" style="fill:rgb(12,12,12);"/>
        <path d="M634.51,730.968C635.431,731.078 643.194,732.003 645.077,735.731C647.165,739.866 645.622,744.294 644.087,746.2C641.435,749.495 645.598,748.735 647.575,752.456C655.732,767.809 625.606,775.381 624.769,767.456C623.695,757.288 624.754,737.165 624.893,734.535C625.072,731.125 631.518,731.275 634.51,730.968ZM630.958,758.505C630.956,759.584 629.235,768.232 638.291,763.154C645.361,759.189 640.585,750.639 632.633,752.99C631.258,753.396 630.985,758.044 630.958,758.505ZM638.418,737.585L636.536,736.404C629.747,734.018 631.047,738.325 631.121,745.522C631.174,750.658 643.441,745.786 638.418,737.585Z" style="fill:rgb(11,11,11);"/>
        <path d="M638.892,279.576C640.74,272.61 640.737,272.617 640.74,272.61C641.896,270.171 651.365,272.503 652.261,272.973C655.92,274.891 647.247,302.747 646.35,304.42C645.568,305.88 631.057,319.672 638.897,326.02C651.554,336.269 618.342,336.482 625.771,326.696C630.94,319.886 629.28,319.116 638.892,279.576Z" style="fill:rgb(253,253,253);"/>
        <path d="M363.094,396.503C359.064,426.452 327.024,404.071 339.65,386.606C345.465,378.562 361.113,378.235 363.094,396.503Z" style="fill:rgb(13,13,13);"/>
        <path d="M456.475,399.819C441.506,396.88 441.888,378.011 450.678,372.779C470.077,361.235 480.898,399.27 456.475,399.819Z" style="fill:rgb(11,11,11);"/>
        <path d="M712.021,772.399C711.735,773.24 709.441,785.084 695.523,781.426C691.04,780.249 692.442,776.473 695.5,776.504C696.205,776.511 702.634,776.577 704.207,775.161C707.287,772.387 708.602,764.484 705.477,767.458C696.747,775.766 685.244,759.61 695.605,748.598C699.886,744.047 713.114,741.297 713.402,751.503C713.708,762.354 712.299,770.747 712.021,772.399ZM700.604,751.603C693.491,761.207 702.495,768.543 706.283,760.405C707.41,757.986 710.897,744.05 700.604,751.603Z" style="fill:rgb(13,13,13);"/>
        <path d="M370.628,766.403C362.266,752.024 379.037,739.936 388.545,746.447C391.632,748.561 389.941,766.081 389.138,770.435C385.965,787.626 370.796,781.222 369.827,780.182C366.21,776.301 375.895,776.731 376.494,776.757C383.156,777.052 385.227,767.677 383.463,766.963C381.356,766.111 378.91,774.15 370.628,766.403ZM384.102,756.425C384.195,755.446 384.393,754.478 384.486,753.499C385.32,744.72 372.913,750.68 375.112,760.583C375.284,761.356 380.247,770.807 384.102,756.425Z" style="fill:rgb(11,11,11);"/>
        <path d="M600.081,378.545C600.432,405.011 569.063,397.424 575.408,376.468C577.948,368.077 594.161,357.945 600.081,378.545Z" style="fill:rgb(11,11,11);"/>
        <path d="M684.657,404.664C668.075,419.079 655.703,388.19 672.451,380.406C685.278,374.445 696.386,392.435 684.657,404.664Z" style="fill:rgb(12,12,12);"/>
        <path d="M657.152,205.411C657.365,204.626 659.49,196.815 659.85,195.607C665.362,177.086 678.098,192.565 678.817,197.45C679.999,205.476 671.294,195.688 669.497,195.551C664.474,195.165 674.413,204.625 672.2,206.069C671.469,206.545 659.7,203.518 667.794,209.1C672.738,212.509 671.064,213.632 669.747,219.557C667.635,229.056 665.11,228.62 655.571,227.091C651.748,226.478 652.534,224.593 657.152,205.411Z" style="fill:rgb(253,253,253);"/>
        <path d="M452.117,753.577C455.405,780.098 423.238,772.459 430.727,752.575C433.986,743.924 447.89,738.756 452.117,753.577ZM436.056,757.495C437.333,770.015 446.502,765.173 446.228,757.501C445.891,748.061 436.975,747.2 436.056,757.495Z" style="fill:rgb(13,13,13);"/>
        <path d="M551.103,760.594C548.675,751.558 546.244,746.017 550.584,744.851C551.732,744.543 554.772,743.726 556.406,758.529C557.735,770.572 559.007,750.017 563.566,748.691C569.832,746.869 570.602,760.579 570.822,761.295C572.114,765.499 574.313,750.471 574.456,749.494C575.515,742.254 582.457,743.912 580.886,749.605C577.027,763.589 575.838,770.616 571.539,770.09C567.094,769.547 566.214,761.702 565.89,760.334C563.419,749.904 563.291,769.32 557.453,770.036C552.147,770.686 551.187,760.93 551.103,760.594Z" style="fill:rgb(11,11,11);"/>
        <path d="M640.571,404.575C641.863,403.242 641.8,403.268 642.888,401.796C647.989,394.897 652.811,399.841 651.715,403.555C647.355,418.326 617.808,424.534 609.832,403.365C605.873,392.859 615.272,390.519 617.233,397.575C622.961,418.182 639.028,405.767 640.571,404.575Z" style="fill:rgb(10,10,10);"/>
        <path d="M385.3,407.644C385.056,407.227 382.884,403.519 383.956,401.754C388.159,394.833 393.331,408.007 401.441,410.694C415.999,415.517 419.383,396.573 423.469,395.401C438.84,390.992 413.685,442.539 385.3,407.644Z" style="fill:rgb(10,11,10);"/>
        <path d="M726.572,770.112C726.153,769.985 719.372,769.053 717.883,762.403C713.749,743.944 735.39,739.405 739.033,750.648C742.985,762.842 721.163,757.569 724.591,762.445C728.081,767.407 735.975,763.648 737.489,763.407C741.301,762.801 740.802,771.695 726.572,770.112ZM726.41,750.362C717.835,758.087 733.812,757.355 733.37,752.515C732.933,747.74 726.951,750.144 726.41,750.362Z" style="fill:rgb(12,12,12);"/>
        <path d="M423.083,764.496C423.015,765.097 422.177,772.49 417.458,769.553C414.317,767.599 417.455,758.838 415.316,754.596C408.537,741.153 402.763,733.437 409.518,732.612C414.757,731.973 418.051,753.865 421.063,747.274C427.894,732.324 429.1,732.398 430.501,732.485C435.381,732.787 431.469,739.764 431.162,740.313C424.782,751.691 423.087,751.367 423.083,764.496Z" style="fill:rgb(13,13,13);"/>
        <path d="M673.336,749.1C690.356,731.883 690.295,770.699 684.507,770.219C677.274,769.62 685.382,746.788 676.517,751.527C670.134,754.938 674.968,773.717 667.545,769.435C664.839,767.875 663.665,732.281 673.336,749.1Z" style="fill:rgb(13,13,13);"/>
        <path d="M350.284,749.136C360.482,736.004 366.745,752.986 364.283,767.461C363.713,770.813 357.957,772.995 358.161,764.49C358.172,764.045 359.819,750.693 354.478,751.324C346.833,752.227 352.437,773.66 344.403,769.654C343.21,769.058 342.771,768.74 343.107,749.485C343.216,743.226 348.105,743.646 348.755,747.421C348.972,748.682 349.17,748.528 350.284,749.136Z" style="fill:rgb(12,12,12);"/>
        <path d="M456.91,749.539C456.997,749.083 457.825,744.783 459.439,744.316C461.682,743.668 462.979,745.465 463.165,745.723C464.357,747.374 463.577,747.562 462.999,753.55C462.913,754.439 461.926,764.662 466.49,764.159C472.594,763.487 471.673,749.221 471.696,748.517C471.844,744.135 475.331,743.575 477.087,745.798C478.232,747.247 479.79,777.857 472.832,768.242C470.397,764.878 470.038,769.241 465.433,770.081C453.668,772.226 456.882,750.25 456.91,749.539Z" style="fill:rgb(11,11,11);"/>
        <path d="M585.129,764.498C585.159,760.813 583.9,738.353 590.342,745.643C591.402,746.841 590.614,747.207 591.578,748.434C592.362,749.431 594.151,746.761 595.683,745.819C608.577,737.896 608.706,769.535 604.488,770.46C597.33,772.029 602.675,753.586 598.556,751.417C591.196,747.542 592.011,767.48 590.219,769.206C585.794,773.467 585.17,765.051 585.129,764.498Z" style="fill:rgb(9,9,9);"/>
        <path d="M624.059,621.431C618.543,640.21 595.594,627.481 604.929,614.852C606.901,612.185 622.795,603.811 624.059,621.431Z" style="fill:rgb(13,13,13);"/>
        <path d="M523.431,702.548C517.701,691.246 528.663,684.619 535.471,686.612C551.524,691.311 535.499,716.576 523.431,702.548Z" style="fill:rgb(14,14,14);"/>
        <path d="M502.517,569.904C520.341,569.842 527.255,568.938 528.598,573.47C530.712,580.6 521.225,579.124 501.501,579.192C495.139,579.213 492.083,571.004 502.517,569.904Z" style="fill:rgb(252,252,251);"/>
        <path d="M667.5,255.103C664.707,254.768 634.549,251.15 632.837,249.196C632.371,248.663 628.644,242.08 640.454,244.68C647.424,246.215 670.622,247.478 672.295,249.639C672.607,250.041 673.256,251.876 671.652,253.632C670.145,255.282 668.324,255.012 667.5,255.103Z" style="fill:rgb(7,8,7);"/>
        <path d="M711.515,203.102C708.32,202.847 704.421,203.699 704.385,199.503C704.305,190.26 703.665,189.319 705.484,189.325C715.823,189.361 726.272,189.996 725.504,197.5C724.649,205.848 713.328,203.198 711.515,203.102Z" style="fill:rgb(253,253,253);"/>
        <path d="M264.358,751.922C269.506,754.746 267.13,758.631 260.5,758.658C236.852,758.754 229.306,759.124 232.442,753.459C233.569,751.421 234.101,751.073 261.499,751.593C261.73,751.597 261.711,751.617 264.358,751.922Z" style="fill:rgb(12,12,12);"/>
        <path d="M787.675,752.067C792.21,754.601 790.417,758.331 784.5,758.487C756.489,759.224 755.895,758.439 754.977,756.256C752.579,750.557 765.255,751.688 778.5,751.604C783.133,751.575 783.058,751.358 787.675,752.067Z" style="fill:rgb(14,14,14);"/>
        <path d="M526.839,419.522C527.153,417.549 527.125,417.556 527.178,417.391C528.448,413.409 535.992,411.774 536.473,411.892C538.071,412.282 539.2,412.888 536.202,432.451C535.629,436.195 531.62,435.665 528.493,435.56C525.713,435.467 526.624,428.001 526.839,419.522Z" style="fill:rgb(252,252,253);"/>
        <path d="M325.484,751.481C323.491,752.304 323.398,752.515 321.489,751.518C312.689,746.923 318.856,772.038 311.562,770.312C307.543,769.36 308.494,746.128 310.76,744.925C314.604,742.884 314.874,750.852 317.217,748.234C324.094,740.55 329.233,746.29 325.484,751.481Z" style="fill:rgb(12,12,12);"/>
        <path d="M692.487,200.852C691.444,200.738 685.836,201 684.405,198.562C678.401,188.33 677.142,189.332 676.671,188.428C676.01,187.16 677.185,186.299 694.531,188.226C699.051,188.727 700.447,189.067 699.302,193.449C697.113,201.827 695.019,200.555 692.487,200.852Z" style="fill:rgb(252,252,252);"/>
        <path d="M491.591,752.571C487.496,759.902 491.775,773.124 485.644,770.163C481.822,768.318 483.113,746.077 484.793,744.885C488.465,742.278 489.238,750.416 491.572,747.586C498.585,739.083 505.155,751.233 498.469,752.379C497.054,752.622 495.828,751.195 495.311,750.962C493.232,750.025 493.381,751.136 491.591,752.571Z" style="fill:rgb(12,11,11);"/>
        <path d="M353.6,294.91C352.058,295.14 347.381,296.923 344.934,293.227C341.269,287.69 357.638,278.606 360.266,279.987C363.382,281.625 364.719,291.125 353.6,294.91Z" style="fill:rgb(8,8,8);"/>
        <path d="M675.679,475.364C685.189,490.666 674.481,494.589 670.763,489.331C668.344,485.909 667.358,466.38 675.679,475.364Z" style="fill:rgb(253,253,253);"/>
        <path d="M660.16,758.503C660.066,765.984 660.835,766.175 659.365,768.423C659.007,768.971 653.704,773.758 653.72,762.499C653.731,755.334 652.493,742.359 658.524,745.464C660.81,746.641 660.167,754.752 660.16,758.503Z" style="fill:rgb(11,11,11);"/>
        <path d="M330.828,751.502C330.891,750.516 330.84,749.525 330.903,748.539C331.251,743.134 336.826,744.431 337.041,748.546C338.044,767.707 336.783,768.411 335.334,769.221C329.183,772.656 330.805,755.221 330.828,751.502Z" style="fill:rgb(12,11,11);"/>
        <path d="M672.387,329.246C673.313,329.012 681.757,326.877 683.552,333.485C686.3,343.609 658.394,338.515 672.387,329.246Z" style="fill:rgb(253,253,253);"/>
        <path d="M565.405,402.847C551.609,396.973 568.819,392.658 574.301,398.68C574.83,399.261 577.362,405.018 565.405,402.847Z" style="fill:rgb(10,10,11);"/>
        <path d="M693.582,421.072C690.889,420.186 690.895,420.218 690.673,420.115C680.81,415.518 693.776,410.245 700.487,416.514C706.151,421.805 694.242,421.11 693.582,421.072Z" style="fill:rgb(11,11,11);"/>
        <path d="M657.487,733.236C658.019,733.362 664.298,734.842 660.401,739.417C656.476,744.024 648.346,735.873 657.487,733.236Z" style="fill:rgb(12,11,12);"/>
        <path d="M332.293,734.188C332.583,734.053 334.645,733.092 336.274,733.908C337.166,734.355 338.438,736.044 338.204,737.468C337.145,743.927 326.507,739.976 332.293,734.188Z" style="fill:rgb(21,20,20);"/>
    </g>
</svg>
