<?xml version="1.0" encoding="UTF-8" standalone="no"?>
<!DOCTYPE svg PUBLIC "-//W3C//DTD SVG 1.1//EN" "http://www.w3.org/Graphics/SVG/1.1/DTD/svg11.dtd">
<svg width="100%" height="100%" viewBox="0 0 539 537" version="1.1" xmlns="http://www.w3.org/2000/svg" xmlns:xlink="http://www.w3.org/1999/xlink" xml:space="preserve" xmlns:serif="http://www.serif.com/" style="fill-rule:evenodd;clip-rule:evenodd;stroke-linejoin:round;stroke-miterlimit:2;">
    <path d="M225.514,472.074C211.488,471.299 211.54,471.468 197.492,470.698C179.781,469.728 165.596,471.204 164.837,457.466C163.918,440.849 176.892,444.635 176.077,436.545C175.062,426.472 172.908,427.05 170.465,427.182C148.936,428.344 148.989,430.581 127.509,428.377C110.1,426.591 109.697,429.081 84.375,421.952C69.596,417.791 58.945,424.827 53.702,420.255C44.889,412.567 68.816,414.144 69.592,410.534C69.931,408.962 61.799,390.887 61.154,389.688C56.992,381.94 36.167,387.447 23.678,377.264C-9.16,350.49 29.163,307.701 30.069,306.223C32.506,302.247 29.778,302.023 16.722,255.432C11.489,236.758 6.467,230.823 16.098,223.034C20.677,219.33 13.593,217.201 11.841,209.415C7.529,190.26 22.394,185.753 23.401,181.477C25.837,171.137 23.645,168.714 37.376,161.263C41.463,159.045 40.516,158.166 40.922,153.523C42.864,131.333 66.804,129.192 68.594,128.691C70.953,128.031 69.69,127.055 69.901,121.516C70.161,114.709 75.552,104.142 86.683,99.961C106.066,92.681 112.576,104.92 118.096,100.048C119.01,99.242 125.739,93.302 131.539,92.897C144.611,91.983 141.625,83.787 154.571,81.955C173.206,79.318 182.081,93.132 183.957,95.071C189.707,101.016 198.965,85.176 213.668,106.386C216.374,110.29 222.957,106.037 229.463,106.853C258.252,110.465 253.322,134.973 257.621,136.046C270.821,139.338 274.23,138.164 281.831,152.306C284.548,157.36 293.897,155.728 300.012,164.848C308.446,177.427 300.494,189.307 300.425,189.472C299.111,192.591 306.885,192.099 310.006,197.787C314.005,205.075 306.78,266.939 308.116,282.542C308.604,288.239 311.334,285.824 316.278,283.097C323.172,279.294 320.108,258.108 329.732,220.559C339.273,183.331 385.582,155.587 380.663,147.396C371.885,132.78 382.684,127.709 383.101,122.466C384.817,100.87 399.953,106.698 420.481,106.117C428.363,105.894 426.695,76.572 434.824,68.837C443.15,60.914 444.404,59.076 464.476,61.684C492.899,65.377 513.341,62.81 513.662,78.497C514.31,110.207 471.162,88.47 462.772,94.884C459.296,97.54 458.311,109.512 458.313,109.523C458.974,114.38 493.047,113.982 484.496,135.498C482.404,140.761 485.041,140.834 484.875,146.508C484.641,154.494 483.279,154.138 478.674,160.612C477.227,162.646 483.716,169.849 488.173,177.692C514.346,223.755 515.598,231.994 511.963,285.537C510.587,305.795 510.981,306.778 524.289,321.678C549.416,349.811 530.252,375.941 520.391,381.301C507.262,388.438 501.682,380.331 499.978,388.598C495.545,410.111 493.375,409.589 493.587,411.477C493.756,412.988 518.954,416.768 520.072,417.996C523.151,421.38 503.927,420.595 492.502,420.698C475.191,420.854 472.123,428.104 436.492,426.673C412.929,425.727 410.297,422.888 409.264,428.454C407.668,437.052 406.481,439.524 411.391,441.73C421.505,446.276 423.974,463.504 410.594,469.713C403.771,472.879 301.158,475.253 225.514,472.074Z" style="fill:rgb(10,10,9);"/>
    <path d="M329.937,301.539C334.17,267.878 333.331,267.807 339.287,234.46C347.523,188.35 382.307,179.942 395.805,148.618C398.395,142.607 391.363,140.567 390.744,137.445C388.968,128.495 402.394,132.584 404.363,131.274C411.338,126.635 396.824,124.014 394.726,122.215C383.198,112.33 465.024,122.291 472.303,128.74C478.141,133.912 460.788,131.652 459.278,135.401C456.439,142.449 468.664,137.805 471.5,143.5C474.08,148.679 467.413,151.308 466.66,151.768C461.562,154.884 464.028,159.531 465.325,163.553C471.011,181.185 497.837,208.908 500.797,242.475C501.473,250.153 499.781,287.802 496.426,316.49C491.417,359.317 488.149,395.771 481.177,405.255C471.608,418.271 416.847,412.338 412.682,411.006C408.608,409.705 418.5,347.647 412.648,333.435C405.729,316.634 359.124,322.515 343.427,319.859C335.228,318.471 330.655,321.227 328.674,319.312C327.65,318.321 327.967,318.084 329.937,301.539Z" style="fill:rgb(253,253,253);"/>
    <path d="M274.954,247.514C274.389,282.969 275.493,283.215 273.243,288.372C272.603,289.839 276.528,319.079 272.55,319.723C266.539,320.696 266.52,319.134 196.478,322.15C159.331,323.749 169.092,345.121 172.464,403.502C172.956,412.033 168.95,409.775 160.542,410.816C143.921,412.876 143.217,411.765 142.443,410.541C138.587,404.448 123.502,337.041 122.06,330.601C121.171,326.627 116.093,299.277 111.375,308.424C109.925,311.235 110.386,311.454 117.916,347.41C122.108,367.432 129.415,394.433 130.515,398.496C132.166,404.599 134.337,411.359 130.529,411.705C126.86,412.038 111.404,412.022 108.881,409.172C106.913,406.949 86.179,352.907 75.614,312.469C64.514,269.976 67.18,269.186 50.62,228.45C47.698,221.263 50.198,220.402 59.424,217.282C93.499,205.755 93.726,218.575 95.287,225.55C96.271,229.946 99.919,253.624 103.756,248.712C107.169,244.342 99.907,217.402 102.84,213.773C111.061,203.607 156.817,198.942 159.852,214.415C162.823,229.564 168.183,218.243 168.395,217.472C169.007,215.235 166.225,198.411 208.5,198.69C236.277,198.874 229.316,210.18 231.457,220.51C232.512,225.604 236.12,228.78 238.177,222.392C240.97,213.714 232.078,196.777 253.488,196.154C276.282,195.49 276.341,199.624 276.368,201.504C276.42,205.127 275.092,232.836 274.954,247.514Z" style="fill:rgb(253,253,253);"/>
    <path d="M184.038,390.516C183.726,387.24 181.341,362.164 180.994,349.494C180.828,343.432 181.288,339.466 185.665,336.783C196.407,330.199 334.115,332.133 340.504,332.307C391.129,333.686 398.09,334.435 401.11,339.742C405.382,347.249 397.674,439.28 393.817,442.854C390.051,446.344 261.731,446.518 251.51,446.085C193.208,443.612 190.306,446.526 188.856,440.405C187.872,436.249 184.277,395.123 184.038,390.516Z" style="fill:rgb(253,253,253);"/>
    <path d="M72.448,138.914C75.15,139.535 83.898,142.657 83.836,137.492C83.812,135.455 71.437,117.117 91.595,108.75C103.222,103.925 125.979,115.845 111.415,133.431C102.337,144.391 103.507,145.97 98.494,147.485C92.353,149.341 77.411,150.879 73.293,167.452C70.981,176.757 77.774,182.503 80.699,174.579C81.972,171.13 82.399,160.434 96.534,157.663C100.37,156.911 108.328,158.553 110.578,152.536C112.201,148.193 114.269,138.023 126.469,134.395C138.065,130.946 151.835,136.615 148.795,147.573C148.626,148.182 146.868,154.52 147.628,155.393C149.475,157.513 164.112,148.346 173.163,158.787C179.7,166.328 173.034,178.951 184.431,175.32C199.66,170.467 199.196,191.266 183.501,191.555C177.972,191.656 175.648,186.332 166.789,191.939C164.951,193.101 158.404,198.985 147.435,196.841C134.753,194.363 138.355,186.446 131.47,185.706C115.301,183.969 116.753,204.162 95.512,202.377C81.574,201.206 81.127,181.922 75.686,189.617C74.845,190.806 74.307,204.66 61.458,203.853C57.567,203.609 47.16,194.535 41.952,204.741C40.765,207.068 39.443,212.718 32.462,214.274C23.274,216.323 11.496,197.18 31.376,191.068C40.891,188.143 26.271,173.304 41.554,170.821C45.899,170.115 53.696,174.118 53.172,167.54C53.131,167.021 41.975,144.56 66.567,138.896C67.435,138.696 67.347,138.794 72.448,138.914Z" style="fill:rgb(253,253,253);"/>
    <path d="M133.496,124.046C131.523,124.092 122.646,126.712 122.973,112.513C123.104,106.803 129.036,100.879 134.187,105.821C143.497,114.752 141.615,100.223 148.886,94.998C154.168,91.204 172.812,86.514 177.82,107.421C180.812,119.912 187.127,107.815 190.492,106.483C191.897,105.927 206.004,101.504 205.911,118.505C205.846,130.369 215.294,117.944 224.461,117.136C242.663,115.53 247.561,130.094 245.088,137.371C242.878,143.874 240.599,144.459 243.679,147.284C247.302,150.608 272.591,137.694 272.868,161.476C272.972,170.459 292.006,160.236 294.382,176.519C295.383,183.379 286.395,194.784 280.102,183.725C272.468,170.31 261.698,186.986 252.548,186.046C241.057,184.864 246.329,173.497 235.354,167.763C228.457,164.159 226.587,164.272 227.301,156.489C228.847,139.622 194.025,139.607 202.792,148.201C206.016,151.362 218.246,148.945 221.596,159.466C222.876,163.484 214.43,173.363 224.475,173.87C245.484,174.929 235.896,197.378 221.614,190.275C216.02,187.493 216.733,185.86 210.554,185.012C199.618,183.51 209.512,169.891 192.452,165.727C186.048,164.164 185.881,163.704 183.153,157.657C177.24,144.546 164.347,146.403 162.345,141.578C157.987,131.071 156.123,124.788 133.496,124.046Z" style="fill:rgb(253,253,253);"/>
    <path d="M458.468,234.933C457.68,234.808 451.098,233.865 450.457,233.773C368.86,222.086 355.329,222.843 353.769,218.426C351.934,213.233 365.853,196.014 379.972,181.952C390.921,171.047 394.448,178.434 403.555,181.154C407.288,182.269 411.336,156.909 411.458,155.498C411.8,151.507 407.085,151.857 404.614,148.42C399.256,140.968 417.04,144.486 422.504,145.477C445.341,149.619 452.68,147.253 456.277,150.736C462.452,156.715 447.573,156.759 444.754,159.734C440.194,164.546 436.326,186.193 435.902,188.569C434.446,196.716 462.003,187.357 465.454,187.08C473.18,186.46 488.321,221.915 490.172,229.583C493.432,243.09 482.119,237.453 458.468,234.933Z" style="fill:rgb(12,12,12);"/>
    <path d="M419.094,397.493C419.739,386.911 424.481,358.572 425.737,345.521C427.069,331.687 433.191,336.929 446.516,337.116C478.981,337.573 483.166,329.767 484.569,337.487C485.096,340.386 479.6,377.929 479.087,381.434C476.639,398.155 476.581,404.983 444.503,404.874C421.05,404.794 419.573,403.168 419.094,397.493Z" style="fill:rgb(14,14,14);"/>
    <path d="M71.919,328.385C94.652,404.093 102.635,409.674 95.576,408.067C78.978,404.288 80.461,400.78 70.776,378.381C62.343,358.878 21.086,237.869 24.464,232.469C25.184,231.318 40.081,222.705 42.384,224.647C48.673,229.95 65.203,305.571 71.919,328.385Z" style="fill:rgb(253,253,253);"/>
    <path d="M259.086,397.5C259.107,367.481 258.497,361.952 262.481,359.474C266.887,356.734 268.117,357.691 287.417,367.659C324.065,386.587 333.249,389.273 328.397,396.435C324.967,401.498 271.193,428.353 270.555,428.636C257.077,434.611 259.128,413.262 259.086,397.5Z" style="fill:rgb(15,15,15);"/>
    <path d="M272.841,86.332C262.732,65.952 280.358,59.423 283.574,58.867C298.281,56.323 303.823,69.043 305.703,71.297C307.819,73.835 307.602,70.898 309.836,67.746C310.759,66.442 317.359,57.128 327.506,58.44C349.693,61.309 346.419,87.177 322.103,107.047C308.305,118.321 307.481,120.446 302.835,117.044C280.79,100.898 274.486,89.347 272.841,86.332Z" style="fill:rgb(14,14,14);"/>
    <path d="M294.941,300.502C294.814,309.717 295.602,319.424 291.512,319.648C284.843,320.012 282.274,319.794 282.137,317.551C281.899,313.635 282.752,313.706 282.416,268.501C282.376,263.117 281.937,204.085 284.105,201.229C285.725,199.095 298.81,202.431 299.096,206.531C299.408,211.01 296.358,261.156 294.941,300.502Z" style="fill:rgb(252,252,252);"/>
    <path d="M20.924,343.562C22.819,334.925 24.423,330.507 31.077,322.161C31.654,321.437 34.755,316.397 36.177,319.663C37.605,322.942 53.654,368.948 53.788,369.441C55.413,375.436 18.586,376.864 20.924,343.562Z" style="fill:rgb(253,253,253);"/>
    <path d="M507.922,330.515C508.239,326.53 508.173,318.868 513.142,322.948C538.592,343.845 525.339,374.505 506.56,372.13C500.23,371.329 504.71,367.857 507.922,330.515Z" style="fill:rgb(253,253,253);"/>
    <path d="M225.495,452.92C228.922,452.932 266.779,453.062 268.323,453.93C268.701,454.143 272.491,462.845 264.498,462.771C258.849,462.719 185.817,461.488 180.597,460.135C176.937,459.187 171.779,451.889 183.5,451.821C204.244,451.7 222.14,452.728 225.495,452.92Z" style="fill:rgb(253,253,253);"/>
    <path d="M418.892,163.576C420.74,156.61 420.737,156.617 420.74,156.61C421.896,154.171 431.365,156.503 432.261,156.973C435.92,158.891 427.247,186.747 426.35,188.42C425.568,189.88 411.057,203.672 418.897,210.02C431.554,220.269 398.342,220.482 405.771,210.696C410.94,203.886 409.28,203.116 418.892,163.576Z" style="fill:rgb(253,253,253);"/>
    <path d="M143.094,280.503C139.064,310.452 107.024,288.071 119.65,270.606C125.465,262.562 141.113,262.235 143.094,280.503Z" style="fill:rgb(13,13,13);"/>
    <path d="M236.475,283.819C221.506,280.88 221.888,262.011 230.678,256.779C250.077,245.235 260.898,283.27 236.475,283.819Z" style="fill:rgb(11,11,11);"/>
    <path d="M380.081,262.545C380.432,289.011 349.063,281.424 355.408,260.468C357.948,252.077 374.161,241.945 380.081,262.545Z" style="fill:rgb(11,11,11);"/>
    <path d="M464.657,288.664C448.075,303.079 435.703,272.19 452.451,264.406C465.278,258.445 476.386,276.435 464.657,288.664Z" style="fill:rgb(12,12,12);"/>
    <path d="M437.152,89.411C437.365,88.626 439.49,80.815 439.85,79.607C445.362,61.086 458.098,76.565 458.817,81.45C459.999,89.476 451.294,79.688 449.497,79.551C444.474,79.165 454.413,88.625 452.2,90.069C451.469,90.545 439.7,87.518 447.794,93.1C452.738,96.509 451.064,97.632 449.747,103.557C447.635,113.056 445.11,112.62 435.571,111.091C431.748,110.478 432.534,108.593 437.152,89.411Z" style="fill:rgb(253,253,253);"/>
    <path d="M420.571,288.575C421.863,287.242 421.8,287.268 422.888,285.796C427.989,278.897 432.811,283.841 431.715,287.555C427.355,302.326 397.808,308.534 389.832,287.365C385.873,276.859 395.272,274.519 397.233,281.575C402.961,302.182 419.028,289.767 420.571,288.575Z" style="fill:rgb(10,10,10);"/>
    <path d="M165.3,291.644C165.056,291.227 162.884,287.519 163.956,285.754C168.159,278.833 173.331,292.007 181.441,294.694C195.999,299.517 199.383,280.573 203.469,279.401C218.84,274.992 193.685,326.539 165.3,291.644Z" style="fill:rgb(10,11,10);"/>
    <path d="M282.517,453.904C300.341,453.842 307.255,452.938 308.598,457.47C310.712,464.6 301.225,463.124 281.501,463.192C275.139,463.213 272.083,455.004 282.517,453.904Z" style="fill:rgb(252,252,251);"/>
    <path d="M447.5,139.103C444.707,138.768 414.549,135.15 412.837,133.196C412.371,132.663 408.644,126.08 420.454,128.68C427.424,130.215 450.622,131.478 452.295,133.639C452.607,134.041 453.256,135.876 451.652,137.632C450.145,139.282 448.324,139.012 447.5,139.103Z" style="fill:rgb(7,8,7);"/>
    <path d="M491.515,87.102C488.32,86.847 484.421,87.699 484.385,83.503C484.305,74.26 483.665,73.319 485.484,73.325C495.823,73.361 506.272,73.996 505.504,81.5C504.649,89.848 493.328,87.198 491.515,87.102Z" style="fill:rgb(253,253,253);"/>
    <path d="M306.839,303.522C307.153,301.549 307.125,301.556 307.178,301.391C308.448,297.409 315.992,295.774 316.473,295.892C318.071,296.282 319.2,296.888 316.202,316.451C315.629,320.195 311.62,319.665 308.493,319.56C305.713,319.467 306.624,312.001 306.839,303.522Z" style="fill:rgb(252,252,253);"/>
    <path d="M472.487,84.852C471.444,84.738 465.836,85 464.405,82.562C458.401,72.33 457.142,73.332 456.671,72.428C456.01,71.16 457.185,70.299 474.531,72.226C479.051,72.727 480.447,73.067 479.302,77.449C477.113,85.827 475.019,84.555 472.487,84.852Z" style="fill:rgb(252,252,252);"/>
    <path d="M133.6,178.91C132.058,179.14 127.381,180.923 124.934,177.227C121.269,171.69 137.638,162.606 140.266,163.987C143.382,165.625 144.719,175.125 133.6,178.91Z" style="fill:rgb(8,8,8);"/>
    <path d="M455.679,359.364C465.189,374.666 454.481,378.589 450.763,373.331C448.344,369.909 447.358,350.38 455.679,359.364Z" style="fill:rgb(253,253,253);"/>
    <path d="M452.387,213.246C453.313,213.012 461.757,210.877 463.552,217.485C466.3,227.609 438.394,222.515 452.387,213.246Z" style="fill:rgb(253,253,253);"/>
    <path d="M345.405,286.847C331.609,280.973 348.819,276.658 354.301,282.68C354.83,283.261 357.362,289.018 345.405,286.847Z" style="fill:rgb(10,10,11);"/>
    <path d="M473.582,305.072C470.889,304.186 470.895,304.218 470.673,304.115C460.81,299.518 473.776,294.245 480.487,300.514C486.151,305.805 474.242,305.11 473.582,305.072Z" style="fill:rgb(11,11,11);"/>
</svg>
