<?xml version="1.0" encoding="UTF-8" standalone="no"?>
<!DOCTYPE svg PUBLIC "-//W3C//DTD SVG 1.1//EN" "http://www.w3.org/Graphics/SVG/1.1/DTD/svg11.dtd">
<svg width="100%" height="100%" viewBox="0 0 702 701" version="1.1" xmlns="http://www.w3.org/2000/svg" xmlns:xlink="http://www.w3.org/1999/xlink" xml:space="preserve" xmlns:serif="http://www.serif.com/" style="fill-rule:evenodd;clip-rule:evenodd;stroke-linejoin:round;stroke-miterlimit:2;">
    <g id="Background">
        <path d="M284.514,459.074C270.488,458.299 270.54,458.468 256.492,457.698C238.781,456.728 224.596,458.204 223.837,444.466C222.918,427.849 235.892,431.635 235.077,423.545C234.062,413.472 231.908,414.05 229.465,414.182C207.936,415.344 207.989,417.581 186.509,415.377C169.1,413.591 168.697,416.081 143.375,408.952C128.596,404.791 117.945,411.827 112.702,407.255C103.889,399.567 127.816,401.144 128.592,397.534C128.931,395.962 120.799,377.887 120.154,376.688C115.992,368.94 95.167,374.447 82.678,364.264C49.84,337.49 88.163,294.701 89.069,293.223C91.506,289.247 88.778,289.023 75.722,242.432C70.489,223.758 65.467,217.823 75.098,210.034C79.677,206.33 72.593,204.201 70.841,196.415C66.529,177.26 81.394,172.753 82.401,168.477C84.837,158.137 82.645,155.714 96.376,148.263C100.463,146.045 99.516,145.166 99.922,140.523C101.864,118.333 125.804,116.192 127.594,115.691C129.953,115.031 128.69,114.055 128.901,108.516C129.161,101.709 134.552,91.142 145.683,86.961C165.066,79.681 171.576,91.92 177.096,87.048C178.01,86.242 184.739,80.302 190.539,79.897C203.611,78.983 200.625,70.787 213.571,68.955C232.206,66.318 241.081,80.132 242.957,82.071C248.707,88.016 257.965,72.176 272.668,93.386C275.374,97.29 281.957,93.037 288.463,93.853C317.252,97.465 312.322,121.973 316.621,123.046C329.821,126.338 333.23,125.164 340.831,139.306C343.548,144.36 352.897,142.728 359.012,151.848C367.446,164.427 359.494,176.307 359.425,176.472C358.111,179.591 365.885,179.099 369.006,184.787C373.005,192.075 365.78,253.939 367.116,269.542C367.604,275.239 370.334,272.824 375.278,270.097C382.172,266.294 379.108,245.108 388.732,207.559C398.273,170.331 444.582,142.587 439.663,134.396C430.885,119.78 441.684,114.709 442.101,109.466C443.817,87.87 458.953,93.698 479.481,93.117C487.363,92.894 485.695,63.572 493.824,55.837C502.15,47.914 503.404,46.076 523.476,48.684C551.899,52.377 572.341,49.81 572.662,65.497C573.31,97.207 530.162,75.47 521.772,81.884C518.296,84.54 517.311,96.512 517.313,96.523C517.974,101.38 552.047,100.982 543.496,122.498C541.404,127.761 544.041,127.834 543.875,133.508C543.641,141.494 542.279,141.138 537.674,147.612C536.227,149.646 542.716,156.849 547.173,164.692C573.346,210.755 574.598,218.994 570.963,272.537C569.587,292.795 569.981,293.778 583.289,308.678C608.416,336.811 589.252,362.941 579.391,368.301C566.262,375.438 560.682,367.331 558.978,375.598C554.545,397.111 552.375,396.589 552.587,398.477C552.756,399.988 577.954,403.768 579.072,404.996C582.151,408.38 562.927,407.595 551.502,407.698C534.191,407.854 531.123,415.104 495.492,413.673C471.929,412.727 469.297,409.888 468.264,415.454C466.668,424.052 465.481,426.524 470.391,428.73C480.505,433.276 482.974,450.504 469.594,456.713C462.771,459.879 360.158,462.253 284.514,459.074Z" style="fill:rgb(10,10,9);"/>
        <path d="M388.937,288.539C393.17,254.878 392.331,254.807 398.287,221.46C406.523,175.35 441.307,166.942 454.805,135.618C457.395,129.607 450.363,127.567 449.744,124.445C447.968,115.495 461.394,119.584 463.363,118.274C470.338,113.635 455.824,111.014 453.726,109.215C442.198,99.33 524.024,109.291 531.303,115.74C537.141,120.912 519.788,118.652 518.278,122.401C515.439,129.449 527.664,124.805 530.5,130.5C533.08,135.679 526.413,138.308 525.66,138.768C520.562,141.884 523.028,146.531 524.325,150.553C530.011,168.185 556.837,195.908 559.797,229.475C560.473,237.153 558.781,274.802 555.426,303.49C550.417,346.317 547.149,382.771 540.177,392.255C530.608,405.271 475.847,399.338 471.682,398.006C467.608,396.705 477.5,334.647 471.648,320.435C464.729,303.634 418.124,309.515 402.427,306.859C394.228,305.471 389.655,308.227 387.674,306.312C386.65,305.321 386.967,305.084 388.937,288.539Z" style="fill:rgb(253,253,253);"/>
        <path d="M333.954,234.514C333.389,269.969 334.493,270.215 332.243,275.372C331.603,276.839 335.528,306.079 331.55,306.723C325.539,307.696 325.52,306.134 255.478,309.15C218.331,310.749 228.092,332.121 231.464,390.502C231.956,399.033 227.95,396.775 219.542,397.816C202.921,399.876 202.217,398.765 201.443,397.541C197.587,391.448 182.502,324.041 181.06,317.601C180.171,313.627 175.093,286.277 170.375,295.424C168.925,298.235 169.386,298.454 176.916,334.41C181.108,354.432 188.415,381.433 189.515,385.496C191.166,391.599 193.337,398.359 189.529,398.705C185.86,399.038 170.404,399.022 167.881,396.172C165.913,393.949 145.179,339.907 134.614,299.469C123.514,256.976 126.18,256.186 109.62,215.45C106.698,208.263 109.198,207.402 118.424,204.282C152.499,192.755 152.726,205.575 154.287,212.55C155.271,216.946 158.919,240.624 162.756,235.712C166.169,231.342 158.907,204.402 161.84,200.773C170.061,190.607 215.817,185.942 218.852,201.415C221.823,216.564 227.183,205.243 227.395,204.472C228.007,202.235 225.225,185.411 267.5,185.69C295.277,185.874 288.316,197.18 290.457,207.51C291.512,212.604 295.12,215.78 297.177,209.392C299.97,200.714 291.078,183.777 312.488,183.154C335.282,182.49 335.341,186.624 335.368,188.504C335.42,192.127 334.092,219.836 333.954,234.514Z" style="fill:rgb(253,253,253);"/>
        <path d="M243.038,377.516C242.726,374.24 240.341,349.164 239.994,336.494C239.828,330.432 240.288,326.466 244.665,323.783C255.407,317.199 393.115,319.133 399.504,319.307C450.129,320.686 457.09,321.435 460.11,326.742C464.382,334.249 456.674,426.28 452.817,429.854C449.051,433.344 320.731,433.518 310.51,433.085C252.208,430.612 249.306,433.526 247.856,427.405C246.872,423.249 243.277,382.123 243.038,377.516Z" style="fill:rgb(253,253,253);"/>
        <path d="M131.448,125.914C134.15,126.535 142.898,129.657 142.836,124.492C142.812,122.455 130.437,104.117 150.595,95.75C162.222,90.925 184.979,102.845 170.415,120.431C161.337,131.391 162.507,132.97 157.494,134.485C151.353,136.341 136.411,137.879 132.293,154.452C129.981,163.757 136.774,169.503 139.699,161.579C140.972,158.13 141.399,147.434 155.534,144.663C159.37,143.911 167.328,145.553 169.578,139.536C171.201,135.193 173.269,125.023 185.469,121.395C197.065,117.946 210.835,123.615 207.795,134.573C207.626,135.182 205.868,141.52 206.628,142.393C208.475,144.513 223.112,135.346 232.163,145.787C238.7,153.328 232.034,165.951 243.431,162.32C258.66,157.467 258.196,178.266 242.501,178.555C236.972,178.656 234.648,173.332 225.789,178.939C223.951,180.101 217.404,185.985 206.435,183.841C193.753,181.363 197.355,173.446 190.47,172.706C174.301,170.969 175.753,191.162 154.512,189.377C140.574,188.206 140.127,168.922 134.686,176.617C133.845,177.806 133.307,191.66 120.458,190.853C116.567,190.609 106.16,181.535 100.952,191.741C99.765,194.068 98.443,199.718 91.462,201.274C82.274,203.323 70.496,184.18 90.376,178.068C99.891,175.143 85.271,160.304 100.554,157.821C104.899,157.115 112.696,161.118 112.172,154.54C112.131,154.021 100.975,131.56 125.567,125.896C126.435,125.696 126.347,125.794 131.448,125.914Z" style="fill:rgb(253,253,253);"/>
        <path d="M44.039,509.512C43.855,483.949 43.246,483.87 44.419,480.471C46.9,473.284 100.119,463.79 109.218,490.6C114.931,507.434 100.822,520.297 100.826,520.485C100.856,521.721 121.113,526.747 120.827,547.501C120.231,590.66 57.322,585.819 51.704,582.165C44.416,577.423 45.61,543.12 44.039,509.512ZM77.447,567.072C79.235,566.645 93.018,563.359 96.76,554.61C106.096,532.781 69.263,530.937 67.312,537.439C66.888,538.851 68.139,561.516 68.388,563.518C69.005,568.474 74.276,567.135 77.447,567.072ZM66.212,508.504C66.463,517.092 65.257,521.902 73.393,519.185C103.456,509.146 87.668,483.923 68.591,488.827C64.413,489.901 65.365,492.362 66.212,508.504Z" style="fill:rgb(14,14,13);"/>
        <path d="M305.502,583.095C302.8,582.978 289.515,583.224 285.786,579.236C279.375,572.381 281.491,485.035 283.272,479.404C285.125,473.545 347.194,463.071 347.837,498.493C348.18,517.386 332.882,518.981 340.29,521.956C362.932,531.047 361.468,558.116 348.106,570.071C331.738,584.714 309.604,583.058 305.502,583.095ZM314.579,565.922C316.28,565.523 329.553,562.406 333.068,554.308C342.34,532.945 310.161,531.435 304.832,534.995C302.803,536.351 304.222,563.475 304.23,563.548C304.713,567.891 314.514,565.928 314.579,565.922ZM321.664,491.231C319.086,489.852 319.23,489.615 316.381,488.977C301.603,485.668 303.75,492.698 303.755,493.498C303.874,515.557 303.142,519.166 306.507,519.059C321.946,518.572 336.117,502.137 321.664,491.231Z" style="fill:rgb(14,14,14);"/>
        <path d="M192.496,111.046C190.523,111.092 181.646,113.712 181.973,99.513C182.104,93.803 188.036,87.879 193.187,92.821C202.497,101.752 200.615,87.223 207.886,81.998C213.168,78.204 231.812,73.514 236.82,94.421C239.812,106.912 246.127,94.815 249.492,93.483C250.897,92.927 265.004,88.504 264.911,105.505C264.846,117.369 274.294,104.944 283.461,104.136C301.663,102.53 306.561,117.094 304.088,124.371C301.878,130.874 299.599,131.459 302.679,134.284C306.302,137.608 331.591,124.694 331.868,148.476C331.972,157.459 351.006,147.236 353.382,163.519C354.383,170.379 345.395,181.784 339.102,170.725C331.468,157.31 320.698,173.986 311.548,173.046C300.057,171.864 305.329,160.497 294.354,154.763C287.457,151.159 285.587,151.272 286.301,143.489C287.847,126.622 253.025,126.607 261.792,135.201C265.016,138.362 277.246,135.945 280.596,146.466C281.876,150.484 273.43,160.363 283.475,160.87C304.484,161.929 294.896,184.378 280.614,177.275C275.02,174.493 275.733,172.86 269.554,172.012C258.618,170.51 268.512,156.891 251.452,152.727C245.048,151.164 244.881,150.704 242.153,144.657C236.24,131.546 223.347,133.403 221.345,128.578C216.987,118.071 215.123,111.788 192.496,111.046Z" style="fill:rgb(253,253,253);"/>
        <path d="M517.468,221.933C516.68,221.808 510.098,220.865 509.457,220.773C427.86,209.086 414.329,209.843 412.769,205.426C410.934,200.233 424.853,183.014 438.972,168.952C449.921,158.047 453.448,165.434 462.555,168.154C466.288,169.269 470.336,143.909 470.458,142.498C470.8,138.507 466.085,138.857 463.614,135.42C458.256,127.968 476.04,131.486 481.504,132.477C504.341,136.619 511.68,134.253 515.277,137.736C521.452,143.715 506.573,143.759 503.754,146.734C499.194,151.546 495.326,173.193 494.902,175.569C493.446,183.716 521.003,174.357 524.454,174.08C532.18,173.46 547.321,208.915 549.172,216.583C552.432,230.09 541.119,224.453 517.468,221.933Z" style="fill:rgb(12,12,12);"/>
        <path d="M231.505,579.884C176.154,577.446 184.551,500.67 211.711,483.845C224.515,475.914 267.467,468.117 272.348,525.512C272.616,528.666 274.416,549.832 264.076,564.204C253.063,579.511 234.827,579.68 231.505,579.884ZM243.574,503.433C241.63,501.396 241.798,501.263 239.3,499.848C210.613,483.611 204.52,551.532 225.505,559.49C252.461,569.714 257.387,521.512 243.574,503.433Z" style="fill:rgb(14,14,13);"/>
        <path d="M507.438,562.998C507.263,563.149 506.937,562.694 506.763,562.845C506.205,563.329 507.473,564.277 501.295,570.285C485.958,585.199 462.861,574.04 467.89,540.573C470.582,522.65 485.066,504.471 505.426,512.753C508.062,513.825 506.904,511.366 507.62,491.501C508.212,475.082 505.303,468.937 516.499,468.684C530.591,468.366 522.28,477.62 523.228,564.505C523.236,565.218 525.682,577.877 514.466,576.73C507.806,576.049 508.169,564.753 508.207,563.589L507.438,562.998ZM498.535,523.899C479.694,528.912 480.931,558.763 490.557,561.254C503.654,564.642 514.412,524.736 500.474,523.885C499.828,523.846 499.18,523.939 498.535,523.899Z" style="fill:rgb(13,14,13);"/>
        <path d="M478.094,384.493C478.739,373.911 483.481,345.572 484.737,332.521C486.069,318.687 492.191,323.929 505.516,324.116C537.981,324.573 542.166,316.767 543.569,324.487C544.096,327.386 538.6,364.929 538.087,368.434C535.639,385.155 535.581,391.983 503.503,391.874C480.05,391.794 478.573,390.168 478.094,384.493Z" style="fill:rgb(14,14,14);"/>
        <path d="M130.919,315.385C153.652,391.093 161.635,396.674 154.576,395.067C137.978,391.288 139.461,387.78 129.776,365.381C121.343,345.878 80.086,224.869 83.464,219.469C84.184,218.318 99.081,209.705 101.384,211.647C107.673,216.95 124.203,292.571 130.919,315.385Z" style="fill:rgb(253,253,253);"/>
        <path d="M153.911,520.114C155.218,520.127 155.188,520.027 155.881,518.856C166.67,500.623 171.808,484.717 172.814,481.602C176.768,469.364 191.912,479.831 192.968,484.386C194.948,492.924 170.672,533.17 167.854,537.72C161.742,547.59 164.862,548.445 164.84,563.503C164.819,577.463 164.484,581.311 150.499,581.288C136.902,581.266 142.43,573.877 142.177,544.51C142.141,540.338 125.67,511.816 116.567,490.475C112.113,480.032 128.899,475.164 134.527,478.458C137.7,480.315 137.467,480.756 153.911,520.114Z" style="fill:rgb(14,14,13);"/>
        <path d="M625.505,512.084C629.235,512.505 650.024,512.259 655.186,535.568C662.39,568.099 635.28,591.421 608.695,577.137C585.834,564.853 586.435,517.313 622.46,512.201C623.466,512.058 624.499,512.227 625.505,512.084ZM622.406,528.112C603.305,534.296 612.593,577.107 630.344,564.277C641.138,556.476 641.929,525.493 622.406,528.112Z" style="fill:rgb(14,14,13);"/>
        <path d="M318.086,384.5C318.107,354.481 317.497,348.952 321.481,346.474C325.887,343.734 327.117,344.691 346.417,354.659C383.065,373.587 392.249,376.273 387.397,383.435C383.967,388.498 330.193,415.353 329.555,415.636C316.077,421.611 318.128,400.262 318.086,384.5Z" style="fill:rgb(15,15,15);"/>
        <path d="M331.841,73.332C321.732,52.952 339.358,46.423 342.574,45.867C357.281,43.323 362.823,56.043 364.703,58.297C366.819,60.835 366.602,57.898 368.836,54.746C369.759,53.442 376.359,44.128 386.506,45.44C408.693,48.309 405.419,74.177 381.103,94.047C367.305,105.321 366.481,107.446 361.835,104.044C339.79,87.898 333.486,76.347 331.841,73.332Z" style="fill:rgb(14,14,14);"/>
        <path d="M531.084,554.541C530.505,548.022 530.465,548.066 530.459,547.501C529.961,502.932 580.288,503.503 586.62,527.467C593.572,553.778 559.72,549.969 550.545,550.877C546.167,551.31 549.217,557.194 550.994,559.01C564.078,572.383 585.072,553.085 587.57,560.475C592.808,575.97 539.173,593.804 531.084,554.541ZM551.578,529.559C546.863,537.036 548.793,539.757 550.448,539.836C553.168,539.967 576.313,542.488 569.658,529.414C567.346,524.872 562.251,524.656 561.494,524.624C556.479,524.412 552.189,528.918 551.578,529.559Z" style="fill:rgb(13,13,13);"/>
        <path d="M405.958,557.179C407.011,557.198 407.263,557.507 407.517,556.512C408.343,553.274 412.419,537.305 419.313,516.435C422.112,507.962 429.476,510.555 429.481,510.557C440.821,514.868 435.481,523.291 433.416,528.465C415.932,572.265 415.334,578.908 404.543,577.174C396.98,575.958 396.377,572.717 394.816,568.392C386.867,546.357 387.211,546.322 378.986,524.327C373.706,510.207 390.146,511.399 393.256,513.836C397.744,517.353 405.659,555.325 405.958,557.179Z" style="fill:rgb(14,14,13);"/>
        <path d="M353.941,287.502C353.814,296.717 354.602,306.424 350.512,306.648C343.843,307.012 341.274,306.794 341.137,304.551C340.899,300.635 341.752,300.706 341.416,255.501C341.376,250.117 340.937,191.085 343.105,188.229C344.725,186.095 357.81,189.431 358.096,193.531C358.408,198.01 355.358,248.156 353.941,287.502Z" style="fill:rgb(252,252,252);"/>
        <path d="M79.924,330.562C81.819,321.925 83.423,317.507 90.077,309.161C90.654,308.437 93.755,303.397 95.177,306.663C96.605,309.942 112.654,355.948 112.788,356.441C114.413,362.436 77.586,363.864 79.924,330.562Z" style="fill:rgb(253,253,253);"/>
        <path d="M442.953,552.502C443.749,522.832 440.437,513.65 449.531,512.755C463.664,511.365 460.316,528.155 460.308,528.494C459.241,571.625 460.383,574.249 454.441,575.228C440.573,577.513 442.999,569.617 442.953,552.502Z" style="fill:rgb(13,13,13);"/>
        <path d="M369.502,603.084C393.87,606.213 384.066,650.663 362.664,640.158C351.209,634.535 351.484,604.785 369.502,603.084ZM372.581,634.614C379.646,628.113 376.904,614.004 373.291,610.732C360.508,599.157 355.615,643.329 372.581,634.614Z" style="fill:rgb(13,13,13);"/>
        <path d="M566.922,317.515C567.239,313.53 567.173,305.868 572.142,309.948C597.592,330.845 584.339,361.505 565.56,359.13C559.23,358.329 563.71,354.857 566.922,317.515Z" style="fill:rgb(253,253,253);"/>
        <path d="M284.495,439.92C287.922,439.932 325.779,440.062 327.323,440.93C327.701,441.143 331.491,449.845 323.498,449.771C317.849,449.719 244.817,448.488 239.597,447.135C235.937,446.187 230.779,438.889 242.5,438.821C263.244,438.7 281.14,439.728 284.495,439.92Z" style="fill:rgb(253,253,253);"/>
        <path d="M129.502,602.096C130.894,602.234 146.219,603.75 139.448,616.471C138.196,618.823 137.063,619.44 139.366,620.711C148.145,625.556 143.32,642.809 123.518,641.254C118.594,640.867 119.317,638.675 119.35,618.5C119.366,608.237 118.299,603.531 122.539,602.691C125.259,602.152 125.236,602.341 129.502,602.096ZM134.489,633.486C136.403,631.248 137.175,631.44 136.873,628.456C136.629,626.06 134.329,624.304 133.324,624C125.421,621.61 125.244,625.308 125.574,633.495C125.789,638.837 133.881,633.86 134.489,633.486ZM134.789,611.47C134.62,610.953 133.489,607.488 129.526,607.173C125.913,606.886 125.094,609.504 125.827,617.448C126.003,619.352 128.316,618.741 128.547,618.68C134.245,617.173 134.716,612.23 134.789,611.47Z" style="fill:rgb(12,12,12);"/>
        <path d="M473.51,601.968C474.431,602.078 482.194,603.003 484.077,606.731C486.165,610.866 484.622,615.294 483.087,617.2C480.435,620.495 484.598,619.735 486.575,623.456C494.732,638.809 464.606,646.381 463.769,638.456C462.695,628.288 463.754,608.165 463.893,605.535C464.072,602.125 470.518,602.275 473.51,601.968ZM469.958,629.505C469.956,630.584 468.235,639.232 477.291,634.154C484.361,630.189 479.585,621.639 471.633,623.99C470.258,624.396 469.985,629.044 469.958,629.505ZM477.418,608.585L475.536,607.404C468.747,605.018 470.047,609.325 470.121,616.522C470.174,621.658 482.441,616.786 477.418,608.585Z" style="fill:rgb(11,11,11);"/>
        <path d="M477.892,150.576C479.74,143.61 479.737,143.617 479.74,143.61C480.896,141.171 490.365,143.503 491.261,143.973C494.92,145.891 486.247,173.747 485.35,175.42C484.568,176.88 470.057,190.672 477.897,197.02C490.554,207.269 457.342,207.482 464.771,197.696C469.94,190.886 468.28,190.116 477.892,150.576Z" style="fill:rgb(253,253,253);"/>
        <path d="M202.094,267.503C198.064,297.452 166.024,275.071 178.65,257.606C184.465,249.562 200.113,249.235 202.094,267.503Z" style="fill:rgb(13,13,13);"/>
        <path d="M295.475,270.819C280.506,267.88 280.888,249.011 289.678,243.779C309.077,232.235 319.898,270.27 295.475,270.819Z" style="fill:rgb(11,11,11);"/>
        <path d="M551.021,643.399C550.735,644.24 548.441,656.084 534.523,652.426C530.04,651.249 531.442,647.473 534.5,647.504C535.205,647.511 541.634,647.577 543.207,646.161C546.287,643.387 547.602,635.484 544.477,638.458C535.747,646.766 524.244,630.61 534.605,619.598C538.886,615.047 552.114,612.297 552.402,622.503C552.708,633.354 551.299,641.747 551.021,643.399ZM539.604,622.603C532.491,632.207 541.495,639.543 545.283,631.405C546.41,628.986 549.897,615.05 539.604,622.603Z" style="fill:rgb(13,13,13);"/>
        <path d="M209.628,637.403C201.266,623.024 218.037,610.936 227.545,617.447C230.632,619.561 228.941,637.081 228.138,641.435C224.965,658.626 209.796,652.222 208.827,651.182C205.21,647.301 214.895,647.731 215.494,647.757C222.156,648.052 224.227,638.677 222.463,637.963C220.356,637.111 217.91,645.15 209.628,637.403ZM223.102,627.425C223.195,626.446 223.393,625.478 223.486,624.499C224.32,615.72 211.913,621.68 214.112,631.583C214.284,632.356 219.247,641.807 223.102,627.425Z" style="fill:rgb(11,11,11);"/>
        <path d="M439.081,249.545C439.432,276.011 408.063,268.424 414.408,247.468C416.948,239.077 433.161,228.945 439.081,249.545Z" style="fill:rgb(11,11,11);"/>
        <path d="M523.657,275.664C507.075,290.079 494.703,259.19 511.451,251.406C524.278,245.445 535.386,263.435 523.657,275.664Z" style="fill:rgb(12,12,12);"/>
        <path d="M496.152,76.411C496.365,75.626 498.49,67.815 498.85,66.607C504.362,48.086 517.098,63.565 517.817,68.45C518.999,76.476 510.294,66.688 508.497,66.551C503.474,66.165 513.413,75.625 511.2,77.069C510.469,77.545 498.7,74.518 506.794,80.1C511.738,83.509 510.064,84.632 508.747,90.557C506.635,100.056 504.11,99.62 494.571,98.091C490.748,97.478 491.534,95.593 496.152,76.411Z" style="fill:rgb(253,253,253);"/>
        <path d="M291.117,624.577C294.405,651.098 262.238,643.459 269.727,623.575C272.986,614.924 286.89,609.756 291.117,624.577ZM275.056,628.495C276.333,641.015 285.502,636.173 285.228,628.501C284.891,619.061 275.975,618.2 275.056,628.495Z" style="fill:rgb(13,13,13);"/>
        <path d="M390.103,631.594C387.675,622.558 385.244,617.017 389.584,615.851C390.732,615.543 393.772,614.726 395.406,629.529C396.735,641.572 398.007,621.017 402.566,619.691C408.832,617.869 409.602,631.579 409.822,632.295C411.114,636.499 413.313,621.471 413.456,620.494C414.515,613.254 421.457,614.912 419.886,620.605C416.027,634.589 414.838,641.616 410.539,641.09C406.094,640.547 405.214,632.702 404.89,631.334C402.419,620.904 402.291,640.32 396.453,641.036C391.147,641.686 390.187,631.93 390.103,631.594Z" style="fill:rgb(11,11,11);"/>
        <path d="M479.571,275.575C480.863,274.242 480.8,274.268 481.888,272.796C486.989,265.897 491.811,270.841 490.715,274.555C486.355,289.326 456.808,295.534 448.832,274.365C444.873,263.859 454.272,261.519 456.233,268.575C461.961,289.182 478.028,276.767 479.571,275.575Z" style="fill:rgb(10,10,10);"/>
        <path d="M224.3,278.644C224.056,278.227 221.884,274.519 222.956,272.754C227.159,265.833 232.331,279.007 240.441,281.694C254.999,286.517 258.383,267.573 262.469,266.401C277.84,261.992 252.685,313.539 224.3,278.644Z" style="fill:rgb(10,11,10);"/>
        <path d="M565.572,641.112C565.153,640.985 558.372,640.053 556.883,633.403C552.749,614.944 574.39,610.405 578.033,621.648C581.985,633.842 560.163,628.569 563.591,633.445C567.081,638.407 574.975,634.648 576.489,634.407C580.301,633.801 579.802,642.695 565.572,641.112ZM565.41,621.362C556.835,629.087 572.812,628.355 572.37,623.515C571.933,618.74 565.951,621.144 565.41,621.362Z" style="fill:rgb(12,12,12);"/>
        <path d="M262.083,635.496C262.015,636.097 261.177,643.49 256.458,640.553C253.317,638.599 256.455,629.838 254.316,625.596C247.537,612.153 241.763,604.437 248.518,603.612C253.757,602.973 257.051,624.865 260.063,618.274C266.894,603.324 268.1,603.398 269.501,603.485C274.381,603.787 270.469,610.764 270.162,611.313C263.782,622.691 262.087,622.367 262.083,635.496Z" style="fill:rgb(13,13,13);"/>
        <path d="M512.336,620.1C529.356,602.883 529.295,641.699 523.507,641.219C516.274,640.62 524.382,617.788 515.517,622.527C509.134,625.938 513.968,644.717 506.545,640.435C503.839,638.875 502.665,603.281 512.336,620.1Z" style="fill:rgb(13,13,13);"/>
        <path d="M189.284,620.136C199.482,607.004 205.745,623.986 203.283,638.461C202.713,641.813 196.957,643.995 197.161,635.49C197.172,635.045 198.819,621.693 193.478,622.324C185.833,623.227 191.437,644.66 183.403,640.654C182.21,640.058 181.771,639.74 182.107,620.485C182.216,614.226 187.105,614.646 187.755,618.421C187.972,619.682 188.17,619.528 189.284,620.136Z" style="fill:rgb(12,12,12);"/>
        <path d="M295.91,620.539C295.997,620.083 296.825,615.783 298.439,615.316C300.682,614.668 301.979,616.465 302.165,616.723C303.357,618.374 302.577,618.562 301.999,624.55C301.913,625.439 300.926,635.662 305.49,635.159C311.594,634.487 310.673,620.221 310.696,619.517C310.844,615.135 314.331,614.575 316.087,616.798C317.232,618.247 318.79,648.857 311.832,639.242C309.397,635.878 309.038,640.241 304.433,641.081C292.668,643.226 295.882,621.25 295.91,620.539Z" style="fill:rgb(11,11,11);"/>
        <path d="M424.129,635.498C424.159,631.813 422.9,609.353 429.342,616.643C430.402,617.841 429.614,618.207 430.578,619.434C431.362,620.431 433.151,617.761 434.683,616.819C447.577,608.896 447.706,640.535 443.488,641.46C436.33,643.029 441.675,624.586 437.556,622.417C430.196,618.542 431.011,638.48 429.219,640.206C424.794,644.467 424.17,636.051 424.129,635.498Z" style="fill:rgb(9,9,9);"/>
        <path d="M463.059,492.431C457.543,511.21 434.594,498.481 443.929,485.852C445.901,483.185 461.795,474.811 463.059,492.431Z" style="fill:rgb(13,13,13);"/>
        <path d="M362.431,573.548C356.701,562.246 367.663,555.619 374.471,557.612C390.524,562.311 374.499,587.576 362.431,573.548Z" style="fill:rgb(14,14,14);"/>
        <path d="M341.517,440.904C359.341,440.842 366.255,439.938 367.598,444.47C369.712,451.6 360.225,450.124 340.501,450.192C334.139,450.213 331.083,442.004 341.517,440.904Z" style="fill:rgb(252,252,251);"/>
        <path d="M506.5,126.103C503.707,125.768 473.549,122.15 471.837,120.196C471.371,119.663 467.644,113.08 479.454,115.68C486.424,117.215 509.622,118.478 511.295,120.639C511.607,121.041 512.256,122.876 510.652,124.632C509.145,126.282 507.324,126.012 506.5,126.103Z" style="fill:rgb(7,8,7);"/>
        <path d="M550.515,74.102C547.32,73.847 543.421,74.699 543.385,70.503C543.305,61.26 542.665,60.319 544.484,60.325C554.823,60.361 565.272,60.996 564.504,68.5C563.649,76.848 552.328,74.198 550.515,74.102Z" style="fill:rgb(253,253,253);"/>
        <path d="M103.358,622.922C108.506,625.746 106.13,629.631 99.5,629.658C75.852,629.754 68.306,630.124 71.442,624.459C72.569,622.421 73.101,622.073 100.499,622.593C100.73,622.597 100.711,622.617 103.358,622.922Z" style="fill:rgb(12,12,12);"/>
        <path d="M626.675,623.067C631.21,625.601 629.417,629.331 623.5,629.487C595.489,630.224 594.895,629.439 593.977,627.256C591.579,621.557 604.255,622.688 617.5,622.604C622.133,622.575 622.058,622.358 626.675,623.067Z" style="fill:rgb(14,14,14);"/>
        <path d="M365.839,290.522C366.153,288.549 366.125,288.556 366.178,288.391C367.448,284.409 374.992,282.774 375.473,282.892C377.071,283.282 378.2,283.888 375.202,303.451C374.629,307.195 370.62,306.665 367.493,306.56C364.713,306.467 365.624,299.001 365.839,290.522Z" style="fill:rgb(252,252,253);"/>
        <path d="M164.484,622.481C162.491,623.304 162.398,623.515 160.489,622.518C151.689,617.923 157.856,643.038 150.562,641.312C146.543,640.36 147.494,617.128 149.76,615.925C153.604,613.884 153.874,621.852 156.217,619.234C163.094,611.55 168.233,617.29 164.484,622.481Z" style="fill:rgb(12,12,12);"/>
        <path d="M531.487,71.852C530.444,71.738 524.836,72 523.405,69.562C517.401,59.33 516.142,60.332 515.671,59.428C515.01,58.16 516.185,57.299 533.531,59.226C538.051,59.727 539.447,60.067 538.302,64.449C536.113,72.827 534.019,71.555 531.487,71.852Z" style="fill:rgb(252,252,252);"/>
        <path d="M330.591,623.571C326.496,630.902 330.775,644.124 324.644,641.163C320.822,639.318 322.113,617.077 323.793,615.885C327.465,613.278 328.238,621.416 330.572,618.586C337.585,610.083 344.155,622.233 337.469,623.379C336.054,623.622 334.828,622.195 334.311,621.962C332.232,621.025 332.381,622.136 330.591,623.571Z" style="fill:rgb(12,11,11);"/>
        <path d="M192.6,165.91C191.058,166.14 186.381,167.923 183.934,164.227C180.269,158.69 196.638,149.606 199.266,150.987C202.382,152.625 203.719,162.125 192.6,165.91Z" style="fill:rgb(8,8,8);"/>
        <path d="M514.679,346.364C524.189,361.666 513.481,365.589 509.763,360.331C507.344,356.909 506.358,337.38 514.679,346.364Z" style="fill:rgb(253,253,253);"/>
        <path d="M499.16,629.503C499.066,636.984 499.835,637.175 498.365,639.423C498.007,639.971 492.704,644.758 492.72,633.499C492.731,626.334 491.493,613.359 497.524,616.464C499.81,617.641 499.167,625.752 499.16,629.503Z" style="fill:rgb(11,11,11);"/>
        <path d="M169.828,622.502C169.891,621.516 169.84,620.525 169.903,619.539C170.251,614.134 175.826,615.431 176.041,619.546C177.044,638.707 175.783,639.411 174.334,640.221C168.183,643.656 169.805,626.221 169.828,622.502Z" style="fill:rgb(12,11,11);"/>
        <path d="M511.387,200.246C512.313,200.012 520.757,197.877 522.552,204.485C525.3,214.609 497.394,209.515 511.387,200.246Z" style="fill:rgb(253,253,253);"/>
        <path d="M404.405,273.847C390.609,267.973 407.819,263.658 413.301,269.68C413.83,270.261 416.362,276.018 404.405,273.847Z" style="fill:rgb(10,10,11);"/>
        <path d="M532.582,292.072C529.889,291.186 529.895,291.218 529.673,291.115C519.81,286.518 532.776,281.245 539.487,287.514C545.151,292.805 533.242,292.11 532.582,292.072Z" style="fill:rgb(11,11,11);"/>
        <path d="M496.487,604.236C497.019,604.362 503.298,605.842 499.401,610.417C495.476,615.024 487.346,606.873 496.487,604.236Z" style="fill:rgb(12,11,12);"/>
        <path d="M171.293,605.188C171.583,605.053 173.645,604.092 175.274,604.908C176.166,605.355 177.438,607.044 177.204,608.468C176.145,614.927 165.507,610.976 171.293,605.188Z" style="fill:rgb(21,20,20);"/>
    </g>
</svg>
